G04 #@! TF.FileFunction,Legend,Top*
%FSLAX46Y46*%
G04 Gerber Fmt 4.6, Leading zero omitted, Abs format (unit mm)*
G04 Created by KiCad (PCBNEW 4.0.7) date 01/14/20 09:17:38*
%MOMM*%
%LPD*%
G01*
G04 APERTURE LIST*
%ADD10C,0.100000*%
%ADD11C,0.120000*%
%ADD12C,0.150000*%
G04 APERTURE END LIST*
D10*
D11*
X126730000Y-111700000D02*
G75*
G02X124730000Y-111700000I-1000000J0D01*
G01*
X124730000Y-111700000D02*
X123080000Y-111700000D01*
X123080000Y-111700000D02*
X123080000Y-121980000D01*
X123080000Y-121980000D02*
X128380000Y-121980000D01*
X128380000Y-121980000D02*
X128380000Y-111700000D01*
X128380000Y-111700000D02*
X126730000Y-111700000D01*
X181420000Y-91670000D02*
X191840000Y-91670000D01*
X181420000Y-96290000D02*
X191840000Y-96290000D01*
X181420000Y-91670000D02*
X181420000Y-96290000D01*
X191840000Y-91670000D02*
X191840000Y-96290000D01*
X178780000Y-100810000D02*
X191900000Y-100810000D01*
X178780000Y-104930000D02*
X191900000Y-104930000D01*
X178780000Y-100810000D02*
X178780000Y-104930000D01*
X191900000Y-100810000D02*
X191900000Y-104930000D01*
X144510000Y-111700000D02*
G75*
G02X142510000Y-111700000I-1000000J0D01*
G01*
X142510000Y-111700000D02*
X140275000Y-111700000D01*
X140275000Y-111700000D02*
X140275000Y-121980000D01*
X140275000Y-121980000D02*
X146745000Y-121980000D01*
X146745000Y-121980000D02*
X146745000Y-111700000D01*
X146745000Y-111700000D02*
X144510000Y-111700000D01*
X177510000Y-119710000D02*
X172860000Y-119710000D01*
X177510000Y-116510000D02*
X172860000Y-116510000D01*
X172860000Y-116510000D02*
X172860000Y-117310000D01*
X148590000Y-69850000D02*
X148590000Y-63500000D01*
X148590000Y-63500000D02*
X146050000Y-60960000D01*
X146050000Y-60960000D02*
X143510000Y-60960000D01*
X143510000Y-60960000D02*
X140970000Y-63500000D01*
X140970000Y-63500000D02*
X140970000Y-69850000D01*
X153299419Y-77470000D02*
G75*
G03X153299419Y-77470000I-8519419J0D01*
G01*
X168910000Y-69850000D02*
X168910000Y-63500000D01*
X168910000Y-63500000D02*
X166370000Y-60960000D01*
X166370000Y-60960000D02*
X163830000Y-60960000D01*
X163830000Y-60960000D02*
X161290000Y-63500000D01*
X161290000Y-63500000D02*
X161290000Y-69850000D01*
X173619419Y-77470000D02*
G75*
G03X173619419Y-77470000I-8519419J0D01*
G01*
X189230000Y-69850000D02*
X189230000Y-63500000D01*
X189230000Y-63500000D02*
X186690000Y-60960000D01*
X186690000Y-60960000D02*
X184150000Y-60960000D01*
X184150000Y-60960000D02*
X181610000Y-63500000D01*
X181610000Y-63500000D02*
X181610000Y-69850000D01*
X193939419Y-77470000D02*
G75*
G03X193939419Y-77470000I-8519419J0D01*
G01*
X122400000Y-77550000D02*
X122400000Y-68750000D01*
X122400000Y-68750000D02*
X131600000Y-68750000D01*
X125100000Y-83450000D02*
X122400000Y-83450000D01*
X122400000Y-83450000D02*
X122400000Y-81550000D01*
X131600000Y-68750000D02*
X131600000Y-83450000D01*
X131600000Y-83450000D02*
X129000000Y-83450000D01*
X126730000Y-92650000D02*
G75*
G02X124730000Y-92650000I-1000000J0D01*
G01*
X124730000Y-92650000D02*
X122495000Y-92650000D01*
X122495000Y-92650000D02*
X122495000Y-102930000D01*
X122495000Y-102930000D02*
X128965000Y-102930000D01*
X128965000Y-102930000D02*
X128965000Y-92650000D01*
X128965000Y-92650000D02*
X126730000Y-92650000D01*
X144110000Y-91400000D02*
X144110000Y-94020000D01*
X144110000Y-94020000D02*
X150530000Y-94020000D01*
X150530000Y-94020000D02*
X150530000Y-91400000D01*
X150530000Y-91400000D02*
X144110000Y-91400000D01*
X143220000Y-92710000D02*
X144110000Y-92710000D01*
X151420000Y-92710000D02*
X150530000Y-92710000D01*
X160620000Y-91400000D02*
X160620000Y-94020000D01*
X160620000Y-94020000D02*
X167040000Y-94020000D01*
X167040000Y-94020000D02*
X167040000Y-91400000D01*
X167040000Y-91400000D02*
X160620000Y-91400000D01*
X159730000Y-92710000D02*
X160620000Y-92710000D01*
X167930000Y-92710000D02*
X167040000Y-92710000D01*
X144110000Y-97750000D02*
X144110000Y-100370000D01*
X144110000Y-100370000D02*
X150530000Y-100370000D01*
X150530000Y-100370000D02*
X150530000Y-97750000D01*
X150530000Y-97750000D02*
X144110000Y-97750000D01*
X143220000Y-99060000D02*
X144110000Y-99060000D01*
X151420000Y-99060000D02*
X150530000Y-99060000D01*
X160620000Y-97750000D02*
X160620000Y-100370000D01*
X160620000Y-100370000D02*
X167040000Y-100370000D01*
X167040000Y-100370000D02*
X167040000Y-97750000D01*
X167040000Y-97750000D02*
X160620000Y-97750000D01*
X159730000Y-99060000D02*
X160620000Y-99060000D01*
X167930000Y-99060000D02*
X167040000Y-99060000D01*
X144110000Y-104100000D02*
X144110000Y-106720000D01*
X144110000Y-106720000D02*
X150530000Y-106720000D01*
X150530000Y-106720000D02*
X150530000Y-104100000D01*
X150530000Y-104100000D02*
X144110000Y-104100000D01*
X143220000Y-105410000D02*
X144110000Y-105410000D01*
X151420000Y-105410000D02*
X150530000Y-105410000D01*
X160620000Y-104100000D02*
X160620000Y-106720000D01*
X160620000Y-106720000D02*
X167040000Y-106720000D01*
X167040000Y-106720000D02*
X167040000Y-104100000D01*
X167040000Y-104100000D02*
X160620000Y-104100000D01*
X159730000Y-105410000D02*
X160620000Y-105410000D01*
X167930000Y-105410000D02*
X167040000Y-105410000D01*
X161210000Y-116600000D02*
X161210000Y-118950000D01*
X166260000Y-115150000D02*
X166260000Y-118700000D01*
X164510000Y-115150000D02*
X166260000Y-115150000D01*
X157910000Y-115150000D02*
X156160000Y-115150000D01*
X156160000Y-115150000D02*
X156160000Y-118750000D01*
X161210000Y-116550000D02*
X162160000Y-117550000D01*
X161260000Y-116550000D02*
X160260000Y-117500000D01*
X157910000Y-116550000D02*
X157910000Y-113850000D01*
X157910000Y-113850000D02*
X164510000Y-113850000D01*
X164510000Y-113850000D02*
X164510000Y-116550000D01*
X164510000Y-116550000D02*
X157910000Y-116550000D01*
X184760000Y-120010000D02*
X183360000Y-120010000D01*
X183360000Y-120010000D02*
X183360000Y-116210000D01*
X192560000Y-116210000D02*
X192560000Y-120010000D01*
X192560000Y-120010000D02*
X191160000Y-120010000D01*
X186160000Y-120010000D02*
X187260000Y-120010000D01*
X187260000Y-120010000D02*
X187260000Y-120010000D01*
X188660000Y-120010000D02*
X189760000Y-120010000D01*
X189760000Y-120010000D02*
X189760000Y-120010000D01*
X183360000Y-116210000D02*
X185060000Y-116210000D01*
X185060000Y-116210000D02*
X185060000Y-115910000D01*
X185060000Y-115910000D02*
X185860000Y-115910000D01*
X185860000Y-115910000D02*
X185860000Y-116210000D01*
X185860000Y-116210000D02*
X187560000Y-116210000D01*
X187560000Y-116210000D02*
X187560000Y-115910000D01*
X187560000Y-115910000D02*
X188360000Y-115910000D01*
X188360000Y-115910000D02*
X188360000Y-116210000D01*
X188360000Y-116210000D02*
X190060000Y-116210000D01*
X190060000Y-116210000D02*
X190060000Y-115910000D01*
X190060000Y-115910000D02*
X190860000Y-115910000D01*
X190860000Y-115910000D02*
X190860000Y-116210000D01*
X190860000Y-116210000D02*
X192560000Y-116210000D01*
X192560000Y-116210000D02*
X192560000Y-116210000D01*
X189960000Y-114310000D02*
X189960000Y-114810000D01*
X189960000Y-114810000D02*
X189960000Y-114810000D01*
X189960000Y-114310000D02*
X189460000Y-114310000D01*
X189460000Y-114310000D02*
X189460000Y-114310000D01*
X185960000Y-114310000D02*
X186460000Y-114310000D01*
X186460000Y-114310000D02*
X186460000Y-114310000D01*
X185960000Y-114310000D02*
X185960000Y-114810000D01*
X185960000Y-114810000D02*
X185960000Y-114810000D01*
X185960000Y-115110000D02*
X185960000Y-115610000D01*
X185960000Y-115610000D02*
X185960000Y-115610000D01*
X189960000Y-115110000D02*
X189960000Y-115610000D01*
X189960000Y-115610000D02*
X189960000Y-115610000D01*
X189160000Y-114310000D02*
X188660000Y-114310000D01*
X188660000Y-114310000D02*
X188660000Y-114310000D01*
X186760000Y-114310000D02*
X187260000Y-114310000D01*
X187260000Y-114310000D02*
X187260000Y-114310000D01*
X187560000Y-114310000D02*
X188360000Y-114310000D01*
X188360000Y-114310000D02*
X188360000Y-114310000D01*
D12*
X124015714Y-110866667D02*
X124491905Y-110866667D01*
X123920476Y-111152381D02*
X124253809Y-110152381D01*
X124587143Y-111152381D01*
X125444286Y-110200000D02*
X125349048Y-110152381D01*
X125206191Y-110152381D01*
X125063333Y-110200000D01*
X124968095Y-110295238D01*
X124920476Y-110390476D01*
X124872857Y-110580952D01*
X124872857Y-110723810D01*
X124920476Y-110914286D01*
X124968095Y-111009524D01*
X125063333Y-111104762D01*
X125206191Y-111152381D01*
X125301429Y-111152381D01*
X125444286Y-111104762D01*
X125491905Y-111057143D01*
X125491905Y-110723810D01*
X125301429Y-110723810D01*
X125920476Y-111152381D02*
X125920476Y-110152381D01*
X126158571Y-110152381D01*
X126301429Y-110200000D01*
X126396667Y-110295238D01*
X126444286Y-110390476D01*
X126491905Y-110580952D01*
X126491905Y-110723810D01*
X126444286Y-110914286D01*
X126396667Y-111009524D01*
X126301429Y-111104762D01*
X126158571Y-111152381D01*
X125920476Y-111152381D01*
X127444286Y-111152381D02*
X126872857Y-111152381D01*
X127158571Y-111152381D02*
X127158571Y-110152381D01*
X127063333Y-110295238D01*
X126968095Y-110390476D01*
X126872857Y-110438095D01*
X186463334Y-90777143D02*
X186415715Y-90824762D01*
X186272858Y-90872381D01*
X186177620Y-90872381D01*
X186034762Y-90824762D01*
X185939524Y-90729524D01*
X185891905Y-90634286D01*
X185844286Y-90443810D01*
X185844286Y-90300952D01*
X185891905Y-90110476D01*
X185939524Y-90015238D01*
X186034762Y-89920000D01*
X186177620Y-89872381D01*
X186272858Y-89872381D01*
X186415715Y-89920000D01*
X186463334Y-89967619D01*
X187415715Y-90872381D02*
X186844286Y-90872381D01*
X187130000Y-90872381D02*
X187130000Y-89872381D01*
X187034762Y-90015238D01*
X186939524Y-90110476D01*
X186844286Y-90158095D01*
X185173334Y-99917143D02*
X185125715Y-99964762D01*
X184982858Y-100012381D01*
X184887620Y-100012381D01*
X184744762Y-99964762D01*
X184649524Y-99869524D01*
X184601905Y-99774286D01*
X184554286Y-99583810D01*
X184554286Y-99440952D01*
X184601905Y-99250476D01*
X184649524Y-99155238D01*
X184744762Y-99060000D01*
X184887620Y-99012381D01*
X184982858Y-99012381D01*
X185125715Y-99060000D01*
X185173334Y-99107619D01*
X185554286Y-99107619D02*
X185601905Y-99060000D01*
X185697143Y-99012381D01*
X185935239Y-99012381D01*
X186030477Y-99060000D01*
X186078096Y-99107619D01*
X186125715Y-99202857D01*
X186125715Y-99298095D01*
X186078096Y-99440952D01*
X185506667Y-100012381D01*
X186125715Y-100012381D01*
X142914762Y-111057143D02*
X142867143Y-111104762D01*
X142724286Y-111152381D01*
X142629048Y-111152381D01*
X142486190Y-111104762D01*
X142390952Y-111009524D01*
X142343333Y-110914286D01*
X142295714Y-110723810D01*
X142295714Y-110580952D01*
X142343333Y-110390476D01*
X142390952Y-110295238D01*
X142486190Y-110200000D01*
X142629048Y-110152381D01*
X142724286Y-110152381D01*
X142867143Y-110200000D01*
X142914762Y-110247619D01*
X143295714Y-110866667D02*
X143771905Y-110866667D01*
X143200476Y-111152381D02*
X143533809Y-110152381D01*
X143867143Y-111152381D01*
X144724286Y-111152381D02*
X144152857Y-111152381D01*
X144438571Y-111152381D02*
X144438571Y-110152381D01*
X144343333Y-110295238D01*
X144248095Y-110390476D01*
X144152857Y-110438095D01*
X174521905Y-116062381D02*
X174521905Y-115062381D01*
X174760000Y-115062381D01*
X174902858Y-115110000D01*
X174998096Y-115205238D01*
X175045715Y-115300476D01*
X175093334Y-115490952D01*
X175093334Y-115633810D01*
X175045715Y-115824286D01*
X174998096Y-115919524D01*
X174902858Y-116014762D01*
X174760000Y-116062381D01*
X174521905Y-116062381D01*
X176045715Y-116062381D02*
X175474286Y-116062381D01*
X175760000Y-116062381D02*
X175760000Y-115062381D01*
X175664762Y-115205238D01*
X175569524Y-115300476D01*
X175474286Y-115348095D01*
X138732381Y-67853333D02*
X139446667Y-67853333D01*
X139589524Y-67900953D01*
X139684762Y-67996191D01*
X139732381Y-68139048D01*
X139732381Y-68234286D01*
X139732381Y-66853333D02*
X139732381Y-67424762D01*
X139732381Y-67139048D02*
X138732381Y-67139048D01*
X138875238Y-67234286D01*
X138970476Y-67329524D01*
X139018095Y-67424762D01*
X159052381Y-67853333D02*
X159766667Y-67853333D01*
X159909524Y-67900953D01*
X160004762Y-67996191D01*
X160052381Y-68139048D01*
X160052381Y-68234286D01*
X159147619Y-67424762D02*
X159100000Y-67377143D01*
X159052381Y-67281905D01*
X159052381Y-67043809D01*
X159100000Y-66948571D01*
X159147619Y-66900952D01*
X159242857Y-66853333D01*
X159338095Y-66853333D01*
X159480952Y-66900952D01*
X160052381Y-67472381D01*
X160052381Y-66853333D01*
X179372381Y-67853333D02*
X180086667Y-67853333D01*
X180229524Y-67900953D01*
X180324762Y-67996191D01*
X180372381Y-68139048D01*
X180372381Y-68234286D01*
X179372381Y-67472381D02*
X179372381Y-66853333D01*
X179753333Y-67186667D01*
X179753333Y-67043809D01*
X179800952Y-66948571D01*
X179848571Y-66900952D01*
X179943810Y-66853333D01*
X180181905Y-66853333D01*
X180277143Y-66900952D01*
X180324762Y-66948571D01*
X180372381Y-67043809D01*
X180372381Y-67329524D01*
X180324762Y-67424762D01*
X180277143Y-67472381D01*
X120702381Y-74433333D02*
X121416667Y-74433333D01*
X121559524Y-74480953D01*
X121654762Y-74576191D01*
X121702381Y-74719048D01*
X121702381Y-74814286D01*
X121035714Y-73528571D02*
X121702381Y-73528571D01*
X120654762Y-73766667D02*
X121369048Y-74004762D01*
X121369048Y-73385714D01*
X124039524Y-92102381D02*
X123563333Y-92102381D01*
X123563333Y-91102381D01*
X124372857Y-92102381D02*
X124372857Y-91102381D01*
X124706191Y-91816667D01*
X125039524Y-91102381D01*
X125039524Y-92102381D01*
X126039524Y-92102381D02*
X125468095Y-92102381D01*
X125753809Y-92102381D02*
X125753809Y-91102381D01*
X125658571Y-91245238D01*
X125563333Y-91340476D01*
X125468095Y-91388095D01*
X126658571Y-91102381D02*
X126753810Y-91102381D01*
X126849048Y-91150000D01*
X126896667Y-91197619D01*
X126944286Y-91292857D01*
X126991905Y-91483333D01*
X126991905Y-91721429D01*
X126944286Y-91911905D01*
X126896667Y-92007143D01*
X126849048Y-92054762D01*
X126753810Y-92102381D01*
X126658571Y-92102381D01*
X126563333Y-92054762D01*
X126515714Y-92007143D01*
X126468095Y-91911905D01*
X126420476Y-91721429D01*
X126420476Y-91483333D01*
X126468095Y-91292857D01*
X126515714Y-91197619D01*
X126563333Y-91150000D01*
X126658571Y-91102381D01*
X127944286Y-92102381D02*
X127372857Y-92102381D01*
X127658571Y-92102381D02*
X127658571Y-91102381D01*
X127563333Y-91245238D01*
X127468095Y-91340476D01*
X127372857Y-91388095D01*
X147153334Y-90852381D02*
X146820000Y-90376190D01*
X146581905Y-90852381D02*
X146581905Y-89852381D01*
X146962858Y-89852381D01*
X147058096Y-89900000D01*
X147105715Y-89947619D01*
X147153334Y-90042857D01*
X147153334Y-90185714D01*
X147105715Y-90280952D01*
X147058096Y-90328571D01*
X146962858Y-90376190D01*
X146581905Y-90376190D01*
X148105715Y-90852381D02*
X147534286Y-90852381D01*
X147820000Y-90852381D02*
X147820000Y-89852381D01*
X147724762Y-89995238D01*
X147629524Y-90090476D01*
X147534286Y-90138095D01*
X163663334Y-90852381D02*
X163330000Y-90376190D01*
X163091905Y-90852381D02*
X163091905Y-89852381D01*
X163472858Y-89852381D01*
X163568096Y-89900000D01*
X163615715Y-89947619D01*
X163663334Y-90042857D01*
X163663334Y-90185714D01*
X163615715Y-90280952D01*
X163568096Y-90328571D01*
X163472858Y-90376190D01*
X163091905Y-90376190D01*
X164044286Y-89947619D02*
X164091905Y-89900000D01*
X164187143Y-89852381D01*
X164425239Y-89852381D01*
X164520477Y-89900000D01*
X164568096Y-89947619D01*
X164615715Y-90042857D01*
X164615715Y-90138095D01*
X164568096Y-90280952D01*
X163996667Y-90852381D01*
X164615715Y-90852381D01*
X147153334Y-97202381D02*
X146820000Y-96726190D01*
X146581905Y-97202381D02*
X146581905Y-96202381D01*
X146962858Y-96202381D01*
X147058096Y-96250000D01*
X147105715Y-96297619D01*
X147153334Y-96392857D01*
X147153334Y-96535714D01*
X147105715Y-96630952D01*
X147058096Y-96678571D01*
X146962858Y-96726190D01*
X146581905Y-96726190D01*
X147486667Y-96202381D02*
X148105715Y-96202381D01*
X147772381Y-96583333D01*
X147915239Y-96583333D01*
X148010477Y-96630952D01*
X148058096Y-96678571D01*
X148105715Y-96773810D01*
X148105715Y-97011905D01*
X148058096Y-97107143D01*
X148010477Y-97154762D01*
X147915239Y-97202381D01*
X147629524Y-97202381D01*
X147534286Y-97154762D01*
X147486667Y-97107143D01*
X163663334Y-97202381D02*
X163330000Y-96726190D01*
X163091905Y-97202381D02*
X163091905Y-96202381D01*
X163472858Y-96202381D01*
X163568096Y-96250000D01*
X163615715Y-96297619D01*
X163663334Y-96392857D01*
X163663334Y-96535714D01*
X163615715Y-96630952D01*
X163568096Y-96678571D01*
X163472858Y-96726190D01*
X163091905Y-96726190D01*
X164520477Y-96535714D02*
X164520477Y-97202381D01*
X164282381Y-96154762D02*
X164044286Y-96869048D01*
X164663334Y-96869048D01*
X147153334Y-103552381D02*
X146820000Y-103076190D01*
X146581905Y-103552381D02*
X146581905Y-102552381D01*
X146962858Y-102552381D01*
X147058096Y-102600000D01*
X147105715Y-102647619D01*
X147153334Y-102742857D01*
X147153334Y-102885714D01*
X147105715Y-102980952D01*
X147058096Y-103028571D01*
X146962858Y-103076190D01*
X146581905Y-103076190D01*
X148058096Y-102552381D02*
X147581905Y-102552381D01*
X147534286Y-103028571D01*
X147581905Y-102980952D01*
X147677143Y-102933333D01*
X147915239Y-102933333D01*
X148010477Y-102980952D01*
X148058096Y-103028571D01*
X148105715Y-103123810D01*
X148105715Y-103361905D01*
X148058096Y-103457143D01*
X148010477Y-103504762D01*
X147915239Y-103552381D01*
X147677143Y-103552381D01*
X147581905Y-103504762D01*
X147534286Y-103457143D01*
X163663334Y-103552381D02*
X163330000Y-103076190D01*
X163091905Y-103552381D02*
X163091905Y-102552381D01*
X163472858Y-102552381D01*
X163568096Y-102600000D01*
X163615715Y-102647619D01*
X163663334Y-102742857D01*
X163663334Y-102885714D01*
X163615715Y-102980952D01*
X163568096Y-103028571D01*
X163472858Y-103076190D01*
X163091905Y-103076190D01*
X164520477Y-102552381D02*
X164330000Y-102552381D01*
X164234762Y-102600000D01*
X164187143Y-102647619D01*
X164091905Y-102790476D01*
X164044286Y-102980952D01*
X164044286Y-103361905D01*
X164091905Y-103457143D01*
X164139524Y-103504762D01*
X164234762Y-103552381D01*
X164425239Y-103552381D01*
X164520477Y-103504762D01*
X164568096Y-103457143D01*
X164615715Y-103361905D01*
X164615715Y-103123810D01*
X164568096Y-103028571D01*
X164520477Y-102980952D01*
X164425239Y-102933333D01*
X164234762Y-102933333D01*
X164139524Y-102980952D01*
X164091905Y-103028571D01*
X164044286Y-103123810D01*
X154512381Y-119345238D02*
X154036190Y-119678572D01*
X154512381Y-119916667D02*
X153512381Y-119916667D01*
X153512381Y-119535714D01*
X153560000Y-119440476D01*
X153607619Y-119392857D01*
X153702857Y-119345238D01*
X153845714Y-119345238D01*
X153940952Y-119392857D01*
X153988571Y-119440476D01*
X154036190Y-119535714D01*
X154036190Y-119916667D01*
X153512381Y-119059524D02*
X154512381Y-118726191D01*
X153512381Y-118392857D01*
X154512381Y-117535714D02*
X154512381Y-118107143D01*
X154512381Y-117821429D02*
X153512381Y-117821429D01*
X153655238Y-117916667D01*
X153750476Y-118011905D01*
X153798095Y-118107143D01*
X186626667Y-123314762D02*
X186769524Y-123362381D01*
X187007620Y-123362381D01*
X187102858Y-123314762D01*
X187150477Y-123267143D01*
X187198096Y-123171905D01*
X187198096Y-123076667D01*
X187150477Y-122981429D01*
X187102858Y-122933810D01*
X187007620Y-122886190D01*
X186817143Y-122838571D01*
X186721905Y-122790952D01*
X186674286Y-122743333D01*
X186626667Y-122648095D01*
X186626667Y-122552857D01*
X186674286Y-122457619D01*
X186721905Y-122410000D01*
X186817143Y-122362381D01*
X187055239Y-122362381D01*
X187198096Y-122410000D01*
X187531429Y-122362381D02*
X187769524Y-123362381D01*
X187960001Y-122648095D01*
X188150477Y-123362381D01*
X188388572Y-122362381D01*
X189293334Y-123362381D02*
X188721905Y-123362381D01*
X189007619Y-123362381D02*
X189007619Y-122362381D01*
X188912381Y-122505238D01*
X188817143Y-122600476D01*
X188721905Y-122648095D01*
M02*
