%TF.GenerationSoftware,KiCad,Pcbnew,5.1.6-c6e7f7d~86~ubuntu20.04.1*%
%TF.CreationDate,2020-06-02T12:53:55+01:00*%
%TF.ProjectId,PC_driver,50435f64-7269-4766-9572-2e6b69636164,rev?*%
%TF.SameCoordinates,Original*%
%TF.FileFunction,Copper,L1,Top*%
%TF.FilePolarity,Positive*%
%FSLAX46Y46*%
G04 Gerber Fmt 4.6, Leading zero omitted, Abs format (unit mm)*
G04 Created by KiCad (PCBNEW 5.1.6-c6e7f7d~86~ubuntu20.04.1) date 2020-06-02 12:53:55*
%MOMM*%
%LPD*%
G01*
G04 APERTURE LIST*
%TA.AperFunction,ComponentPad*%
%ADD10O,1.600000X1.600000*%
%TD*%
%TA.AperFunction,ComponentPad*%
%ADD11C,1.600000*%
%TD*%
%TA.AperFunction,ComponentPad*%
%ADD12R,1.800000X1.800000*%
%TD*%
%TA.AperFunction,ComponentPad*%
%ADD13C,1.800000*%
%TD*%
%TA.AperFunction,ComponentPad*%
%ADD14R,1.600000X1.600000*%
%TD*%
%TA.AperFunction,ComponentPad*%
%ADD15C,2.340000*%
%TD*%
%TA.AperFunction,ComponentPad*%
%ADD16O,3.500000X7.000000*%
%TD*%
%TA.AperFunction,ComponentPad*%
%ADD17O,1.600000X2.500000*%
%TD*%
%TA.AperFunction,ComponentPad*%
%ADD18R,1.700000X1.700000*%
%TD*%
%TA.AperFunction,ComponentPad*%
%ADD19O,1.700000X1.700000*%
%TD*%
%TA.AperFunction,ComponentPad*%
%ADD20C,0.700000*%
%TD*%
%TA.AperFunction,ComponentPad*%
%ADD21O,0.900000X2.400000*%
%TD*%
%TA.AperFunction,ComponentPad*%
%ADD22O,0.900000X1.700000*%
%TD*%
%TA.AperFunction,ComponentPad*%
%ADD23C,2.000000*%
%TD*%
%TA.AperFunction,ComponentPad*%
%ADD24C,1.700000*%
%TD*%
%TA.AperFunction,ViaPad*%
%ADD25C,0.650000*%
%TD*%
%TA.AperFunction,Conductor*%
%ADD26C,0.500000*%
%TD*%
%TA.AperFunction,Conductor*%
%ADD27C,0.250000*%
%TD*%
%TA.AperFunction,Conductor*%
%ADD28C,0.254000*%
%TD*%
G04 APERTURE END LIST*
D10*
%TO.P,R4,2*%
%TO.N,Net-(J2-Pad1)*%
X106300000Y-91000000D03*
D11*
%TO.P,R4,1*%
%TO.N,signal_pos_blank*%
X119000000Y-91000000D03*
%TD*%
D10*
%TO.P,R7,2*%
%TO.N,GND*%
X146700000Y-92000000D03*
D11*
%TO.P,R7,1*%
%TO.N,Net-(D2-Pad1)*%
X134000000Y-92000000D03*
%TD*%
D12*
%TO.P,D1,1*%
%TO.N,Net-(D1-Pad1)*%
X172000000Y-98000000D03*
D13*
%TO.P,D1,2*%
%TO.N,+5V*%
X174540000Y-98000000D03*
%TD*%
%TO.P,D2,2*%
%TO.N,+5V*%
X128540000Y-98000000D03*
D12*
%TO.P,D2,1*%
%TO.N,Net-(D2-Pad1)*%
X126000000Y-98000000D03*
%TD*%
D14*
%TO.P,U1,1*%
%TO.N,Net-(RV1-Pad1)*%
X152000000Y-70000000D03*
D10*
%TO.P,U1,5*%
%TO.N,GND*%
X159620000Y-77620000D03*
%TO.P,U1,2*%
%TO.N,pin2*%
X152000000Y-72540000D03*
%TO.P,U1,6*%
%TO.N,internal_signal*%
X159620000Y-75080000D03*
%TO.P,U1,3*%
%TO.N,Net-(RV1-Pad2)*%
X152000000Y-75080000D03*
%TO.P,U1,7*%
%TO.N,+5V*%
X159620000Y-72540000D03*
%TO.P,U1,4*%
%TO.N,GND*%
X152000000Y-77620000D03*
%TO.P,U1,8*%
%TO.N,Net-(RV1-Pad1)*%
X159620000Y-70000000D03*
%TD*%
%TO.P,U3,8*%
%TO.N,signal_pre_blank*%
X142620000Y-70000000D03*
%TO.P,U3,4*%
%TO.N,+5V*%
X135000000Y-77620000D03*
%TO.P,U3,7*%
%TO.N,GND*%
X142620000Y-72540000D03*
%TO.P,U3,3*%
X135000000Y-75080000D03*
%TO.P,U3,6*%
%TO.N,Net-(J4-Pad1)*%
X142620000Y-75080000D03*
%TO.P,U3,2*%
%TO.N,GND*%
X135000000Y-72540000D03*
%TO.P,U3,5*%
%TO.N,+5V*%
X142620000Y-77620000D03*
D14*
%TO.P,U3,1*%
%TO.N,signal_pos_blank*%
X135000000Y-70000000D03*
%TD*%
D15*
%TO.P,RV1,1*%
%TO.N,Net-(RV1-Pad1)*%
X181000000Y-69000000D03*
%TO.P,RV1,2*%
%TO.N,Net-(RV1-Pad2)*%
X186000000Y-74000000D03*
%TO.P,RV1,3*%
%TO.N,GND*%
X181000000Y-79000000D03*
%TD*%
D11*
%TO.P,C2,2*%
%TO.N,internal_signal*%
X119000000Y-71500000D03*
%TO.P,C2,1*%
%TO.N,pin2*%
X119000000Y-74000000D03*
%TD*%
%TO.P,C1,1*%
%TO.N,GND*%
X165000000Y-72000000D03*
%TO.P,C1,2*%
%TO.N,+5V*%
X165000000Y-74500000D03*
%TD*%
%TO.P,C3,1*%
%TO.N,+5V*%
X147000000Y-75000000D03*
%TO.P,C3,2*%
%TO.N,GND*%
X147000000Y-72500000D03*
%TD*%
D16*
%TO.P,J1,2*%
%TO.N,GND*%
X123920000Y-54920000D03*
X134080000Y-54920000D03*
D17*
%TO.P,J1,1*%
%TO.N,analog_input*%
X129000000Y-60000000D03*
%TO.P,J1,2*%
%TO.N,GND*%
X126460000Y-60000000D03*
%TD*%
D18*
%TO.P,J2,1*%
%TO.N,Net-(J2-Pad1)*%
X108000000Y-85000000D03*
D19*
%TO.P,J2,2*%
%TO.N,Net-(J2-Pad2)*%
X110540000Y-85000000D03*
%TO.P,J2,3*%
%TO.N,signal_pos_blank*%
X113080000Y-85000000D03*
%TD*%
D16*
%TO.P,J3,2*%
%TO.N,GND*%
X144920000Y-54920000D03*
X155080000Y-54920000D03*
D17*
%TO.P,J3,1*%
%TO.N,Net-(J3-Pad1)*%
X150000000Y-60000000D03*
%TO.P,J3,2*%
%TO.N,GND*%
X147460000Y-60000000D03*
%TD*%
%TO.P,J4,2*%
%TO.N,GND*%
X168460000Y-60000000D03*
%TO.P,J4,1*%
%TO.N,Net-(J4-Pad1)*%
X171000000Y-60000000D03*
D16*
%TO.P,J4,2*%
%TO.N,GND*%
X176080000Y-54920000D03*
X165920000Y-54920000D03*
%TD*%
D20*
%TO.P,P1,A1*%
%TO.N,GND*%
X113000000Y-53000000D03*
%TO.P,P1,A4*%
%TO.N,+5V*%
X112150000Y-53000000D03*
%TO.P,P1,A5*%
%TO.N,Net-(P1-PadA5)*%
X111300000Y-53000000D03*
%TO.P,P1,A6*%
%TO.N,Net-(P1-PadA6)*%
X110450000Y-53000000D03*
%TO.P,P1,A7*%
%TO.N,Net-(P1-PadA7)*%
X109600000Y-53000000D03*
%TO.P,P1,A8*%
%TO.N,N/C*%
X108750000Y-53000000D03*
%TO.P,P1,A9*%
%TO.N,+5V*%
X107900000Y-53000000D03*
%TO.P,P1,A12*%
%TO.N,GND*%
X107050000Y-53000000D03*
%TO.P,P1,B9*%
%TO.N,+5V*%
X112150000Y-51650000D03*
%TO.P,P1,B7*%
%TO.N,N/C*%
X110450000Y-51650000D03*
%TO.P,P1,B8*%
X111300000Y-51650000D03*
%TO.P,P1,B12*%
%TO.N,GND*%
X113000000Y-51650000D03*
%TO.P,P1,B5*%
X108750000Y-51650000D03*
%TO.P,P1,B4*%
%TO.N,+5V*%
X107900000Y-51650000D03*
%TO.P,P1,B1*%
%TO.N,GND*%
X107050000Y-51650000D03*
%TO.P,P1,B6*%
%TO.N,N/C*%
X109600000Y-51650000D03*
D21*
%TO.P,P1,S1*%
%TO.N,GND*%
X114350000Y-52020000D03*
X105700000Y-52020000D03*
D22*
X114350000Y-48640000D03*
X105700000Y-48640000D03*
%TD*%
D11*
%TO.P,R1,1*%
%TO.N,GND*%
X104000000Y-63000000D03*
D10*
%TO.P,R1,2*%
%TO.N,analog_input*%
X116700000Y-63000000D03*
%TD*%
%TO.P,R5,2*%
%TO.N,pin2*%
X126000000Y-79700000D03*
D11*
%TO.P,R5,1*%
%TO.N,internal_signal*%
X126000000Y-67000000D03*
%TD*%
D10*
%TO.P,R2,2*%
%TO.N,GND*%
X162700000Y-86000000D03*
D11*
%TO.P,R2,1*%
%TO.N,pin2*%
X150000000Y-86000000D03*
%TD*%
%TO.P,R3,1*%
%TO.N,Net-(D1-Pad1)*%
X163000000Y-92000000D03*
D10*
%TO.P,R3,2*%
%TO.N,GND*%
X150300000Y-92000000D03*
%TD*%
D11*
%TO.P,R6,1*%
%TO.N,Net-(J4-Pad1)*%
X175000000Y-68000000D03*
D10*
%TO.P,R6,2*%
%TO.N,GND*%
X175000000Y-80700000D03*
%TD*%
D23*
%TO.P,SW1,*%
%TO.N,*%
X107000000Y-96250000D03*
X119000000Y-96250000D03*
X119000000Y-102250000D03*
X107000000Y-102250000D03*
D24*
%TO.P,SW1,1*%
%TO.N,internal_signal*%
X109000000Y-98000000D03*
%TO.P,SW1,2*%
%TO.N,Net-(SW1-Pad2)*%
X113000000Y-98000000D03*
%TO.P,SW1,3*%
%TO.N,analog_input*%
X117000000Y-98000000D03*
%TD*%
D14*
%TO.P,U2,1*%
%TO.N,signal_pre_blank*%
X106000000Y-70000000D03*
D10*
%TO.P,U2,5*%
%TO.N,Net-(J2-Pad2)*%
X113620000Y-77620000D03*
%TO.P,U2,2*%
%TO.N,signal_pre_blank*%
X106000000Y-72540000D03*
%TO.P,U2,6*%
%TO.N,Net-(J3-Pad1)*%
X113620000Y-75080000D03*
%TO.P,U2,3*%
%TO.N,Net-(SW1-Pad2)*%
X106000000Y-75080000D03*
%TO.P,U2,7*%
%TO.N,Net-(J3-Pad1)*%
X113620000Y-72540000D03*
%TO.P,U2,4*%
%TO.N,GND*%
X106000000Y-77620000D03*
%TO.P,U2,8*%
%TO.N,+5V*%
X113620000Y-70000000D03*
%TD*%
D25*
%TO.N,analog_input*%
X116500000Y-82000000D03*
%TO.N,signal_pre_blank*%
X120000000Y-67000000D03*
X126000000Y-65000000D03*
%TD*%
D26*
%TO.N,Net-(D1-Pad1)*%
X166000000Y-92000000D02*
X172000000Y-98000000D01*
X163000000Y-92000000D02*
X166000000Y-92000000D01*
%TO.N,internal_signal*%
X123500000Y-67000000D02*
X119000000Y-71500000D01*
X126000000Y-67000000D02*
X123500000Y-67000000D01*
X114970001Y-75529999D02*
X119000000Y-71500000D01*
X114970001Y-92029999D02*
X114970001Y-75529999D01*
X109000000Y-98000000D02*
X114970001Y-92029999D01*
%TO.N,pin2*%
X119000000Y-74000000D02*
X125000000Y-74000000D01*
X125000000Y-74000000D02*
X132000000Y-81000000D01*
X152000000Y-73000000D02*
X152000000Y-72540000D01*
X144000000Y-81000000D02*
X152000000Y-73000000D01*
X127300000Y-81000000D02*
X126000000Y-79700000D01*
X132000000Y-81000000D02*
X127300000Y-81000000D01*
X132000000Y-81000000D02*
X137000000Y-81000000D01*
X137000000Y-81000000D02*
X144000000Y-81000000D01*
X145000000Y-81000000D02*
X150000000Y-86000000D01*
X144000000Y-81000000D02*
X145000000Y-81000000D01*
%TO.N,Net-(D2-Pad1)*%
X134000000Y-92000000D02*
X130000000Y-92000000D01*
X126000000Y-96000000D02*
X126000000Y-98000000D01*
X130000000Y-92000000D02*
X126000000Y-96000000D01*
%TO.N,analog_input*%
X127000000Y-63000000D02*
X116700000Y-63000000D01*
X129000000Y-60000000D02*
X129000000Y-61000000D01*
X129000000Y-61000000D02*
X127000000Y-63000000D01*
X117000000Y-82500000D02*
X117000000Y-98000000D01*
X116500000Y-82000000D02*
X117000000Y-82500000D01*
%TO.N,Net-(J2-Pad1)*%
X108000000Y-89300000D02*
X106300000Y-91000000D01*
X108000000Y-85000000D02*
X108000000Y-89300000D01*
%TO.N,Net-(J3-Pad1)*%
X113620000Y-72540000D02*
X113620000Y-75080000D01*
X117510001Y-68649999D02*
X120350001Y-68649999D01*
X113620000Y-72540000D02*
X117510001Y-68649999D01*
X125199990Y-63800010D02*
X146199990Y-63800010D01*
X146199990Y-63800010D02*
X150000000Y-60000000D01*
X120350001Y-68649999D02*
X125199990Y-63800010D01*
%TO.N,Net-(J4-Pad1)*%
X171000000Y-62000000D02*
X171000000Y-60000000D01*
X169000000Y-64000000D02*
X171000000Y-62000000D01*
X171000000Y-64000000D02*
X175000000Y-68000000D01*
X168000000Y-64000000D02*
X171000000Y-64000000D01*
X168000000Y-64000000D02*
X169000000Y-64000000D01*
X142620000Y-74881998D02*
X142620000Y-75080000D01*
X153501998Y-64000000D02*
X142620000Y-74881998D01*
X168000000Y-64000000D02*
X153501998Y-64000000D01*
%TO.N,Net-(RV1-Pad1)*%
X152000000Y-70000000D02*
X159620000Y-70000000D01*
%TO.N,signal_pre_blank*%
X106000000Y-70000000D02*
X106000000Y-72540000D01*
X109000000Y-67000000D02*
X120000000Y-67000000D01*
X106000000Y-70000000D02*
X109000000Y-67000000D01*
X137620000Y-65000000D02*
X142620000Y-70000000D01*
X126000000Y-65000000D02*
X137620000Y-65000000D01*
%TO.N,+5V*%
X107900000Y-53000000D02*
X107900000Y-54400000D01*
X107900000Y-54400000D02*
X107900000Y-51650000D01*
X112150000Y-51650000D02*
X112150000Y-50150000D01*
X112200001Y-52567999D02*
X112200001Y-52615997D01*
X112150000Y-52517998D02*
X112200001Y-52567999D01*
X112150000Y-51650000D02*
X112150000Y-52517998D01*
X112150000Y-52565996D02*
X112200001Y-52615997D01*
X112150000Y-51650000D02*
X112150000Y-52565996D01*
D27*
X112150000Y-51650000D02*
X112150000Y-53000000D01*
%TD*%
D28*
%TO.N,+5V*%
G36*
X104615000Y-48186706D02*
G01*
X104615000Y-49093293D01*
X104630700Y-49252696D01*
X104692741Y-49457219D01*
X104793491Y-49645710D01*
X104929078Y-49810922D01*
X105094290Y-49946509D01*
X105282780Y-50047259D01*
X105487303Y-50109300D01*
X105700000Y-50130249D01*
X105912696Y-50109300D01*
X106117219Y-50047259D01*
X106305710Y-49946509D01*
X106470922Y-49810922D01*
X106606509Y-49645710D01*
X106707259Y-49457220D01*
X106769300Y-49252697D01*
X106785000Y-49093294D01*
X106785000Y-48186707D01*
X106779119Y-48127000D01*
X113270881Y-48127000D01*
X113265000Y-48186706D01*
X113265000Y-49093293D01*
X113280700Y-49252696D01*
X113342741Y-49457219D01*
X113443491Y-49645710D01*
X113579078Y-49810922D01*
X113744290Y-49946509D01*
X113932780Y-50047259D01*
X114137303Y-50109300D01*
X114350000Y-50130249D01*
X114562696Y-50109300D01*
X114767219Y-50047259D01*
X114955710Y-49946509D01*
X115120922Y-49810922D01*
X115256509Y-49645710D01*
X115357259Y-49457220D01*
X115419300Y-49252697D01*
X115435000Y-49093294D01*
X115435000Y-48186707D01*
X115429119Y-48127000D01*
X188873000Y-48127000D01*
X188873000Y-48873000D01*
X181000000Y-48873000D01*
X180975224Y-48875440D01*
X180951399Y-48882667D01*
X180929443Y-48894403D01*
X180910197Y-48910197D01*
X180894403Y-48929443D01*
X180882667Y-48951399D01*
X180875440Y-48975224D01*
X180873000Y-49000000D01*
X180873000Y-57000000D01*
X180875440Y-57024776D01*
X180882667Y-57048601D01*
X180894403Y-57070557D01*
X180910197Y-57089803D01*
X180929443Y-57105597D01*
X180951399Y-57117333D01*
X180975224Y-57124560D01*
X181000000Y-57127000D01*
X188873000Y-57127000D01*
X188873000Y-93873000D01*
X181000000Y-93873000D01*
X180975224Y-93875440D01*
X180951399Y-93882667D01*
X180929443Y-93894403D01*
X180910197Y-93910197D01*
X180894403Y-93929443D01*
X180882667Y-93951399D01*
X180875440Y-93975224D01*
X180873000Y-94000000D01*
X180873000Y-102000000D01*
X180875440Y-102024776D01*
X180882667Y-102048601D01*
X180894403Y-102070557D01*
X180910197Y-102089803D01*
X180929443Y-102105597D01*
X180951399Y-102117333D01*
X180975224Y-102124560D01*
X181000000Y-102127000D01*
X188873000Y-102127000D01*
X188873000Y-102873000D01*
X120511656Y-102873000D01*
X120572168Y-102726912D01*
X120635000Y-102411033D01*
X120635000Y-102088967D01*
X120572168Y-101773088D01*
X120448918Y-101475537D01*
X120269987Y-101207748D01*
X120042252Y-100980013D01*
X119774463Y-100801082D01*
X119476912Y-100677832D01*
X119161033Y-100615000D01*
X118838967Y-100615000D01*
X118523088Y-100677832D01*
X118225537Y-100801082D01*
X117957748Y-100980013D01*
X117730013Y-101207748D01*
X117551082Y-101475537D01*
X117427832Y-101773088D01*
X117365000Y-102088967D01*
X117365000Y-102411033D01*
X117427832Y-102726912D01*
X117488344Y-102873000D01*
X108511656Y-102873000D01*
X108572168Y-102726912D01*
X108635000Y-102411033D01*
X108635000Y-102088967D01*
X108572168Y-101773088D01*
X108448918Y-101475537D01*
X108269987Y-101207748D01*
X108042252Y-100980013D01*
X107774463Y-100801082D01*
X107476912Y-100677832D01*
X107161033Y-100615000D01*
X106838967Y-100615000D01*
X106523088Y-100677832D01*
X106225537Y-100801082D01*
X105957748Y-100980013D01*
X105730013Y-101207748D01*
X105551082Y-101475537D01*
X105427832Y-101773088D01*
X105365000Y-102088967D01*
X105365000Y-102411033D01*
X105427832Y-102726912D01*
X105488344Y-102873000D01*
X93127000Y-102873000D01*
X93127000Y-102127000D01*
X101000000Y-102127000D01*
X101024776Y-102124560D01*
X101048601Y-102117333D01*
X101070557Y-102105597D01*
X101089803Y-102089803D01*
X101105597Y-102070557D01*
X101117333Y-102048601D01*
X101124560Y-102024776D01*
X101127000Y-102000000D01*
X101127000Y-94000000D01*
X101124560Y-93975224D01*
X101117333Y-93951399D01*
X101105597Y-93929443D01*
X101089803Y-93910197D01*
X101070557Y-93894403D01*
X101048601Y-93882667D01*
X101024776Y-93875440D01*
X101000000Y-93873000D01*
X93127000Y-93873000D01*
X93127000Y-69200000D01*
X104561928Y-69200000D01*
X104561928Y-70800000D01*
X104574188Y-70924482D01*
X104610498Y-71044180D01*
X104669463Y-71154494D01*
X104748815Y-71251185D01*
X104845506Y-71330537D01*
X104955820Y-71389502D01*
X105075518Y-71425812D01*
X105083961Y-71426643D01*
X104885363Y-71625241D01*
X104728320Y-71860273D01*
X104620147Y-72121426D01*
X104565000Y-72398665D01*
X104565000Y-72681335D01*
X104620147Y-72958574D01*
X104728320Y-73219727D01*
X104885363Y-73454759D01*
X105085241Y-73654637D01*
X105317759Y-73810000D01*
X105085241Y-73965363D01*
X104885363Y-74165241D01*
X104728320Y-74400273D01*
X104620147Y-74661426D01*
X104565000Y-74938665D01*
X104565000Y-75221335D01*
X104620147Y-75498574D01*
X104728320Y-75759727D01*
X104885363Y-75994759D01*
X105085241Y-76194637D01*
X105317759Y-76350000D01*
X105085241Y-76505363D01*
X104885363Y-76705241D01*
X104728320Y-76940273D01*
X104620147Y-77201426D01*
X104565000Y-77478665D01*
X104565000Y-77761335D01*
X104620147Y-78038574D01*
X104728320Y-78299727D01*
X104885363Y-78534759D01*
X105085241Y-78734637D01*
X105320273Y-78891680D01*
X105581426Y-78999853D01*
X105858665Y-79055000D01*
X106141335Y-79055000D01*
X106418574Y-78999853D01*
X106679727Y-78891680D01*
X106914759Y-78734637D01*
X107114637Y-78534759D01*
X107271680Y-78299727D01*
X107379853Y-78038574D01*
X107435000Y-77761335D01*
X107435000Y-77478665D01*
X107379853Y-77201426D01*
X107271680Y-76940273D01*
X107114637Y-76705241D01*
X106914759Y-76505363D01*
X106682241Y-76350000D01*
X106914759Y-76194637D01*
X107114637Y-75994759D01*
X107271680Y-75759727D01*
X107379853Y-75498574D01*
X107435000Y-75221335D01*
X107435000Y-74938665D01*
X107379853Y-74661426D01*
X107271680Y-74400273D01*
X107114637Y-74165241D01*
X106914759Y-73965363D01*
X106682241Y-73810000D01*
X106914759Y-73654637D01*
X107114637Y-73454759D01*
X107271680Y-73219727D01*
X107379853Y-72958574D01*
X107435000Y-72681335D01*
X107435000Y-72398665D01*
X107379853Y-72121426D01*
X107271680Y-71860273D01*
X107114637Y-71625241D01*
X106916039Y-71426643D01*
X106924482Y-71425812D01*
X107044180Y-71389502D01*
X107154494Y-71330537D01*
X107251185Y-71251185D01*
X107330537Y-71154494D01*
X107389502Y-71044180D01*
X107425812Y-70924482D01*
X107438072Y-70800000D01*
X107438072Y-69813506D01*
X107600617Y-69650961D01*
X112228096Y-69650961D01*
X112350085Y-69873000D01*
X113493000Y-69873000D01*
X113493000Y-68729376D01*
X113270960Y-68608091D01*
X113006119Y-68702930D01*
X112764869Y-68847615D01*
X112556481Y-69036586D01*
X112388963Y-69262580D01*
X112268754Y-69516913D01*
X112228096Y-69650961D01*
X107600617Y-69650961D01*
X109366579Y-67885000D01*
X117063814Y-67885000D01*
X117015942Y-67910588D01*
X116986453Y-67934789D01*
X116914954Y-67993467D01*
X116914952Y-67993469D01*
X116881184Y-68021182D01*
X116853471Y-68054950D01*
X115035424Y-69872998D01*
X114889916Y-69872998D01*
X115011904Y-69650961D01*
X114971246Y-69516913D01*
X114851037Y-69262580D01*
X114683519Y-69036586D01*
X114475131Y-68847615D01*
X114233881Y-68702930D01*
X113969040Y-68608091D01*
X113747000Y-68729376D01*
X113747000Y-69873000D01*
X113767000Y-69873000D01*
X113767000Y-70127000D01*
X113747000Y-70127000D01*
X113747000Y-70147000D01*
X113493000Y-70147000D01*
X113493000Y-70127000D01*
X112350085Y-70127000D01*
X112228096Y-70349039D01*
X112268754Y-70483087D01*
X112388963Y-70737420D01*
X112556481Y-70963414D01*
X112764869Y-71152385D01*
X112950865Y-71263933D01*
X112940273Y-71268320D01*
X112705241Y-71425363D01*
X112505363Y-71625241D01*
X112348320Y-71860273D01*
X112240147Y-72121426D01*
X112185000Y-72398665D01*
X112185000Y-72681335D01*
X112240147Y-72958574D01*
X112348320Y-73219727D01*
X112505363Y-73454759D01*
X112705241Y-73654637D01*
X112735000Y-73674522D01*
X112735001Y-73945478D01*
X112705241Y-73965363D01*
X112505363Y-74165241D01*
X112348320Y-74400273D01*
X112240147Y-74661426D01*
X112185000Y-74938665D01*
X112185000Y-75221335D01*
X112240147Y-75498574D01*
X112348320Y-75759727D01*
X112505363Y-75994759D01*
X112705241Y-76194637D01*
X112937759Y-76350000D01*
X112705241Y-76505363D01*
X112505363Y-76705241D01*
X112348320Y-76940273D01*
X112240147Y-77201426D01*
X112185000Y-77478665D01*
X112185000Y-77761335D01*
X112240147Y-78038574D01*
X112348320Y-78299727D01*
X112505363Y-78534759D01*
X112705241Y-78734637D01*
X112940273Y-78891680D01*
X113201426Y-78999853D01*
X113478665Y-79055000D01*
X113761335Y-79055000D01*
X114038574Y-78999853D01*
X114085002Y-78980622D01*
X114085001Y-83904894D01*
X114026632Y-83846525D01*
X113783411Y-83684010D01*
X113513158Y-83572068D01*
X113226260Y-83515000D01*
X112933740Y-83515000D01*
X112646842Y-83572068D01*
X112376589Y-83684010D01*
X112133368Y-83846525D01*
X111926525Y-84053368D01*
X111810000Y-84227760D01*
X111693475Y-84053368D01*
X111486632Y-83846525D01*
X111243411Y-83684010D01*
X110973158Y-83572068D01*
X110686260Y-83515000D01*
X110393740Y-83515000D01*
X110106842Y-83572068D01*
X109836589Y-83684010D01*
X109593368Y-83846525D01*
X109461513Y-83978380D01*
X109439502Y-83905820D01*
X109380537Y-83795506D01*
X109301185Y-83698815D01*
X109204494Y-83619463D01*
X109094180Y-83560498D01*
X108974482Y-83524188D01*
X108850000Y-83511928D01*
X107150000Y-83511928D01*
X107025518Y-83524188D01*
X106905820Y-83560498D01*
X106795506Y-83619463D01*
X106698815Y-83698815D01*
X106619463Y-83795506D01*
X106560498Y-83905820D01*
X106524188Y-84025518D01*
X106511928Y-84150000D01*
X106511928Y-85850000D01*
X106524188Y-85974482D01*
X106560498Y-86094180D01*
X106619463Y-86204494D01*
X106698815Y-86301185D01*
X106795506Y-86380537D01*
X106905820Y-86439502D01*
X107025518Y-86475812D01*
X107115000Y-86484625D01*
X107115001Y-88933420D01*
X106476439Y-89571983D01*
X106441335Y-89565000D01*
X106158665Y-89565000D01*
X105881426Y-89620147D01*
X105620273Y-89728320D01*
X105385241Y-89885363D01*
X105185363Y-90085241D01*
X105028320Y-90320273D01*
X104920147Y-90581426D01*
X104865000Y-90858665D01*
X104865000Y-91141335D01*
X104920147Y-91418574D01*
X105028320Y-91679727D01*
X105185363Y-91914759D01*
X105385241Y-92114637D01*
X105620273Y-92271680D01*
X105881426Y-92379853D01*
X106158665Y-92435000D01*
X106441335Y-92435000D01*
X106718574Y-92379853D01*
X106979727Y-92271680D01*
X107214759Y-92114637D01*
X107414637Y-91914759D01*
X107571680Y-91679727D01*
X107679853Y-91418574D01*
X107735000Y-91141335D01*
X107735000Y-90858665D01*
X107728017Y-90823561D01*
X108595049Y-89956530D01*
X108628817Y-89928817D01*
X108739411Y-89794059D01*
X108821589Y-89640313D01*
X108872195Y-89473490D01*
X108885000Y-89343477D01*
X108885000Y-89343467D01*
X108889281Y-89300001D01*
X108885000Y-89256534D01*
X108885000Y-86484625D01*
X108974482Y-86475812D01*
X109094180Y-86439502D01*
X109204494Y-86380537D01*
X109301185Y-86301185D01*
X109380537Y-86204494D01*
X109439502Y-86094180D01*
X109461513Y-86021620D01*
X109593368Y-86153475D01*
X109836589Y-86315990D01*
X110106842Y-86427932D01*
X110393740Y-86485000D01*
X110686260Y-86485000D01*
X110973158Y-86427932D01*
X111243411Y-86315990D01*
X111486632Y-86153475D01*
X111693475Y-85946632D01*
X111810000Y-85772240D01*
X111926525Y-85946632D01*
X112133368Y-86153475D01*
X112376589Y-86315990D01*
X112646842Y-86427932D01*
X112933740Y-86485000D01*
X113226260Y-86485000D01*
X113513158Y-86427932D01*
X113783411Y-86315990D01*
X114026632Y-86153475D01*
X114085001Y-86095106D01*
X114085001Y-91663420D01*
X109218961Y-96529461D01*
X109146260Y-96515000D01*
X108853740Y-96515000D01*
X108604457Y-96564586D01*
X108635000Y-96411033D01*
X108635000Y-96088967D01*
X108572168Y-95773088D01*
X108448918Y-95475537D01*
X108269987Y-95207748D01*
X108042252Y-94980013D01*
X107774463Y-94801082D01*
X107476912Y-94677832D01*
X107161033Y-94615000D01*
X106838967Y-94615000D01*
X106523088Y-94677832D01*
X106225537Y-94801082D01*
X105957748Y-94980013D01*
X105730013Y-95207748D01*
X105551082Y-95475537D01*
X105427832Y-95773088D01*
X105365000Y-96088967D01*
X105365000Y-96411033D01*
X105427832Y-96726912D01*
X105551082Y-97024463D01*
X105730013Y-97292252D01*
X105957748Y-97519987D01*
X106225537Y-97698918D01*
X106523088Y-97822168D01*
X106838967Y-97885000D01*
X107161033Y-97885000D01*
X107476912Y-97822168D01*
X107525264Y-97802140D01*
X107515000Y-97853740D01*
X107515000Y-98146260D01*
X107572068Y-98433158D01*
X107684010Y-98703411D01*
X107846525Y-98946632D01*
X108053368Y-99153475D01*
X108296589Y-99315990D01*
X108566842Y-99427932D01*
X108853740Y-99485000D01*
X109146260Y-99485000D01*
X109433158Y-99427932D01*
X109703411Y-99315990D01*
X109946632Y-99153475D01*
X110153475Y-98946632D01*
X110315990Y-98703411D01*
X110427932Y-98433158D01*
X110485000Y-98146260D01*
X110485000Y-97853740D01*
X111515000Y-97853740D01*
X111515000Y-98146260D01*
X111572068Y-98433158D01*
X111684010Y-98703411D01*
X111846525Y-98946632D01*
X112053368Y-99153475D01*
X112296589Y-99315990D01*
X112566842Y-99427932D01*
X112853740Y-99485000D01*
X113146260Y-99485000D01*
X113433158Y-99427932D01*
X113703411Y-99315990D01*
X113946632Y-99153475D01*
X114153475Y-98946632D01*
X114315990Y-98703411D01*
X114427932Y-98433158D01*
X114485000Y-98146260D01*
X114485000Y-97853740D01*
X114427932Y-97566842D01*
X114315990Y-97296589D01*
X114153475Y-97053368D01*
X113946632Y-96846525D01*
X113703411Y-96684010D01*
X113433158Y-96572068D01*
X113146260Y-96515000D01*
X112853740Y-96515000D01*
X112566842Y-96572068D01*
X112296589Y-96684010D01*
X112053368Y-96846525D01*
X111846525Y-97053368D01*
X111684010Y-97296589D01*
X111572068Y-97566842D01*
X111515000Y-97853740D01*
X110485000Y-97853740D01*
X110470539Y-97781039D01*
X115565052Y-92686527D01*
X115598818Y-92658816D01*
X115651153Y-92595047D01*
X115709411Y-92524059D01*
X115709412Y-92524058D01*
X115791590Y-92370312D01*
X115842196Y-92203489D01*
X115855001Y-92073476D01*
X115855001Y-92073466D01*
X115859282Y-92030000D01*
X115855001Y-91986534D01*
X115855001Y-82712646D01*
X115888036Y-82745681D01*
X116045269Y-82850741D01*
X116115000Y-82879625D01*
X116115001Y-96805343D01*
X116053368Y-96846525D01*
X115846525Y-97053368D01*
X115684010Y-97296589D01*
X115572068Y-97566842D01*
X115515000Y-97853740D01*
X115515000Y-98146260D01*
X115572068Y-98433158D01*
X115684010Y-98703411D01*
X115846525Y-98946632D01*
X116053368Y-99153475D01*
X116296589Y-99315990D01*
X116566842Y-99427932D01*
X116853740Y-99485000D01*
X117146260Y-99485000D01*
X117433158Y-99427932D01*
X117703411Y-99315990D01*
X117946632Y-99153475D01*
X118153475Y-98946632D01*
X118315990Y-98703411D01*
X118427932Y-98433158D01*
X118485000Y-98146260D01*
X118485000Y-97853740D01*
X118474736Y-97802140D01*
X118523088Y-97822168D01*
X118838967Y-97885000D01*
X119161033Y-97885000D01*
X119476912Y-97822168D01*
X119774463Y-97698918D01*
X120042252Y-97519987D01*
X120269987Y-97292252D01*
X120398445Y-97100000D01*
X124461928Y-97100000D01*
X124461928Y-98900000D01*
X124474188Y-99024482D01*
X124510498Y-99144180D01*
X124569463Y-99254494D01*
X124648815Y-99351185D01*
X124745506Y-99430537D01*
X124855820Y-99489502D01*
X124975518Y-99525812D01*
X125100000Y-99538072D01*
X126900000Y-99538072D01*
X127024482Y-99525812D01*
X127144180Y-99489502D01*
X127254494Y-99430537D01*
X127351185Y-99351185D01*
X127430537Y-99254494D01*
X127489502Y-99144180D01*
X127492813Y-99133265D01*
X127539578Y-99180030D01*
X127655526Y-99064082D01*
X127739208Y-99318261D01*
X128011775Y-99449158D01*
X128304642Y-99524365D01*
X128606553Y-99540991D01*
X128905907Y-99498397D01*
X129191199Y-99398222D01*
X129340792Y-99318261D01*
X129424475Y-99064080D01*
X128540000Y-98179605D01*
X128525858Y-98193748D01*
X128346253Y-98014143D01*
X128360395Y-98000000D01*
X128719605Y-98000000D01*
X129604080Y-98884475D01*
X129858261Y-98800792D01*
X129989158Y-98528225D01*
X130064365Y-98235358D01*
X130080991Y-97933447D01*
X130038397Y-97634093D01*
X129938222Y-97348801D01*
X129858261Y-97199208D01*
X129604080Y-97115525D01*
X128719605Y-98000000D01*
X128360395Y-98000000D01*
X128346253Y-97985858D01*
X128525858Y-97806253D01*
X128540000Y-97820395D01*
X129424475Y-96935920D01*
X129340792Y-96681739D01*
X129068225Y-96550842D01*
X128775358Y-96475635D01*
X128473447Y-96459009D01*
X128174093Y-96501603D01*
X127888801Y-96601778D01*
X127739208Y-96681739D01*
X127655526Y-96935918D01*
X127539578Y-96819970D01*
X127492813Y-96866735D01*
X127489502Y-96855820D01*
X127430537Y-96745506D01*
X127351185Y-96648815D01*
X127254494Y-96569463D01*
X127144180Y-96510498D01*
X127024482Y-96474188D01*
X126900000Y-96461928D01*
X126885000Y-96461928D01*
X126885000Y-96366578D01*
X130366579Y-92885000D01*
X132865479Y-92885000D01*
X132885363Y-92914759D01*
X133085241Y-93114637D01*
X133320273Y-93271680D01*
X133581426Y-93379853D01*
X133858665Y-93435000D01*
X134141335Y-93435000D01*
X134418574Y-93379853D01*
X134679727Y-93271680D01*
X134914759Y-93114637D01*
X135114637Y-92914759D01*
X135271680Y-92679727D01*
X135379853Y-92418574D01*
X135435000Y-92141335D01*
X135435000Y-91858665D01*
X145265000Y-91858665D01*
X145265000Y-92141335D01*
X145320147Y-92418574D01*
X145428320Y-92679727D01*
X145585363Y-92914759D01*
X145785241Y-93114637D01*
X146020273Y-93271680D01*
X146281426Y-93379853D01*
X146558665Y-93435000D01*
X146841335Y-93435000D01*
X147118574Y-93379853D01*
X147379727Y-93271680D01*
X147614759Y-93114637D01*
X147814637Y-92914759D01*
X147971680Y-92679727D01*
X148079853Y-92418574D01*
X148135000Y-92141335D01*
X148135000Y-91858665D01*
X148865000Y-91858665D01*
X148865000Y-92141335D01*
X148920147Y-92418574D01*
X149028320Y-92679727D01*
X149185363Y-92914759D01*
X149385241Y-93114637D01*
X149620273Y-93271680D01*
X149881426Y-93379853D01*
X150158665Y-93435000D01*
X150441335Y-93435000D01*
X150718574Y-93379853D01*
X150979727Y-93271680D01*
X151214759Y-93114637D01*
X151414637Y-92914759D01*
X151571680Y-92679727D01*
X151679853Y-92418574D01*
X151735000Y-92141335D01*
X151735000Y-91858665D01*
X161565000Y-91858665D01*
X161565000Y-92141335D01*
X161620147Y-92418574D01*
X161728320Y-92679727D01*
X161885363Y-92914759D01*
X162085241Y-93114637D01*
X162320273Y-93271680D01*
X162581426Y-93379853D01*
X162858665Y-93435000D01*
X163141335Y-93435000D01*
X163418574Y-93379853D01*
X163679727Y-93271680D01*
X163914759Y-93114637D01*
X164114637Y-92914759D01*
X164134521Y-92885000D01*
X165633422Y-92885000D01*
X170461928Y-97713507D01*
X170461928Y-98900000D01*
X170474188Y-99024482D01*
X170510498Y-99144180D01*
X170569463Y-99254494D01*
X170648815Y-99351185D01*
X170745506Y-99430537D01*
X170855820Y-99489502D01*
X170975518Y-99525812D01*
X171100000Y-99538072D01*
X172900000Y-99538072D01*
X173024482Y-99525812D01*
X173144180Y-99489502D01*
X173254494Y-99430537D01*
X173351185Y-99351185D01*
X173430537Y-99254494D01*
X173489502Y-99144180D01*
X173492813Y-99133265D01*
X173539578Y-99180030D01*
X173655526Y-99064082D01*
X173739208Y-99318261D01*
X174011775Y-99449158D01*
X174304642Y-99524365D01*
X174606553Y-99540991D01*
X174905907Y-99498397D01*
X175191199Y-99398222D01*
X175340792Y-99318261D01*
X175424475Y-99064080D01*
X174540000Y-98179605D01*
X174525858Y-98193748D01*
X174346253Y-98014143D01*
X174360395Y-98000000D01*
X174719605Y-98000000D01*
X175604080Y-98884475D01*
X175858261Y-98800792D01*
X175989158Y-98528225D01*
X176064365Y-98235358D01*
X176080991Y-97933447D01*
X176038397Y-97634093D01*
X175938222Y-97348801D01*
X175858261Y-97199208D01*
X175604080Y-97115525D01*
X174719605Y-98000000D01*
X174360395Y-98000000D01*
X174346253Y-97985858D01*
X174525858Y-97806253D01*
X174540000Y-97820395D01*
X175424475Y-96935920D01*
X175340792Y-96681739D01*
X175068225Y-96550842D01*
X174775358Y-96475635D01*
X174473447Y-96459009D01*
X174174093Y-96501603D01*
X173888801Y-96601778D01*
X173739208Y-96681739D01*
X173655526Y-96935918D01*
X173539578Y-96819970D01*
X173492813Y-96866735D01*
X173489502Y-96855820D01*
X173430537Y-96745506D01*
X173351185Y-96648815D01*
X173254494Y-96569463D01*
X173144180Y-96510498D01*
X173024482Y-96474188D01*
X172900000Y-96461928D01*
X171713507Y-96461928D01*
X166656534Y-91404956D01*
X166628817Y-91371183D01*
X166494059Y-91260589D01*
X166340313Y-91178411D01*
X166173490Y-91127805D01*
X166043477Y-91115000D01*
X166043469Y-91115000D01*
X166000000Y-91110719D01*
X165956531Y-91115000D01*
X164134521Y-91115000D01*
X164114637Y-91085241D01*
X163914759Y-90885363D01*
X163679727Y-90728320D01*
X163418574Y-90620147D01*
X163141335Y-90565000D01*
X162858665Y-90565000D01*
X162581426Y-90620147D01*
X162320273Y-90728320D01*
X162085241Y-90885363D01*
X161885363Y-91085241D01*
X161728320Y-91320273D01*
X161620147Y-91581426D01*
X161565000Y-91858665D01*
X151735000Y-91858665D01*
X151679853Y-91581426D01*
X151571680Y-91320273D01*
X151414637Y-91085241D01*
X151214759Y-90885363D01*
X150979727Y-90728320D01*
X150718574Y-90620147D01*
X150441335Y-90565000D01*
X150158665Y-90565000D01*
X149881426Y-90620147D01*
X149620273Y-90728320D01*
X149385241Y-90885363D01*
X149185363Y-91085241D01*
X149028320Y-91320273D01*
X148920147Y-91581426D01*
X148865000Y-91858665D01*
X148135000Y-91858665D01*
X148079853Y-91581426D01*
X147971680Y-91320273D01*
X147814637Y-91085241D01*
X147614759Y-90885363D01*
X147379727Y-90728320D01*
X147118574Y-90620147D01*
X146841335Y-90565000D01*
X146558665Y-90565000D01*
X146281426Y-90620147D01*
X146020273Y-90728320D01*
X145785241Y-90885363D01*
X145585363Y-91085241D01*
X145428320Y-91320273D01*
X145320147Y-91581426D01*
X145265000Y-91858665D01*
X135435000Y-91858665D01*
X135379853Y-91581426D01*
X135271680Y-91320273D01*
X135114637Y-91085241D01*
X134914759Y-90885363D01*
X134679727Y-90728320D01*
X134418574Y-90620147D01*
X134141335Y-90565000D01*
X133858665Y-90565000D01*
X133581426Y-90620147D01*
X133320273Y-90728320D01*
X133085241Y-90885363D01*
X132885363Y-91085241D01*
X132865479Y-91115000D01*
X130043465Y-91115000D01*
X129999999Y-91110719D01*
X129956533Y-91115000D01*
X129956523Y-91115000D01*
X129826510Y-91127805D01*
X129659687Y-91178411D01*
X129505941Y-91260589D01*
X129505939Y-91260590D01*
X129505940Y-91260590D01*
X129404953Y-91343468D01*
X129404951Y-91343470D01*
X129371183Y-91371183D01*
X129343470Y-91404951D01*
X125404956Y-95343466D01*
X125371183Y-95371183D01*
X125260589Y-95505942D01*
X125178411Y-95659688D01*
X125127805Y-95826511D01*
X125115000Y-95956524D01*
X125115000Y-95956531D01*
X125110719Y-96000000D01*
X125115000Y-96043469D01*
X125115000Y-96461928D01*
X125100000Y-96461928D01*
X124975518Y-96474188D01*
X124855820Y-96510498D01*
X124745506Y-96569463D01*
X124648815Y-96648815D01*
X124569463Y-96745506D01*
X124510498Y-96855820D01*
X124474188Y-96975518D01*
X124461928Y-97100000D01*
X120398445Y-97100000D01*
X120448918Y-97024463D01*
X120572168Y-96726912D01*
X120635000Y-96411033D01*
X120635000Y-96088967D01*
X120572168Y-95773088D01*
X120448918Y-95475537D01*
X120269987Y-95207748D01*
X120042252Y-94980013D01*
X119774463Y-94801082D01*
X119476912Y-94677832D01*
X119161033Y-94615000D01*
X118838967Y-94615000D01*
X118523088Y-94677832D01*
X118225537Y-94801082D01*
X117957748Y-94980013D01*
X117885000Y-95052761D01*
X117885000Y-91914216D01*
X117885363Y-91914759D01*
X118085241Y-92114637D01*
X118320273Y-92271680D01*
X118581426Y-92379853D01*
X118858665Y-92435000D01*
X119141335Y-92435000D01*
X119418574Y-92379853D01*
X119679727Y-92271680D01*
X119914759Y-92114637D01*
X120114637Y-91914759D01*
X120271680Y-91679727D01*
X120379853Y-91418574D01*
X120435000Y-91141335D01*
X120435000Y-90858665D01*
X120379853Y-90581426D01*
X120271680Y-90320273D01*
X120114637Y-90085241D01*
X119914759Y-89885363D01*
X119679727Y-89728320D01*
X119418574Y-89620147D01*
X119141335Y-89565000D01*
X118858665Y-89565000D01*
X118581426Y-89620147D01*
X118320273Y-89728320D01*
X118085241Y-89885363D01*
X117885363Y-90085241D01*
X117885000Y-90085784D01*
X117885000Y-82543469D01*
X117889281Y-82500000D01*
X117885000Y-82456531D01*
X117885000Y-82456523D01*
X117872195Y-82326510D01*
X117821589Y-82159687D01*
X117739411Y-82005941D01*
X117628817Y-81871183D01*
X117595045Y-81843467D01*
X117388850Y-81637272D01*
X117350741Y-81545269D01*
X117245681Y-81388036D01*
X117111964Y-81254319D01*
X116954731Y-81149259D01*
X116780022Y-81076892D01*
X116594552Y-81040000D01*
X116405448Y-81040000D01*
X116219978Y-81076892D01*
X116045269Y-81149259D01*
X115888036Y-81254319D01*
X115855001Y-81287354D01*
X115855001Y-75896577D01*
X117572506Y-74179072D01*
X117620147Y-74418574D01*
X117728320Y-74679727D01*
X117885363Y-74914759D01*
X118085241Y-75114637D01*
X118320273Y-75271680D01*
X118581426Y-75379853D01*
X118858665Y-75435000D01*
X119141335Y-75435000D01*
X119418574Y-75379853D01*
X119679727Y-75271680D01*
X119914759Y-75114637D01*
X120114637Y-74914759D01*
X120134521Y-74885000D01*
X124633422Y-74885000D01*
X129863421Y-80115000D01*
X127666579Y-80115000D01*
X127428017Y-79876439D01*
X127435000Y-79841335D01*
X127435000Y-79558665D01*
X127379853Y-79281426D01*
X127271680Y-79020273D01*
X127114637Y-78785241D01*
X126914759Y-78585363D01*
X126679727Y-78428320D01*
X126418574Y-78320147D01*
X126141335Y-78265000D01*
X125858665Y-78265000D01*
X125581426Y-78320147D01*
X125320273Y-78428320D01*
X125085241Y-78585363D01*
X124885363Y-78785241D01*
X124728320Y-79020273D01*
X124620147Y-79281426D01*
X124565000Y-79558665D01*
X124565000Y-79841335D01*
X124620147Y-80118574D01*
X124728320Y-80379727D01*
X124885363Y-80614759D01*
X125085241Y-80814637D01*
X125320273Y-80971680D01*
X125581426Y-81079853D01*
X125858665Y-81135000D01*
X126141335Y-81135000D01*
X126176439Y-81128017D01*
X126643470Y-81595049D01*
X126671183Y-81628817D01*
X126704951Y-81656530D01*
X126704953Y-81656532D01*
X126805941Y-81739411D01*
X126959686Y-81821589D01*
X127123174Y-81871183D01*
X127126510Y-81872195D01*
X127256523Y-81885000D01*
X127256531Y-81885000D01*
X127300000Y-81889281D01*
X127343469Y-81885000D01*
X131956531Y-81885000D01*
X132000000Y-81889281D01*
X132043469Y-81885000D01*
X143956531Y-81885000D01*
X144000000Y-81889281D01*
X144043469Y-81885000D01*
X144633422Y-81885000D01*
X148571983Y-85823561D01*
X148565000Y-85858665D01*
X148565000Y-86141335D01*
X148620147Y-86418574D01*
X148728320Y-86679727D01*
X148885363Y-86914759D01*
X149085241Y-87114637D01*
X149320273Y-87271680D01*
X149581426Y-87379853D01*
X149858665Y-87435000D01*
X150141335Y-87435000D01*
X150418574Y-87379853D01*
X150679727Y-87271680D01*
X150914759Y-87114637D01*
X151114637Y-86914759D01*
X151271680Y-86679727D01*
X151379853Y-86418574D01*
X151435000Y-86141335D01*
X151435000Y-85858665D01*
X161265000Y-85858665D01*
X161265000Y-86141335D01*
X161320147Y-86418574D01*
X161428320Y-86679727D01*
X161585363Y-86914759D01*
X161785241Y-87114637D01*
X162020273Y-87271680D01*
X162281426Y-87379853D01*
X162558665Y-87435000D01*
X162841335Y-87435000D01*
X163118574Y-87379853D01*
X163379727Y-87271680D01*
X163614759Y-87114637D01*
X163814637Y-86914759D01*
X163971680Y-86679727D01*
X164079853Y-86418574D01*
X164135000Y-86141335D01*
X164135000Y-85858665D01*
X164079853Y-85581426D01*
X163971680Y-85320273D01*
X163814637Y-85085241D01*
X163614759Y-84885363D01*
X163379727Y-84728320D01*
X163118574Y-84620147D01*
X162841335Y-84565000D01*
X162558665Y-84565000D01*
X162281426Y-84620147D01*
X162020273Y-84728320D01*
X161785241Y-84885363D01*
X161585363Y-85085241D01*
X161428320Y-85320273D01*
X161320147Y-85581426D01*
X161265000Y-85858665D01*
X151435000Y-85858665D01*
X151379853Y-85581426D01*
X151271680Y-85320273D01*
X151114637Y-85085241D01*
X150914759Y-84885363D01*
X150679727Y-84728320D01*
X150418574Y-84620147D01*
X150141335Y-84565000D01*
X149858665Y-84565000D01*
X149823561Y-84571983D01*
X145810243Y-80558665D01*
X173565000Y-80558665D01*
X173565000Y-80841335D01*
X173620147Y-81118574D01*
X173728320Y-81379727D01*
X173885363Y-81614759D01*
X174085241Y-81814637D01*
X174320273Y-81971680D01*
X174581426Y-82079853D01*
X174858665Y-82135000D01*
X175141335Y-82135000D01*
X175418574Y-82079853D01*
X175679727Y-81971680D01*
X175914759Y-81814637D01*
X176114637Y-81614759D01*
X176271680Y-81379727D01*
X176379853Y-81118574D01*
X176435000Y-80841335D01*
X176435000Y-80558665D01*
X176379853Y-80281426D01*
X176271680Y-80020273D01*
X176114637Y-79785241D01*
X175914759Y-79585363D01*
X175679727Y-79428320D01*
X175418574Y-79320147D01*
X175141335Y-79265000D01*
X174858665Y-79265000D01*
X174581426Y-79320147D01*
X174320273Y-79428320D01*
X174085241Y-79585363D01*
X173885363Y-79785241D01*
X173728320Y-80020273D01*
X173620147Y-80281426D01*
X173565000Y-80558665D01*
X145810243Y-80558665D01*
X145751578Y-80500000D01*
X150659060Y-75592519D01*
X150728320Y-75759727D01*
X150885363Y-75994759D01*
X151085241Y-76194637D01*
X151317759Y-76350000D01*
X151085241Y-76505363D01*
X150885363Y-76705241D01*
X150728320Y-76940273D01*
X150620147Y-77201426D01*
X150565000Y-77478665D01*
X150565000Y-77761335D01*
X150620147Y-78038574D01*
X150728320Y-78299727D01*
X150885363Y-78534759D01*
X151085241Y-78734637D01*
X151320273Y-78891680D01*
X151581426Y-78999853D01*
X151858665Y-79055000D01*
X152141335Y-79055000D01*
X152418574Y-78999853D01*
X152679727Y-78891680D01*
X152914759Y-78734637D01*
X153114637Y-78534759D01*
X153271680Y-78299727D01*
X153379853Y-78038574D01*
X153435000Y-77761335D01*
X153435000Y-77478665D01*
X153379853Y-77201426D01*
X153271680Y-76940273D01*
X153114637Y-76705241D01*
X152914759Y-76505363D01*
X152682241Y-76350000D01*
X152914759Y-76194637D01*
X153114637Y-75994759D01*
X153271680Y-75759727D01*
X153379853Y-75498574D01*
X153435000Y-75221335D01*
X153435000Y-74938665D01*
X158185000Y-74938665D01*
X158185000Y-75221335D01*
X158240147Y-75498574D01*
X158348320Y-75759727D01*
X158505363Y-75994759D01*
X158705241Y-76194637D01*
X158937759Y-76350000D01*
X158705241Y-76505363D01*
X158505363Y-76705241D01*
X158348320Y-76940273D01*
X158240147Y-77201426D01*
X158185000Y-77478665D01*
X158185000Y-77761335D01*
X158240147Y-78038574D01*
X158348320Y-78299727D01*
X158505363Y-78534759D01*
X158705241Y-78734637D01*
X158940273Y-78891680D01*
X159201426Y-78999853D01*
X159478665Y-79055000D01*
X159761335Y-79055000D01*
X160038574Y-78999853D01*
X160299727Y-78891680D01*
X160403676Y-78822223D01*
X179195000Y-78822223D01*
X179195000Y-79177777D01*
X179264365Y-79526499D01*
X179400429Y-79854988D01*
X179597965Y-80150621D01*
X179849379Y-80402035D01*
X180145012Y-80599571D01*
X180473501Y-80735635D01*
X180822223Y-80805000D01*
X181177777Y-80805000D01*
X181526499Y-80735635D01*
X181854988Y-80599571D01*
X182150621Y-80402035D01*
X182402035Y-80150621D01*
X182599571Y-79854988D01*
X182735635Y-79526499D01*
X182805000Y-79177777D01*
X182805000Y-78822223D01*
X182735635Y-78473501D01*
X182599571Y-78145012D01*
X182402035Y-77849379D01*
X182150621Y-77597965D01*
X181854988Y-77400429D01*
X181526499Y-77264365D01*
X181177777Y-77195000D01*
X180822223Y-77195000D01*
X180473501Y-77264365D01*
X180145012Y-77400429D01*
X179849379Y-77597965D01*
X179597965Y-77849379D01*
X179400429Y-78145012D01*
X179264365Y-78473501D01*
X179195000Y-78822223D01*
X160403676Y-78822223D01*
X160534759Y-78734637D01*
X160734637Y-78534759D01*
X160891680Y-78299727D01*
X160999853Y-78038574D01*
X161055000Y-77761335D01*
X161055000Y-77478665D01*
X160999853Y-77201426D01*
X160891680Y-76940273D01*
X160734637Y-76705241D01*
X160534759Y-76505363D01*
X160302241Y-76350000D01*
X160534759Y-76194637D01*
X160734637Y-75994759D01*
X160891680Y-75759727D01*
X160999853Y-75498574D01*
X161001021Y-75492702D01*
X164186903Y-75492702D01*
X164258486Y-75736671D01*
X164513996Y-75857571D01*
X164788184Y-75926300D01*
X165070512Y-75940217D01*
X165350130Y-75898787D01*
X165616292Y-75803603D01*
X165741514Y-75736671D01*
X165813097Y-75492702D01*
X165000000Y-74679605D01*
X164186903Y-75492702D01*
X161001021Y-75492702D01*
X161055000Y-75221335D01*
X161055000Y-74938665D01*
X160999853Y-74661426D01*
X160962196Y-74570512D01*
X163559783Y-74570512D01*
X163601213Y-74850130D01*
X163696397Y-75116292D01*
X163763329Y-75241514D01*
X164007298Y-75313097D01*
X164820395Y-74500000D01*
X165179605Y-74500000D01*
X165992702Y-75313097D01*
X166236671Y-75241514D01*
X166357571Y-74986004D01*
X166426300Y-74711816D01*
X166440217Y-74429488D01*
X166398787Y-74149870D01*
X166303603Y-73883708D01*
X166270739Y-73822223D01*
X184195000Y-73822223D01*
X184195000Y-74177777D01*
X184264365Y-74526499D01*
X184400429Y-74854988D01*
X184597965Y-75150621D01*
X184849379Y-75402035D01*
X185145012Y-75599571D01*
X185473501Y-75735635D01*
X185822223Y-75805000D01*
X186177777Y-75805000D01*
X186526499Y-75735635D01*
X186854988Y-75599571D01*
X187150621Y-75402035D01*
X187402035Y-75150621D01*
X187599571Y-74854988D01*
X187735635Y-74526499D01*
X187805000Y-74177777D01*
X187805000Y-73822223D01*
X187735635Y-73473501D01*
X187599571Y-73145012D01*
X187402035Y-72849379D01*
X187150621Y-72597965D01*
X186854988Y-72400429D01*
X186526499Y-72264365D01*
X186177777Y-72195000D01*
X185822223Y-72195000D01*
X185473501Y-72264365D01*
X185145012Y-72400429D01*
X184849379Y-72597965D01*
X184597965Y-72849379D01*
X184400429Y-73145012D01*
X184264365Y-73473501D01*
X184195000Y-73822223D01*
X166270739Y-73822223D01*
X166236671Y-73758486D01*
X165992702Y-73686903D01*
X165179605Y-74500000D01*
X164820395Y-74500000D01*
X164007298Y-73686903D01*
X163763329Y-73758486D01*
X163642429Y-74013996D01*
X163573700Y-74288184D01*
X163559783Y-74570512D01*
X160962196Y-74570512D01*
X160891680Y-74400273D01*
X160734637Y-74165241D01*
X160534759Y-73965363D01*
X160299727Y-73808320D01*
X160289135Y-73803933D01*
X160475131Y-73692385D01*
X160683519Y-73503414D01*
X160851037Y-73277420D01*
X160971246Y-73023087D01*
X161011904Y-72889039D01*
X160889915Y-72667000D01*
X159747000Y-72667000D01*
X159747000Y-72687000D01*
X159493000Y-72687000D01*
X159493000Y-72667000D01*
X158350085Y-72667000D01*
X158228096Y-72889039D01*
X158268754Y-73023087D01*
X158388963Y-73277420D01*
X158556481Y-73503414D01*
X158764869Y-73692385D01*
X158950865Y-73803933D01*
X158940273Y-73808320D01*
X158705241Y-73965363D01*
X158505363Y-74165241D01*
X158348320Y-74400273D01*
X158240147Y-74661426D01*
X158185000Y-74938665D01*
X153435000Y-74938665D01*
X153379853Y-74661426D01*
X153271680Y-74400273D01*
X153114637Y-74165241D01*
X152914759Y-73965363D01*
X152682241Y-73810000D01*
X152914759Y-73654637D01*
X153114637Y-73454759D01*
X153271680Y-73219727D01*
X153379853Y-72958574D01*
X153435000Y-72681335D01*
X153435000Y-72398665D01*
X153379853Y-72121426D01*
X153271680Y-71860273D01*
X153114637Y-71625241D01*
X152916039Y-71426643D01*
X152924482Y-71425812D01*
X153044180Y-71389502D01*
X153154494Y-71330537D01*
X153251185Y-71251185D01*
X153330537Y-71154494D01*
X153389502Y-71044180D01*
X153425812Y-70924482D01*
X153429701Y-70885000D01*
X158485479Y-70885000D01*
X158505363Y-70914759D01*
X158705241Y-71114637D01*
X158940273Y-71271680D01*
X158950865Y-71276067D01*
X158764869Y-71387615D01*
X158556481Y-71576586D01*
X158388963Y-71802580D01*
X158268754Y-72056913D01*
X158228096Y-72190961D01*
X158350085Y-72413000D01*
X159493000Y-72413000D01*
X159493000Y-72393000D01*
X159747000Y-72393000D01*
X159747000Y-72413000D01*
X160889915Y-72413000D01*
X161011904Y-72190961D01*
X160971246Y-72056913D01*
X160877546Y-71858665D01*
X163565000Y-71858665D01*
X163565000Y-72141335D01*
X163620147Y-72418574D01*
X163728320Y-72679727D01*
X163885363Y-72914759D01*
X164085241Y-73114637D01*
X164285869Y-73248692D01*
X164258486Y-73263329D01*
X164186903Y-73507298D01*
X165000000Y-74320395D01*
X165813097Y-73507298D01*
X165741514Y-73263329D01*
X165712659Y-73249676D01*
X165914759Y-73114637D01*
X166114637Y-72914759D01*
X166271680Y-72679727D01*
X166379853Y-72418574D01*
X166435000Y-72141335D01*
X166435000Y-71858665D01*
X166379853Y-71581426D01*
X166271680Y-71320273D01*
X166114637Y-71085241D01*
X165914759Y-70885363D01*
X165679727Y-70728320D01*
X165418574Y-70620147D01*
X165141335Y-70565000D01*
X164858665Y-70565000D01*
X164581426Y-70620147D01*
X164320273Y-70728320D01*
X164085241Y-70885363D01*
X163885363Y-71085241D01*
X163728320Y-71320273D01*
X163620147Y-71581426D01*
X163565000Y-71858665D01*
X160877546Y-71858665D01*
X160851037Y-71802580D01*
X160683519Y-71576586D01*
X160475131Y-71387615D01*
X160289135Y-71276067D01*
X160299727Y-71271680D01*
X160534759Y-71114637D01*
X160734637Y-70914759D01*
X160891680Y-70679727D01*
X160999853Y-70418574D01*
X161055000Y-70141335D01*
X161055000Y-69858665D01*
X160999853Y-69581426D01*
X160891680Y-69320273D01*
X160734637Y-69085241D01*
X160534759Y-68885363D01*
X160299727Y-68728320D01*
X160038574Y-68620147D01*
X159761335Y-68565000D01*
X159478665Y-68565000D01*
X159201426Y-68620147D01*
X158940273Y-68728320D01*
X158705241Y-68885363D01*
X158505363Y-69085241D01*
X158485479Y-69115000D01*
X153429701Y-69115000D01*
X153425812Y-69075518D01*
X153389502Y-68955820D01*
X153330537Y-68845506D01*
X153251185Y-68748815D01*
X153154494Y-68669463D01*
X153044180Y-68610498D01*
X152924482Y-68574188D01*
X152800000Y-68561928D01*
X151200000Y-68561928D01*
X151075518Y-68574188D01*
X150955820Y-68610498D01*
X150845506Y-68669463D01*
X150748815Y-68748815D01*
X150669463Y-68845506D01*
X150610498Y-68955820D01*
X150574188Y-69075518D01*
X150561928Y-69200000D01*
X150561928Y-70800000D01*
X150574188Y-70924482D01*
X150610498Y-71044180D01*
X150669463Y-71154494D01*
X150748815Y-71251185D01*
X150845506Y-71330537D01*
X150955820Y-71389502D01*
X151075518Y-71425812D01*
X151083961Y-71426643D01*
X150885363Y-71625241D01*
X150728320Y-71860273D01*
X150620147Y-72121426D01*
X150565000Y-72398665D01*
X150565000Y-72681335D01*
X150620147Y-72958574D01*
X150669851Y-73078570D01*
X148389401Y-75359020D01*
X148426300Y-75211816D01*
X148440217Y-74929488D01*
X148398787Y-74649870D01*
X148303603Y-74383708D01*
X148236671Y-74258486D01*
X147992702Y-74186903D01*
X147179605Y-75000000D01*
X147193748Y-75014143D01*
X147014143Y-75193748D01*
X147000000Y-75179605D01*
X146186903Y-75992702D01*
X146258486Y-76236671D01*
X146513996Y-76357571D01*
X146788184Y-76426300D01*
X147070512Y-76440217D01*
X147349548Y-76398873D01*
X143633422Y-80115000D01*
X132366579Y-80115000D01*
X130220618Y-77969039D01*
X133608096Y-77969039D01*
X133648754Y-78103087D01*
X133768963Y-78357420D01*
X133936481Y-78583414D01*
X134144869Y-78772385D01*
X134386119Y-78917070D01*
X134650960Y-79011909D01*
X134873000Y-78890624D01*
X134873000Y-77747000D01*
X135127000Y-77747000D01*
X135127000Y-78890624D01*
X135349040Y-79011909D01*
X135613881Y-78917070D01*
X135855131Y-78772385D01*
X136063519Y-78583414D01*
X136231037Y-78357420D01*
X136351246Y-78103087D01*
X136391904Y-77969039D01*
X141228096Y-77969039D01*
X141268754Y-78103087D01*
X141388963Y-78357420D01*
X141556481Y-78583414D01*
X141764869Y-78772385D01*
X142006119Y-78917070D01*
X142270960Y-79011909D01*
X142493000Y-78890624D01*
X142493000Y-77747000D01*
X142747000Y-77747000D01*
X142747000Y-78890624D01*
X142969040Y-79011909D01*
X143233881Y-78917070D01*
X143475131Y-78772385D01*
X143683519Y-78583414D01*
X143851037Y-78357420D01*
X143971246Y-78103087D01*
X144011904Y-77969039D01*
X143889915Y-77747000D01*
X142747000Y-77747000D01*
X142493000Y-77747000D01*
X141350085Y-77747000D01*
X141228096Y-77969039D01*
X136391904Y-77969039D01*
X136269915Y-77747000D01*
X135127000Y-77747000D01*
X134873000Y-77747000D01*
X133730085Y-77747000D01*
X133608096Y-77969039D01*
X130220618Y-77969039D01*
X125656534Y-73404956D01*
X125628817Y-73371183D01*
X125494059Y-73260589D01*
X125340313Y-73178411D01*
X125173490Y-73127805D01*
X125043477Y-73115000D01*
X125043469Y-73115000D01*
X125000000Y-73110719D01*
X124956531Y-73115000D01*
X120134521Y-73115000D01*
X120114637Y-73085241D01*
X119914759Y-72885363D01*
X119712173Y-72750000D01*
X119914759Y-72614637D01*
X120114637Y-72414759D01*
X120271680Y-72179727D01*
X120379853Y-71918574D01*
X120435000Y-71641335D01*
X120435000Y-71358665D01*
X120428017Y-71323561D01*
X122551578Y-69200000D01*
X133561928Y-69200000D01*
X133561928Y-70800000D01*
X133574188Y-70924482D01*
X133610498Y-71044180D01*
X133669463Y-71154494D01*
X133748815Y-71251185D01*
X133845506Y-71330537D01*
X133955820Y-71389502D01*
X134075518Y-71425812D01*
X134083961Y-71426643D01*
X133885363Y-71625241D01*
X133728320Y-71860273D01*
X133620147Y-72121426D01*
X133565000Y-72398665D01*
X133565000Y-72681335D01*
X133620147Y-72958574D01*
X133728320Y-73219727D01*
X133885363Y-73454759D01*
X134085241Y-73654637D01*
X134317759Y-73810000D01*
X134085241Y-73965363D01*
X133885363Y-74165241D01*
X133728320Y-74400273D01*
X133620147Y-74661426D01*
X133565000Y-74938665D01*
X133565000Y-75221335D01*
X133620147Y-75498574D01*
X133728320Y-75759727D01*
X133885363Y-75994759D01*
X134085241Y-76194637D01*
X134320273Y-76351680D01*
X134330865Y-76356067D01*
X134144869Y-76467615D01*
X133936481Y-76656586D01*
X133768963Y-76882580D01*
X133648754Y-77136913D01*
X133608096Y-77270961D01*
X133730085Y-77493000D01*
X134873000Y-77493000D01*
X134873000Y-77473000D01*
X135127000Y-77473000D01*
X135127000Y-77493000D01*
X136269915Y-77493000D01*
X136391904Y-77270961D01*
X136351246Y-77136913D01*
X136231037Y-76882580D01*
X136063519Y-76656586D01*
X135855131Y-76467615D01*
X135669135Y-76356067D01*
X135679727Y-76351680D01*
X135914759Y-76194637D01*
X136114637Y-75994759D01*
X136271680Y-75759727D01*
X136379853Y-75498574D01*
X136435000Y-75221335D01*
X136435000Y-74938665D01*
X136379853Y-74661426D01*
X136271680Y-74400273D01*
X136114637Y-74165241D01*
X135914759Y-73965363D01*
X135682241Y-73810000D01*
X135914759Y-73654637D01*
X136114637Y-73454759D01*
X136271680Y-73219727D01*
X136379853Y-72958574D01*
X136435000Y-72681335D01*
X136435000Y-72398665D01*
X136379853Y-72121426D01*
X136271680Y-71860273D01*
X136114637Y-71625241D01*
X135916039Y-71426643D01*
X135924482Y-71425812D01*
X136044180Y-71389502D01*
X136154494Y-71330537D01*
X136251185Y-71251185D01*
X136330537Y-71154494D01*
X136389502Y-71044180D01*
X136425812Y-70924482D01*
X136438072Y-70800000D01*
X136438072Y-69200000D01*
X136425812Y-69075518D01*
X136389502Y-68955820D01*
X136330537Y-68845506D01*
X136251185Y-68748815D01*
X136154494Y-68669463D01*
X136044180Y-68610498D01*
X135924482Y-68574188D01*
X135800000Y-68561928D01*
X134200000Y-68561928D01*
X134075518Y-68574188D01*
X133955820Y-68610498D01*
X133845506Y-68669463D01*
X133748815Y-68748815D01*
X133669463Y-68845506D01*
X133610498Y-68955820D01*
X133574188Y-69075518D01*
X133561928Y-69200000D01*
X122551578Y-69200000D01*
X123866579Y-67885000D01*
X124865479Y-67885000D01*
X124885363Y-67914759D01*
X125085241Y-68114637D01*
X125320273Y-68271680D01*
X125581426Y-68379853D01*
X125858665Y-68435000D01*
X126141335Y-68435000D01*
X126418574Y-68379853D01*
X126679727Y-68271680D01*
X126914759Y-68114637D01*
X127114637Y-67914759D01*
X127271680Y-67679727D01*
X127379853Y-67418574D01*
X127435000Y-67141335D01*
X127435000Y-66858665D01*
X127379853Y-66581426D01*
X127271680Y-66320273D01*
X127114637Y-66085241D01*
X126914759Y-65885363D01*
X126914216Y-65885000D01*
X137253422Y-65885000D01*
X141191983Y-69823561D01*
X141185000Y-69858665D01*
X141185000Y-70141335D01*
X141240147Y-70418574D01*
X141348320Y-70679727D01*
X141505363Y-70914759D01*
X141705241Y-71114637D01*
X141937759Y-71270000D01*
X141705241Y-71425363D01*
X141505363Y-71625241D01*
X141348320Y-71860273D01*
X141240147Y-72121426D01*
X141185000Y-72398665D01*
X141185000Y-72681335D01*
X141240147Y-72958574D01*
X141348320Y-73219727D01*
X141505363Y-73454759D01*
X141705241Y-73654637D01*
X141937759Y-73810000D01*
X141705241Y-73965363D01*
X141505363Y-74165241D01*
X141348320Y-74400273D01*
X141240147Y-74661426D01*
X141185000Y-74938665D01*
X141185000Y-75221335D01*
X141240147Y-75498574D01*
X141348320Y-75759727D01*
X141505363Y-75994759D01*
X141705241Y-76194637D01*
X141940273Y-76351680D01*
X141950865Y-76356067D01*
X141764869Y-76467615D01*
X141556481Y-76656586D01*
X141388963Y-76882580D01*
X141268754Y-77136913D01*
X141228096Y-77270961D01*
X141350085Y-77493000D01*
X142493000Y-77493000D01*
X142493000Y-77473000D01*
X142747000Y-77473000D01*
X142747000Y-77493000D01*
X143889915Y-77493000D01*
X144011904Y-77270961D01*
X143971246Y-77136913D01*
X143851037Y-76882580D01*
X143683519Y-76656586D01*
X143475131Y-76467615D01*
X143289135Y-76356067D01*
X143299727Y-76351680D01*
X143534759Y-76194637D01*
X143734637Y-75994759D01*
X143891680Y-75759727D01*
X143999853Y-75498574D01*
X144055000Y-75221335D01*
X144055000Y-75070512D01*
X145559783Y-75070512D01*
X145601213Y-75350130D01*
X145696397Y-75616292D01*
X145763329Y-75741514D01*
X146007298Y-75813097D01*
X146820395Y-75000000D01*
X146007298Y-74186903D01*
X145763329Y-74258486D01*
X145642429Y-74513996D01*
X145573700Y-74788184D01*
X145559783Y-75070512D01*
X144055000Y-75070512D01*
X144055000Y-74938665D01*
X144015166Y-74738410D01*
X145683077Y-73070500D01*
X145728320Y-73179727D01*
X145885363Y-73414759D01*
X146085241Y-73614637D01*
X146285869Y-73748692D01*
X146258486Y-73763329D01*
X146186903Y-74007298D01*
X147000000Y-74820395D01*
X147813097Y-74007298D01*
X147741514Y-73763329D01*
X147712659Y-73749676D01*
X147914759Y-73614637D01*
X148114637Y-73414759D01*
X148271680Y-73179727D01*
X148379853Y-72918574D01*
X148435000Y-72641335D01*
X148435000Y-72358665D01*
X148379853Y-72081426D01*
X148271680Y-71820273D01*
X148114637Y-71585241D01*
X147914759Y-71385363D01*
X147679727Y-71228320D01*
X147570500Y-71183077D01*
X153868577Y-64885000D01*
X168956531Y-64885000D01*
X169000000Y-64889281D01*
X169043469Y-64885000D01*
X170633422Y-64885000D01*
X173571983Y-67823561D01*
X173565000Y-67858665D01*
X173565000Y-68141335D01*
X173620147Y-68418574D01*
X173728320Y-68679727D01*
X173885363Y-68914759D01*
X174085241Y-69114637D01*
X174320273Y-69271680D01*
X174581426Y-69379853D01*
X174858665Y-69435000D01*
X175141335Y-69435000D01*
X175418574Y-69379853D01*
X175679727Y-69271680D01*
X175914759Y-69114637D01*
X176114637Y-68914759D01*
X176176467Y-68822223D01*
X179195000Y-68822223D01*
X179195000Y-69177777D01*
X179264365Y-69526499D01*
X179400429Y-69854988D01*
X179597965Y-70150621D01*
X179849379Y-70402035D01*
X180145012Y-70599571D01*
X180473501Y-70735635D01*
X180822223Y-70805000D01*
X181177777Y-70805000D01*
X181526499Y-70735635D01*
X181854988Y-70599571D01*
X182150621Y-70402035D01*
X182402035Y-70150621D01*
X182599571Y-69854988D01*
X182735635Y-69526499D01*
X182805000Y-69177777D01*
X182805000Y-68822223D01*
X182735635Y-68473501D01*
X182599571Y-68145012D01*
X182402035Y-67849379D01*
X182150621Y-67597965D01*
X181854988Y-67400429D01*
X181526499Y-67264365D01*
X181177777Y-67195000D01*
X180822223Y-67195000D01*
X180473501Y-67264365D01*
X180145012Y-67400429D01*
X179849379Y-67597965D01*
X179597965Y-67849379D01*
X179400429Y-68145012D01*
X179264365Y-68473501D01*
X179195000Y-68822223D01*
X176176467Y-68822223D01*
X176271680Y-68679727D01*
X176379853Y-68418574D01*
X176435000Y-68141335D01*
X176435000Y-67858665D01*
X176379853Y-67581426D01*
X176271680Y-67320273D01*
X176114637Y-67085241D01*
X175914759Y-66885363D01*
X175679727Y-66728320D01*
X175418574Y-66620147D01*
X175141335Y-66565000D01*
X174858665Y-66565000D01*
X174823561Y-66571983D01*
X171656532Y-63404954D01*
X171628817Y-63371183D01*
X171494059Y-63260589D01*
X171340313Y-63178411D01*
X171173490Y-63127805D01*
X171128231Y-63123347D01*
X171595050Y-62656529D01*
X171628817Y-62628817D01*
X171739411Y-62494059D01*
X171821589Y-62340313D01*
X171872195Y-62173490D01*
X171885000Y-62043477D01*
X171885000Y-62043467D01*
X171889281Y-62000001D01*
X171885000Y-61956535D01*
X171885000Y-61580078D01*
X172019608Y-61469608D01*
X172198932Y-61251101D01*
X172332182Y-61001808D01*
X172414236Y-60731309D01*
X172435000Y-60520491D01*
X172435000Y-59479508D01*
X172414236Y-59268691D01*
X172332182Y-58998192D01*
X172198932Y-58748899D01*
X172019607Y-58530392D01*
X171801100Y-58351068D01*
X171551807Y-58217818D01*
X171281308Y-58135764D01*
X171000000Y-58108057D01*
X170718691Y-58135764D01*
X170448192Y-58217818D01*
X170198899Y-58351068D01*
X169980392Y-58530393D01*
X169801068Y-58748900D01*
X169730000Y-58881858D01*
X169658932Y-58748899D01*
X169479607Y-58530392D01*
X169261100Y-58351068D01*
X169011807Y-58217818D01*
X168741308Y-58135764D01*
X168460000Y-58108057D01*
X168178691Y-58135764D01*
X167908192Y-58217818D01*
X167658899Y-58351068D01*
X167440392Y-58530393D01*
X167261068Y-58748900D01*
X167127818Y-58998193D01*
X167045764Y-59268692D01*
X167025000Y-59479509D01*
X167025000Y-60520492D01*
X167045764Y-60731309D01*
X167127818Y-61001808D01*
X167261068Y-61251101D01*
X167440393Y-61469608D01*
X167658900Y-61648932D01*
X167908193Y-61782182D01*
X168178692Y-61864236D01*
X168460000Y-61891943D01*
X168741309Y-61864236D01*
X169011808Y-61782182D01*
X169261101Y-61648932D01*
X169479608Y-61469608D01*
X169658932Y-61251101D01*
X169730000Y-61118142D01*
X169801068Y-61251101D01*
X169980393Y-61469608D01*
X170115000Y-61580077D01*
X170115000Y-61633421D01*
X168633422Y-63115000D01*
X153545463Y-63115000D01*
X153501997Y-63110719D01*
X153458531Y-63115000D01*
X153458521Y-63115000D01*
X153328508Y-63127805D01*
X153161685Y-63178411D01*
X153007939Y-63260589D01*
X153007937Y-63260590D01*
X153007938Y-63260590D01*
X152906951Y-63343468D01*
X152906949Y-63343470D01*
X152873181Y-63371183D01*
X152845468Y-63404951D01*
X144021279Y-72229141D01*
X143999853Y-72121426D01*
X143891680Y-71860273D01*
X143734637Y-71625241D01*
X143534759Y-71425363D01*
X143302241Y-71270000D01*
X143534759Y-71114637D01*
X143734637Y-70914759D01*
X143891680Y-70679727D01*
X143999853Y-70418574D01*
X144055000Y-70141335D01*
X144055000Y-69858665D01*
X143999853Y-69581426D01*
X143891680Y-69320273D01*
X143734637Y-69085241D01*
X143534759Y-68885363D01*
X143299727Y-68728320D01*
X143038574Y-68620147D01*
X142761335Y-68565000D01*
X142478665Y-68565000D01*
X142443561Y-68571983D01*
X138556588Y-64685010D01*
X146156521Y-64685010D01*
X146199990Y-64689291D01*
X146243459Y-64685010D01*
X146243467Y-64685010D01*
X146373480Y-64672205D01*
X146540303Y-64621599D01*
X146694049Y-64539421D01*
X146828807Y-64428827D01*
X146856524Y-64395054D01*
X149464462Y-61787117D01*
X149718692Y-61864236D01*
X150000000Y-61891943D01*
X150281309Y-61864236D01*
X150551808Y-61782182D01*
X150801101Y-61648932D01*
X151019608Y-61469608D01*
X151198932Y-61251101D01*
X151332182Y-61001808D01*
X151414236Y-60731309D01*
X151435000Y-60520491D01*
X151435000Y-59479508D01*
X151414236Y-59268691D01*
X151332182Y-58998192D01*
X151198932Y-58748899D01*
X151019607Y-58530392D01*
X150801100Y-58351068D01*
X150551807Y-58217818D01*
X150281308Y-58135764D01*
X150000000Y-58108057D01*
X149718691Y-58135764D01*
X149448192Y-58217818D01*
X149198899Y-58351068D01*
X148980392Y-58530393D01*
X148801068Y-58748900D01*
X148730000Y-58881858D01*
X148658932Y-58748899D01*
X148479607Y-58530392D01*
X148261100Y-58351068D01*
X148011807Y-58217818D01*
X147741308Y-58135764D01*
X147460000Y-58108057D01*
X147178691Y-58135764D01*
X146908192Y-58217818D01*
X146658899Y-58351068D01*
X146440392Y-58530393D01*
X146261068Y-58748900D01*
X146127818Y-58998193D01*
X146045764Y-59268692D01*
X146025000Y-59479509D01*
X146025000Y-60520492D01*
X146045764Y-60731309D01*
X146127818Y-61001808D01*
X146261068Y-61251101D01*
X146440393Y-61469608D01*
X146658900Y-61648932D01*
X146908193Y-61782182D01*
X146952730Y-61795692D01*
X145833412Y-62915010D01*
X128336568Y-62915010D01*
X129433513Y-61818066D01*
X129551808Y-61782182D01*
X129801101Y-61648932D01*
X130019608Y-61469608D01*
X130198932Y-61251101D01*
X130332182Y-61001808D01*
X130414236Y-60731309D01*
X130435000Y-60520491D01*
X130435000Y-59479508D01*
X130414236Y-59268691D01*
X130332182Y-58998192D01*
X130198932Y-58748899D01*
X130019607Y-58530392D01*
X129801100Y-58351068D01*
X129551807Y-58217818D01*
X129281308Y-58135764D01*
X129000000Y-58108057D01*
X128718691Y-58135764D01*
X128448192Y-58217818D01*
X128198899Y-58351068D01*
X127980392Y-58530393D01*
X127801068Y-58748900D01*
X127730000Y-58881858D01*
X127658932Y-58748899D01*
X127479607Y-58530392D01*
X127261100Y-58351068D01*
X127011807Y-58217818D01*
X126741308Y-58135764D01*
X126460000Y-58108057D01*
X126178691Y-58135764D01*
X125908192Y-58217818D01*
X125658899Y-58351068D01*
X125440392Y-58530393D01*
X125261068Y-58748900D01*
X125127818Y-58998193D01*
X125045764Y-59268692D01*
X125025000Y-59479509D01*
X125025000Y-60520492D01*
X125045764Y-60731309D01*
X125127818Y-61001808D01*
X125261068Y-61251101D01*
X125440393Y-61469608D01*
X125658900Y-61648932D01*
X125908193Y-61782182D01*
X126178692Y-61864236D01*
X126460000Y-61891943D01*
X126741309Y-61864236D01*
X126946398Y-61802024D01*
X126633422Y-62115000D01*
X117834521Y-62115000D01*
X117814637Y-62085241D01*
X117614759Y-61885363D01*
X117379727Y-61728320D01*
X117118574Y-61620147D01*
X116841335Y-61565000D01*
X116558665Y-61565000D01*
X116281426Y-61620147D01*
X116020273Y-61728320D01*
X115785241Y-61885363D01*
X115585363Y-62085241D01*
X115428320Y-62320273D01*
X115320147Y-62581426D01*
X115265000Y-62858665D01*
X115265000Y-63141335D01*
X115320147Y-63418574D01*
X115428320Y-63679727D01*
X115585363Y-63914759D01*
X115785241Y-64114637D01*
X116020273Y-64271680D01*
X116281426Y-64379853D01*
X116558665Y-64435000D01*
X116841335Y-64435000D01*
X117118574Y-64379853D01*
X117379727Y-64271680D01*
X117614759Y-64114637D01*
X117814637Y-63914759D01*
X117834521Y-63885000D01*
X123863421Y-63885000D01*
X120940584Y-66807838D01*
X120923108Y-66719978D01*
X120850741Y-66545269D01*
X120745681Y-66388036D01*
X120611964Y-66254319D01*
X120454731Y-66149259D01*
X120280022Y-66076892D01*
X120094552Y-66040000D01*
X119905448Y-66040000D01*
X119719978Y-66076892D01*
X119627977Y-66115000D01*
X109043469Y-66115000D01*
X109000000Y-66110719D01*
X108956531Y-66115000D01*
X108956523Y-66115000D01*
X108826510Y-66127805D01*
X108659686Y-66178411D01*
X108505941Y-66260589D01*
X108404953Y-66343468D01*
X108404951Y-66343470D01*
X108371183Y-66371183D01*
X108343470Y-66404951D01*
X106186494Y-68561928D01*
X105200000Y-68561928D01*
X105075518Y-68574188D01*
X104955820Y-68610498D01*
X104845506Y-68669463D01*
X104748815Y-68748815D01*
X104669463Y-68845506D01*
X104610498Y-68955820D01*
X104574188Y-69075518D01*
X104561928Y-69200000D01*
X93127000Y-69200000D01*
X93127000Y-62858665D01*
X102565000Y-62858665D01*
X102565000Y-63141335D01*
X102620147Y-63418574D01*
X102728320Y-63679727D01*
X102885363Y-63914759D01*
X103085241Y-64114637D01*
X103320273Y-64271680D01*
X103581426Y-64379853D01*
X103858665Y-64435000D01*
X104141335Y-64435000D01*
X104418574Y-64379853D01*
X104679727Y-64271680D01*
X104914759Y-64114637D01*
X105114637Y-63914759D01*
X105271680Y-63679727D01*
X105379853Y-63418574D01*
X105435000Y-63141335D01*
X105435000Y-62858665D01*
X105379853Y-62581426D01*
X105271680Y-62320273D01*
X105114637Y-62085241D01*
X104914759Y-61885363D01*
X104679727Y-61728320D01*
X104418574Y-61620147D01*
X104141335Y-61565000D01*
X103858665Y-61565000D01*
X103581426Y-61620147D01*
X103320273Y-61728320D01*
X103085241Y-61885363D01*
X102885363Y-62085241D01*
X102728320Y-62320273D01*
X102620147Y-62581426D01*
X102565000Y-62858665D01*
X93127000Y-62858665D01*
X93127000Y-57127000D01*
X101000000Y-57127000D01*
X101024776Y-57124560D01*
X101048601Y-57117333D01*
X101070557Y-57105597D01*
X101089803Y-57089803D01*
X101105597Y-57070557D01*
X101117333Y-57048601D01*
X101124560Y-57024776D01*
X101127000Y-57000000D01*
X101127000Y-51216706D01*
X104615000Y-51216706D01*
X104615000Y-52823293D01*
X104630700Y-52982696D01*
X104692741Y-53187219D01*
X104793491Y-53375710D01*
X104929078Y-53540922D01*
X105094290Y-53676509D01*
X105282780Y-53777259D01*
X105487303Y-53839300D01*
X105700000Y-53860249D01*
X105912696Y-53839300D01*
X106117219Y-53777259D01*
X106305710Y-53676509D01*
X106320978Y-53663978D01*
X106422099Y-53765099D01*
X106583428Y-53872896D01*
X106762686Y-53947147D01*
X106952986Y-53985000D01*
X107147014Y-53985000D01*
X107337314Y-53947147D01*
X107475542Y-53889891D01*
X107604384Y-53944589D01*
X107794344Y-53984110D01*
X107988364Y-53985813D01*
X108178989Y-53949632D01*
X108325651Y-53890385D01*
X108462686Y-53947147D01*
X108652986Y-53985000D01*
X108847014Y-53985000D01*
X109037314Y-53947147D01*
X109175000Y-53890116D01*
X109312686Y-53947147D01*
X109502986Y-53985000D01*
X109697014Y-53985000D01*
X109887314Y-53947147D01*
X110025000Y-53890116D01*
X110162686Y-53947147D01*
X110352986Y-53985000D01*
X110547014Y-53985000D01*
X110737314Y-53947147D01*
X110875000Y-53890116D01*
X111012686Y-53947147D01*
X111202986Y-53985000D01*
X111397014Y-53985000D01*
X111587314Y-53947147D01*
X111725542Y-53889891D01*
X111854384Y-53944589D01*
X112044344Y-53984110D01*
X112238364Y-53985813D01*
X112428989Y-53949632D01*
X112575651Y-53890385D01*
X112712686Y-53947147D01*
X112902986Y-53985000D01*
X113097014Y-53985000D01*
X113287314Y-53947147D01*
X113466572Y-53872896D01*
X113627901Y-53765099D01*
X113729022Y-53663978D01*
X113744290Y-53676509D01*
X113932780Y-53777259D01*
X114137303Y-53839300D01*
X114350000Y-53860249D01*
X114562696Y-53839300D01*
X114767219Y-53777259D01*
X114955710Y-53676509D01*
X115120922Y-53540922D01*
X115256509Y-53375710D01*
X115357259Y-53187220D01*
X115398021Y-53052844D01*
X121535000Y-53052844D01*
X121535000Y-56787157D01*
X121569511Y-57137542D01*
X121705888Y-57587116D01*
X121927352Y-58001446D01*
X122225392Y-58364609D01*
X122588555Y-58662649D01*
X123002885Y-58884113D01*
X123452459Y-59020490D01*
X123920000Y-59066539D01*
X124387542Y-59020490D01*
X124837116Y-58884113D01*
X125251446Y-58662649D01*
X125614609Y-58364609D01*
X125912649Y-58001446D01*
X126134113Y-57587116D01*
X126270490Y-57137542D01*
X126305000Y-56787157D01*
X126305000Y-53052844D01*
X131695000Y-53052844D01*
X131695000Y-56787157D01*
X131729511Y-57137542D01*
X131865888Y-57587116D01*
X132087352Y-58001446D01*
X132385392Y-58364609D01*
X132748555Y-58662649D01*
X133162885Y-58884113D01*
X133612459Y-59020490D01*
X134080000Y-59066539D01*
X134547542Y-59020490D01*
X134997116Y-58884113D01*
X135411446Y-58662649D01*
X135774609Y-58364609D01*
X136072649Y-58001446D01*
X136294113Y-57587116D01*
X136430490Y-57137542D01*
X136465000Y-56787157D01*
X136465000Y-53052844D01*
X142535000Y-53052844D01*
X142535000Y-56787157D01*
X142569511Y-57137542D01*
X142705888Y-57587116D01*
X142927352Y-58001446D01*
X143225392Y-58364609D01*
X143588555Y-58662649D01*
X144002885Y-58884113D01*
X144452459Y-59020490D01*
X144920000Y-59066539D01*
X145387542Y-59020490D01*
X145837116Y-58884113D01*
X146251446Y-58662649D01*
X146614609Y-58364609D01*
X146912649Y-58001446D01*
X147134113Y-57587116D01*
X147270490Y-57137542D01*
X147305000Y-56787157D01*
X147305000Y-53052844D01*
X152695000Y-53052844D01*
X152695000Y-56787157D01*
X152729511Y-57137542D01*
X152865888Y-57587116D01*
X153087352Y-58001446D01*
X153385392Y-58364609D01*
X153748555Y-58662649D01*
X154162885Y-58884113D01*
X154612459Y-59020490D01*
X155080000Y-59066539D01*
X155547542Y-59020490D01*
X155997116Y-58884113D01*
X156411446Y-58662649D01*
X156774609Y-58364609D01*
X157072649Y-58001446D01*
X157294113Y-57587116D01*
X157430490Y-57137542D01*
X157465000Y-56787157D01*
X157465000Y-53052844D01*
X163535000Y-53052844D01*
X163535000Y-56787157D01*
X163569511Y-57137542D01*
X163705888Y-57587116D01*
X163927352Y-58001446D01*
X164225392Y-58364609D01*
X164588555Y-58662649D01*
X165002885Y-58884113D01*
X165452459Y-59020490D01*
X165920000Y-59066539D01*
X166387542Y-59020490D01*
X166837116Y-58884113D01*
X167251446Y-58662649D01*
X167614609Y-58364609D01*
X167912649Y-58001446D01*
X168134113Y-57587116D01*
X168270490Y-57137542D01*
X168305000Y-56787157D01*
X168305000Y-53052844D01*
X173695000Y-53052844D01*
X173695000Y-56787157D01*
X173729511Y-57137542D01*
X173865888Y-57587116D01*
X174087352Y-58001446D01*
X174385392Y-58364609D01*
X174748555Y-58662649D01*
X175162885Y-58884113D01*
X175612459Y-59020490D01*
X176080000Y-59066539D01*
X176547542Y-59020490D01*
X176997116Y-58884113D01*
X177411446Y-58662649D01*
X177774609Y-58364609D01*
X178072649Y-58001446D01*
X178294113Y-57587116D01*
X178430490Y-57137542D01*
X178465000Y-56787157D01*
X178465000Y-53052843D01*
X178430490Y-52702458D01*
X178294113Y-52252884D01*
X178072649Y-51838554D01*
X177774609Y-51475391D01*
X177411445Y-51177351D01*
X176997115Y-50955887D01*
X176547541Y-50819510D01*
X176080000Y-50773461D01*
X175612458Y-50819510D01*
X175162884Y-50955887D01*
X174748554Y-51177351D01*
X174385391Y-51475391D01*
X174087351Y-51838555D01*
X173865887Y-52252885D01*
X173729510Y-52702459D01*
X173695000Y-53052844D01*
X168305000Y-53052844D01*
X168305000Y-53052843D01*
X168270490Y-52702458D01*
X168134113Y-52252884D01*
X167912649Y-51838554D01*
X167614609Y-51475391D01*
X167251445Y-51177351D01*
X166837115Y-50955887D01*
X166387541Y-50819510D01*
X165920000Y-50773461D01*
X165452458Y-50819510D01*
X165002884Y-50955887D01*
X164588554Y-51177351D01*
X164225391Y-51475391D01*
X163927351Y-51838555D01*
X163705887Y-52252885D01*
X163569510Y-52702459D01*
X163535000Y-53052844D01*
X157465000Y-53052844D01*
X157465000Y-53052843D01*
X157430490Y-52702458D01*
X157294113Y-52252884D01*
X157072649Y-51838554D01*
X156774609Y-51475391D01*
X156411445Y-51177351D01*
X155997115Y-50955887D01*
X155547541Y-50819510D01*
X155080000Y-50773461D01*
X154612458Y-50819510D01*
X154162884Y-50955887D01*
X153748554Y-51177351D01*
X153385391Y-51475391D01*
X153087351Y-51838555D01*
X152865887Y-52252885D01*
X152729510Y-52702459D01*
X152695000Y-53052844D01*
X147305000Y-53052844D01*
X147305000Y-53052843D01*
X147270490Y-52702458D01*
X147134113Y-52252884D01*
X146912649Y-51838554D01*
X146614609Y-51475391D01*
X146251445Y-51177351D01*
X145837115Y-50955887D01*
X145387541Y-50819510D01*
X144920000Y-50773461D01*
X144452458Y-50819510D01*
X144002884Y-50955887D01*
X143588554Y-51177351D01*
X143225391Y-51475391D01*
X142927351Y-51838555D01*
X142705887Y-52252885D01*
X142569510Y-52702459D01*
X142535000Y-53052844D01*
X136465000Y-53052844D01*
X136465000Y-53052843D01*
X136430490Y-52702458D01*
X136294113Y-52252884D01*
X136072649Y-51838554D01*
X135774609Y-51475391D01*
X135411445Y-51177351D01*
X134997115Y-50955887D01*
X134547541Y-50819510D01*
X134080000Y-50773461D01*
X133612458Y-50819510D01*
X133162884Y-50955887D01*
X132748554Y-51177351D01*
X132385391Y-51475391D01*
X132087351Y-51838555D01*
X131865887Y-52252885D01*
X131729510Y-52702459D01*
X131695000Y-53052844D01*
X126305000Y-53052844D01*
X126305000Y-53052843D01*
X126270490Y-52702458D01*
X126134113Y-52252884D01*
X125912649Y-51838554D01*
X125614609Y-51475391D01*
X125251445Y-51177351D01*
X124837115Y-50955887D01*
X124387541Y-50819510D01*
X123920000Y-50773461D01*
X123452458Y-50819510D01*
X123002884Y-50955887D01*
X122588554Y-51177351D01*
X122225391Y-51475391D01*
X121927351Y-51838555D01*
X121705887Y-52252885D01*
X121569510Y-52702459D01*
X121535000Y-53052844D01*
X115398021Y-53052844D01*
X115419300Y-52982697D01*
X115435000Y-52823294D01*
X115435000Y-51216706D01*
X115419300Y-51057303D01*
X115357259Y-50852780D01*
X115256509Y-50664290D01*
X115120922Y-50499078D01*
X114955710Y-50363491D01*
X114767220Y-50262741D01*
X114562697Y-50200700D01*
X114350000Y-50179751D01*
X114137304Y-50200700D01*
X113932781Y-50262741D01*
X113744291Y-50363491D01*
X113579079Y-50499078D01*
X113443492Y-50664290D01*
X113398306Y-50748827D01*
X113287314Y-50702853D01*
X113097014Y-50665000D01*
X112902986Y-50665000D01*
X112712686Y-50702853D01*
X112574458Y-50760109D01*
X112445616Y-50705411D01*
X112255656Y-50665890D01*
X112061636Y-50664187D01*
X111871011Y-50700368D01*
X111724349Y-50759615D01*
X111587314Y-50702853D01*
X111397014Y-50665000D01*
X111202986Y-50665000D01*
X111012686Y-50702853D01*
X110875000Y-50759884D01*
X110737314Y-50702853D01*
X110547014Y-50665000D01*
X110352986Y-50665000D01*
X110162686Y-50702853D01*
X110025000Y-50759884D01*
X109887314Y-50702853D01*
X109697014Y-50665000D01*
X109502986Y-50665000D01*
X109312686Y-50702853D01*
X109175000Y-50759884D01*
X109037314Y-50702853D01*
X108847014Y-50665000D01*
X108652986Y-50665000D01*
X108462686Y-50702853D01*
X108324458Y-50760109D01*
X108195616Y-50705411D01*
X108005656Y-50665890D01*
X107811636Y-50664187D01*
X107621011Y-50700368D01*
X107474349Y-50759615D01*
X107337314Y-50702853D01*
X107147014Y-50665000D01*
X106952986Y-50665000D01*
X106762686Y-50702853D01*
X106651695Y-50748827D01*
X106606509Y-50664290D01*
X106470922Y-50499078D01*
X106305710Y-50363491D01*
X106117220Y-50262741D01*
X105912697Y-50200700D01*
X105700000Y-50179751D01*
X105487304Y-50200700D01*
X105282781Y-50262741D01*
X105094291Y-50363491D01*
X104929079Y-50499078D01*
X104793492Y-50664290D01*
X104692742Y-50852780D01*
X104630700Y-51057303D01*
X104615000Y-51216706D01*
X101127000Y-51216706D01*
X101127000Y-49000000D01*
X101124560Y-48975224D01*
X101117333Y-48951399D01*
X101105597Y-48929443D01*
X101089803Y-48910197D01*
X101070557Y-48894403D01*
X101048601Y-48882667D01*
X101024776Y-48875440D01*
X101000000Y-48873000D01*
X93127000Y-48873000D01*
X93127000Y-48127000D01*
X104620881Y-48127000D01*
X104615000Y-48186706D01*
G37*
X104615000Y-48186706D02*
X104615000Y-49093293D01*
X104630700Y-49252696D01*
X104692741Y-49457219D01*
X104793491Y-49645710D01*
X104929078Y-49810922D01*
X105094290Y-49946509D01*
X105282780Y-50047259D01*
X105487303Y-50109300D01*
X105700000Y-50130249D01*
X105912696Y-50109300D01*
X106117219Y-50047259D01*
X106305710Y-49946509D01*
X106470922Y-49810922D01*
X106606509Y-49645710D01*
X106707259Y-49457220D01*
X106769300Y-49252697D01*
X106785000Y-49093294D01*
X106785000Y-48186707D01*
X106779119Y-48127000D01*
X113270881Y-48127000D01*
X113265000Y-48186706D01*
X113265000Y-49093293D01*
X113280700Y-49252696D01*
X113342741Y-49457219D01*
X113443491Y-49645710D01*
X113579078Y-49810922D01*
X113744290Y-49946509D01*
X113932780Y-50047259D01*
X114137303Y-50109300D01*
X114350000Y-50130249D01*
X114562696Y-50109300D01*
X114767219Y-50047259D01*
X114955710Y-49946509D01*
X115120922Y-49810922D01*
X115256509Y-49645710D01*
X115357259Y-49457220D01*
X115419300Y-49252697D01*
X115435000Y-49093294D01*
X115435000Y-48186707D01*
X115429119Y-48127000D01*
X188873000Y-48127000D01*
X188873000Y-48873000D01*
X181000000Y-48873000D01*
X180975224Y-48875440D01*
X180951399Y-48882667D01*
X180929443Y-48894403D01*
X180910197Y-48910197D01*
X180894403Y-48929443D01*
X180882667Y-48951399D01*
X180875440Y-48975224D01*
X180873000Y-49000000D01*
X180873000Y-57000000D01*
X180875440Y-57024776D01*
X180882667Y-57048601D01*
X180894403Y-57070557D01*
X180910197Y-57089803D01*
X180929443Y-57105597D01*
X180951399Y-57117333D01*
X180975224Y-57124560D01*
X181000000Y-57127000D01*
X188873000Y-57127000D01*
X188873000Y-93873000D01*
X181000000Y-93873000D01*
X180975224Y-93875440D01*
X180951399Y-93882667D01*
X180929443Y-93894403D01*
X180910197Y-93910197D01*
X180894403Y-93929443D01*
X180882667Y-93951399D01*
X180875440Y-93975224D01*
X180873000Y-94000000D01*
X180873000Y-102000000D01*
X180875440Y-102024776D01*
X180882667Y-102048601D01*
X180894403Y-102070557D01*
X180910197Y-102089803D01*
X180929443Y-102105597D01*
X180951399Y-102117333D01*
X180975224Y-102124560D01*
X181000000Y-102127000D01*
X188873000Y-102127000D01*
X188873000Y-102873000D01*
X120511656Y-102873000D01*
X120572168Y-102726912D01*
X120635000Y-102411033D01*
X120635000Y-102088967D01*
X120572168Y-101773088D01*
X120448918Y-101475537D01*
X120269987Y-101207748D01*
X120042252Y-100980013D01*
X119774463Y-100801082D01*
X119476912Y-100677832D01*
X119161033Y-100615000D01*
X118838967Y-100615000D01*
X118523088Y-100677832D01*
X118225537Y-100801082D01*
X117957748Y-100980013D01*
X117730013Y-101207748D01*
X117551082Y-101475537D01*
X117427832Y-101773088D01*
X117365000Y-102088967D01*
X117365000Y-102411033D01*
X117427832Y-102726912D01*
X117488344Y-102873000D01*
X108511656Y-102873000D01*
X108572168Y-102726912D01*
X108635000Y-102411033D01*
X108635000Y-102088967D01*
X108572168Y-101773088D01*
X108448918Y-101475537D01*
X108269987Y-101207748D01*
X108042252Y-100980013D01*
X107774463Y-100801082D01*
X107476912Y-100677832D01*
X107161033Y-100615000D01*
X106838967Y-100615000D01*
X106523088Y-100677832D01*
X106225537Y-100801082D01*
X105957748Y-100980013D01*
X105730013Y-101207748D01*
X105551082Y-101475537D01*
X105427832Y-101773088D01*
X105365000Y-102088967D01*
X105365000Y-102411033D01*
X105427832Y-102726912D01*
X105488344Y-102873000D01*
X93127000Y-102873000D01*
X93127000Y-102127000D01*
X101000000Y-102127000D01*
X101024776Y-102124560D01*
X101048601Y-102117333D01*
X101070557Y-102105597D01*
X101089803Y-102089803D01*
X101105597Y-102070557D01*
X101117333Y-102048601D01*
X101124560Y-102024776D01*
X101127000Y-102000000D01*
X101127000Y-94000000D01*
X101124560Y-93975224D01*
X101117333Y-93951399D01*
X101105597Y-93929443D01*
X101089803Y-93910197D01*
X101070557Y-93894403D01*
X101048601Y-93882667D01*
X101024776Y-93875440D01*
X101000000Y-93873000D01*
X93127000Y-93873000D01*
X93127000Y-69200000D01*
X104561928Y-69200000D01*
X104561928Y-70800000D01*
X104574188Y-70924482D01*
X104610498Y-71044180D01*
X104669463Y-71154494D01*
X104748815Y-71251185D01*
X104845506Y-71330537D01*
X104955820Y-71389502D01*
X105075518Y-71425812D01*
X105083961Y-71426643D01*
X104885363Y-71625241D01*
X104728320Y-71860273D01*
X104620147Y-72121426D01*
X104565000Y-72398665D01*
X104565000Y-72681335D01*
X104620147Y-72958574D01*
X104728320Y-73219727D01*
X104885363Y-73454759D01*
X105085241Y-73654637D01*
X105317759Y-73810000D01*
X105085241Y-73965363D01*
X104885363Y-74165241D01*
X104728320Y-74400273D01*
X104620147Y-74661426D01*
X104565000Y-74938665D01*
X104565000Y-75221335D01*
X104620147Y-75498574D01*
X104728320Y-75759727D01*
X104885363Y-75994759D01*
X105085241Y-76194637D01*
X105317759Y-76350000D01*
X105085241Y-76505363D01*
X104885363Y-76705241D01*
X104728320Y-76940273D01*
X104620147Y-77201426D01*
X104565000Y-77478665D01*
X104565000Y-77761335D01*
X104620147Y-78038574D01*
X104728320Y-78299727D01*
X104885363Y-78534759D01*
X105085241Y-78734637D01*
X105320273Y-78891680D01*
X105581426Y-78999853D01*
X105858665Y-79055000D01*
X106141335Y-79055000D01*
X106418574Y-78999853D01*
X106679727Y-78891680D01*
X106914759Y-78734637D01*
X107114637Y-78534759D01*
X107271680Y-78299727D01*
X107379853Y-78038574D01*
X107435000Y-77761335D01*
X107435000Y-77478665D01*
X107379853Y-77201426D01*
X107271680Y-76940273D01*
X107114637Y-76705241D01*
X106914759Y-76505363D01*
X106682241Y-76350000D01*
X106914759Y-76194637D01*
X107114637Y-75994759D01*
X107271680Y-75759727D01*
X107379853Y-75498574D01*
X107435000Y-75221335D01*
X107435000Y-74938665D01*
X107379853Y-74661426D01*
X107271680Y-74400273D01*
X107114637Y-74165241D01*
X106914759Y-73965363D01*
X106682241Y-73810000D01*
X106914759Y-73654637D01*
X107114637Y-73454759D01*
X107271680Y-73219727D01*
X107379853Y-72958574D01*
X107435000Y-72681335D01*
X107435000Y-72398665D01*
X107379853Y-72121426D01*
X107271680Y-71860273D01*
X107114637Y-71625241D01*
X106916039Y-71426643D01*
X106924482Y-71425812D01*
X107044180Y-71389502D01*
X107154494Y-71330537D01*
X107251185Y-71251185D01*
X107330537Y-71154494D01*
X107389502Y-71044180D01*
X107425812Y-70924482D01*
X107438072Y-70800000D01*
X107438072Y-69813506D01*
X107600617Y-69650961D01*
X112228096Y-69650961D01*
X112350085Y-69873000D01*
X113493000Y-69873000D01*
X113493000Y-68729376D01*
X113270960Y-68608091D01*
X113006119Y-68702930D01*
X112764869Y-68847615D01*
X112556481Y-69036586D01*
X112388963Y-69262580D01*
X112268754Y-69516913D01*
X112228096Y-69650961D01*
X107600617Y-69650961D01*
X109366579Y-67885000D01*
X117063814Y-67885000D01*
X117015942Y-67910588D01*
X116986453Y-67934789D01*
X116914954Y-67993467D01*
X116914952Y-67993469D01*
X116881184Y-68021182D01*
X116853471Y-68054950D01*
X115035424Y-69872998D01*
X114889916Y-69872998D01*
X115011904Y-69650961D01*
X114971246Y-69516913D01*
X114851037Y-69262580D01*
X114683519Y-69036586D01*
X114475131Y-68847615D01*
X114233881Y-68702930D01*
X113969040Y-68608091D01*
X113747000Y-68729376D01*
X113747000Y-69873000D01*
X113767000Y-69873000D01*
X113767000Y-70127000D01*
X113747000Y-70127000D01*
X113747000Y-70147000D01*
X113493000Y-70147000D01*
X113493000Y-70127000D01*
X112350085Y-70127000D01*
X112228096Y-70349039D01*
X112268754Y-70483087D01*
X112388963Y-70737420D01*
X112556481Y-70963414D01*
X112764869Y-71152385D01*
X112950865Y-71263933D01*
X112940273Y-71268320D01*
X112705241Y-71425363D01*
X112505363Y-71625241D01*
X112348320Y-71860273D01*
X112240147Y-72121426D01*
X112185000Y-72398665D01*
X112185000Y-72681335D01*
X112240147Y-72958574D01*
X112348320Y-73219727D01*
X112505363Y-73454759D01*
X112705241Y-73654637D01*
X112735000Y-73674522D01*
X112735001Y-73945478D01*
X112705241Y-73965363D01*
X112505363Y-74165241D01*
X112348320Y-74400273D01*
X112240147Y-74661426D01*
X112185000Y-74938665D01*
X112185000Y-75221335D01*
X112240147Y-75498574D01*
X112348320Y-75759727D01*
X112505363Y-75994759D01*
X112705241Y-76194637D01*
X112937759Y-76350000D01*
X112705241Y-76505363D01*
X112505363Y-76705241D01*
X112348320Y-76940273D01*
X112240147Y-77201426D01*
X112185000Y-77478665D01*
X112185000Y-77761335D01*
X112240147Y-78038574D01*
X112348320Y-78299727D01*
X112505363Y-78534759D01*
X112705241Y-78734637D01*
X112940273Y-78891680D01*
X113201426Y-78999853D01*
X113478665Y-79055000D01*
X113761335Y-79055000D01*
X114038574Y-78999853D01*
X114085002Y-78980622D01*
X114085001Y-83904894D01*
X114026632Y-83846525D01*
X113783411Y-83684010D01*
X113513158Y-83572068D01*
X113226260Y-83515000D01*
X112933740Y-83515000D01*
X112646842Y-83572068D01*
X112376589Y-83684010D01*
X112133368Y-83846525D01*
X111926525Y-84053368D01*
X111810000Y-84227760D01*
X111693475Y-84053368D01*
X111486632Y-83846525D01*
X111243411Y-83684010D01*
X110973158Y-83572068D01*
X110686260Y-83515000D01*
X110393740Y-83515000D01*
X110106842Y-83572068D01*
X109836589Y-83684010D01*
X109593368Y-83846525D01*
X109461513Y-83978380D01*
X109439502Y-83905820D01*
X109380537Y-83795506D01*
X109301185Y-83698815D01*
X109204494Y-83619463D01*
X109094180Y-83560498D01*
X108974482Y-83524188D01*
X108850000Y-83511928D01*
X107150000Y-83511928D01*
X107025518Y-83524188D01*
X106905820Y-83560498D01*
X106795506Y-83619463D01*
X106698815Y-83698815D01*
X106619463Y-83795506D01*
X106560498Y-83905820D01*
X106524188Y-84025518D01*
X106511928Y-84150000D01*
X106511928Y-85850000D01*
X106524188Y-85974482D01*
X106560498Y-86094180D01*
X106619463Y-86204494D01*
X106698815Y-86301185D01*
X106795506Y-86380537D01*
X106905820Y-86439502D01*
X107025518Y-86475812D01*
X107115000Y-86484625D01*
X107115001Y-88933420D01*
X106476439Y-89571983D01*
X106441335Y-89565000D01*
X106158665Y-89565000D01*
X105881426Y-89620147D01*
X105620273Y-89728320D01*
X105385241Y-89885363D01*
X105185363Y-90085241D01*
X105028320Y-90320273D01*
X104920147Y-90581426D01*
X104865000Y-90858665D01*
X104865000Y-91141335D01*
X104920147Y-91418574D01*
X105028320Y-91679727D01*
X105185363Y-91914759D01*
X105385241Y-92114637D01*
X105620273Y-92271680D01*
X105881426Y-92379853D01*
X106158665Y-92435000D01*
X106441335Y-92435000D01*
X106718574Y-92379853D01*
X106979727Y-92271680D01*
X107214759Y-92114637D01*
X107414637Y-91914759D01*
X107571680Y-91679727D01*
X107679853Y-91418574D01*
X107735000Y-91141335D01*
X107735000Y-90858665D01*
X107728017Y-90823561D01*
X108595049Y-89956530D01*
X108628817Y-89928817D01*
X108739411Y-89794059D01*
X108821589Y-89640313D01*
X108872195Y-89473490D01*
X108885000Y-89343477D01*
X108885000Y-89343467D01*
X108889281Y-89300001D01*
X108885000Y-89256534D01*
X108885000Y-86484625D01*
X108974482Y-86475812D01*
X109094180Y-86439502D01*
X109204494Y-86380537D01*
X109301185Y-86301185D01*
X109380537Y-86204494D01*
X109439502Y-86094180D01*
X109461513Y-86021620D01*
X109593368Y-86153475D01*
X109836589Y-86315990D01*
X110106842Y-86427932D01*
X110393740Y-86485000D01*
X110686260Y-86485000D01*
X110973158Y-86427932D01*
X111243411Y-86315990D01*
X111486632Y-86153475D01*
X111693475Y-85946632D01*
X111810000Y-85772240D01*
X111926525Y-85946632D01*
X112133368Y-86153475D01*
X112376589Y-86315990D01*
X112646842Y-86427932D01*
X112933740Y-86485000D01*
X113226260Y-86485000D01*
X113513158Y-86427932D01*
X113783411Y-86315990D01*
X114026632Y-86153475D01*
X114085001Y-86095106D01*
X114085001Y-91663420D01*
X109218961Y-96529461D01*
X109146260Y-96515000D01*
X108853740Y-96515000D01*
X108604457Y-96564586D01*
X108635000Y-96411033D01*
X108635000Y-96088967D01*
X108572168Y-95773088D01*
X108448918Y-95475537D01*
X108269987Y-95207748D01*
X108042252Y-94980013D01*
X107774463Y-94801082D01*
X107476912Y-94677832D01*
X107161033Y-94615000D01*
X106838967Y-94615000D01*
X106523088Y-94677832D01*
X106225537Y-94801082D01*
X105957748Y-94980013D01*
X105730013Y-95207748D01*
X105551082Y-95475537D01*
X105427832Y-95773088D01*
X105365000Y-96088967D01*
X105365000Y-96411033D01*
X105427832Y-96726912D01*
X105551082Y-97024463D01*
X105730013Y-97292252D01*
X105957748Y-97519987D01*
X106225537Y-97698918D01*
X106523088Y-97822168D01*
X106838967Y-97885000D01*
X107161033Y-97885000D01*
X107476912Y-97822168D01*
X107525264Y-97802140D01*
X107515000Y-97853740D01*
X107515000Y-98146260D01*
X107572068Y-98433158D01*
X107684010Y-98703411D01*
X107846525Y-98946632D01*
X108053368Y-99153475D01*
X108296589Y-99315990D01*
X108566842Y-99427932D01*
X108853740Y-99485000D01*
X109146260Y-99485000D01*
X109433158Y-99427932D01*
X109703411Y-99315990D01*
X109946632Y-99153475D01*
X110153475Y-98946632D01*
X110315990Y-98703411D01*
X110427932Y-98433158D01*
X110485000Y-98146260D01*
X110485000Y-97853740D01*
X111515000Y-97853740D01*
X111515000Y-98146260D01*
X111572068Y-98433158D01*
X111684010Y-98703411D01*
X111846525Y-98946632D01*
X112053368Y-99153475D01*
X112296589Y-99315990D01*
X112566842Y-99427932D01*
X112853740Y-99485000D01*
X113146260Y-99485000D01*
X113433158Y-99427932D01*
X113703411Y-99315990D01*
X113946632Y-99153475D01*
X114153475Y-98946632D01*
X114315990Y-98703411D01*
X114427932Y-98433158D01*
X114485000Y-98146260D01*
X114485000Y-97853740D01*
X114427932Y-97566842D01*
X114315990Y-97296589D01*
X114153475Y-97053368D01*
X113946632Y-96846525D01*
X113703411Y-96684010D01*
X113433158Y-96572068D01*
X113146260Y-96515000D01*
X112853740Y-96515000D01*
X112566842Y-96572068D01*
X112296589Y-96684010D01*
X112053368Y-96846525D01*
X111846525Y-97053368D01*
X111684010Y-97296589D01*
X111572068Y-97566842D01*
X111515000Y-97853740D01*
X110485000Y-97853740D01*
X110470539Y-97781039D01*
X115565052Y-92686527D01*
X115598818Y-92658816D01*
X115651153Y-92595047D01*
X115709411Y-92524059D01*
X115709412Y-92524058D01*
X115791590Y-92370312D01*
X115842196Y-92203489D01*
X115855001Y-92073476D01*
X115855001Y-92073466D01*
X115859282Y-92030000D01*
X115855001Y-91986534D01*
X115855001Y-82712646D01*
X115888036Y-82745681D01*
X116045269Y-82850741D01*
X116115000Y-82879625D01*
X116115001Y-96805343D01*
X116053368Y-96846525D01*
X115846525Y-97053368D01*
X115684010Y-97296589D01*
X115572068Y-97566842D01*
X115515000Y-97853740D01*
X115515000Y-98146260D01*
X115572068Y-98433158D01*
X115684010Y-98703411D01*
X115846525Y-98946632D01*
X116053368Y-99153475D01*
X116296589Y-99315990D01*
X116566842Y-99427932D01*
X116853740Y-99485000D01*
X117146260Y-99485000D01*
X117433158Y-99427932D01*
X117703411Y-99315990D01*
X117946632Y-99153475D01*
X118153475Y-98946632D01*
X118315990Y-98703411D01*
X118427932Y-98433158D01*
X118485000Y-98146260D01*
X118485000Y-97853740D01*
X118474736Y-97802140D01*
X118523088Y-97822168D01*
X118838967Y-97885000D01*
X119161033Y-97885000D01*
X119476912Y-97822168D01*
X119774463Y-97698918D01*
X120042252Y-97519987D01*
X120269987Y-97292252D01*
X120398445Y-97100000D01*
X124461928Y-97100000D01*
X124461928Y-98900000D01*
X124474188Y-99024482D01*
X124510498Y-99144180D01*
X124569463Y-99254494D01*
X124648815Y-99351185D01*
X124745506Y-99430537D01*
X124855820Y-99489502D01*
X124975518Y-99525812D01*
X125100000Y-99538072D01*
X126900000Y-99538072D01*
X127024482Y-99525812D01*
X127144180Y-99489502D01*
X127254494Y-99430537D01*
X127351185Y-99351185D01*
X127430537Y-99254494D01*
X127489502Y-99144180D01*
X127492813Y-99133265D01*
X127539578Y-99180030D01*
X127655526Y-99064082D01*
X127739208Y-99318261D01*
X128011775Y-99449158D01*
X128304642Y-99524365D01*
X128606553Y-99540991D01*
X128905907Y-99498397D01*
X129191199Y-99398222D01*
X129340792Y-99318261D01*
X129424475Y-99064080D01*
X128540000Y-98179605D01*
X128525858Y-98193748D01*
X128346253Y-98014143D01*
X128360395Y-98000000D01*
X128719605Y-98000000D01*
X129604080Y-98884475D01*
X129858261Y-98800792D01*
X129989158Y-98528225D01*
X130064365Y-98235358D01*
X130080991Y-97933447D01*
X130038397Y-97634093D01*
X129938222Y-97348801D01*
X129858261Y-97199208D01*
X129604080Y-97115525D01*
X128719605Y-98000000D01*
X128360395Y-98000000D01*
X128346253Y-97985858D01*
X128525858Y-97806253D01*
X128540000Y-97820395D01*
X129424475Y-96935920D01*
X129340792Y-96681739D01*
X129068225Y-96550842D01*
X128775358Y-96475635D01*
X128473447Y-96459009D01*
X128174093Y-96501603D01*
X127888801Y-96601778D01*
X127739208Y-96681739D01*
X127655526Y-96935918D01*
X127539578Y-96819970D01*
X127492813Y-96866735D01*
X127489502Y-96855820D01*
X127430537Y-96745506D01*
X127351185Y-96648815D01*
X127254494Y-96569463D01*
X127144180Y-96510498D01*
X127024482Y-96474188D01*
X126900000Y-96461928D01*
X126885000Y-96461928D01*
X126885000Y-96366578D01*
X130366579Y-92885000D01*
X132865479Y-92885000D01*
X132885363Y-92914759D01*
X133085241Y-93114637D01*
X133320273Y-93271680D01*
X133581426Y-93379853D01*
X133858665Y-93435000D01*
X134141335Y-93435000D01*
X134418574Y-93379853D01*
X134679727Y-93271680D01*
X134914759Y-93114637D01*
X135114637Y-92914759D01*
X135271680Y-92679727D01*
X135379853Y-92418574D01*
X135435000Y-92141335D01*
X135435000Y-91858665D01*
X145265000Y-91858665D01*
X145265000Y-92141335D01*
X145320147Y-92418574D01*
X145428320Y-92679727D01*
X145585363Y-92914759D01*
X145785241Y-93114637D01*
X146020273Y-93271680D01*
X146281426Y-93379853D01*
X146558665Y-93435000D01*
X146841335Y-93435000D01*
X147118574Y-93379853D01*
X147379727Y-93271680D01*
X147614759Y-93114637D01*
X147814637Y-92914759D01*
X147971680Y-92679727D01*
X148079853Y-92418574D01*
X148135000Y-92141335D01*
X148135000Y-91858665D01*
X148865000Y-91858665D01*
X148865000Y-92141335D01*
X148920147Y-92418574D01*
X149028320Y-92679727D01*
X149185363Y-92914759D01*
X149385241Y-93114637D01*
X149620273Y-93271680D01*
X149881426Y-93379853D01*
X150158665Y-93435000D01*
X150441335Y-93435000D01*
X150718574Y-93379853D01*
X150979727Y-93271680D01*
X151214759Y-93114637D01*
X151414637Y-92914759D01*
X151571680Y-92679727D01*
X151679853Y-92418574D01*
X151735000Y-92141335D01*
X151735000Y-91858665D01*
X161565000Y-91858665D01*
X161565000Y-92141335D01*
X161620147Y-92418574D01*
X161728320Y-92679727D01*
X161885363Y-92914759D01*
X162085241Y-93114637D01*
X162320273Y-93271680D01*
X162581426Y-93379853D01*
X162858665Y-93435000D01*
X163141335Y-93435000D01*
X163418574Y-93379853D01*
X163679727Y-93271680D01*
X163914759Y-93114637D01*
X164114637Y-92914759D01*
X164134521Y-92885000D01*
X165633422Y-92885000D01*
X170461928Y-97713507D01*
X170461928Y-98900000D01*
X170474188Y-99024482D01*
X170510498Y-99144180D01*
X170569463Y-99254494D01*
X170648815Y-99351185D01*
X170745506Y-99430537D01*
X170855820Y-99489502D01*
X170975518Y-99525812D01*
X171100000Y-99538072D01*
X172900000Y-99538072D01*
X173024482Y-99525812D01*
X173144180Y-99489502D01*
X173254494Y-99430537D01*
X173351185Y-99351185D01*
X173430537Y-99254494D01*
X173489502Y-99144180D01*
X173492813Y-99133265D01*
X173539578Y-99180030D01*
X173655526Y-99064082D01*
X173739208Y-99318261D01*
X174011775Y-99449158D01*
X174304642Y-99524365D01*
X174606553Y-99540991D01*
X174905907Y-99498397D01*
X175191199Y-99398222D01*
X175340792Y-99318261D01*
X175424475Y-99064080D01*
X174540000Y-98179605D01*
X174525858Y-98193748D01*
X174346253Y-98014143D01*
X174360395Y-98000000D01*
X174719605Y-98000000D01*
X175604080Y-98884475D01*
X175858261Y-98800792D01*
X175989158Y-98528225D01*
X176064365Y-98235358D01*
X176080991Y-97933447D01*
X176038397Y-97634093D01*
X175938222Y-97348801D01*
X175858261Y-97199208D01*
X175604080Y-97115525D01*
X174719605Y-98000000D01*
X174360395Y-98000000D01*
X174346253Y-97985858D01*
X174525858Y-97806253D01*
X174540000Y-97820395D01*
X175424475Y-96935920D01*
X175340792Y-96681739D01*
X175068225Y-96550842D01*
X174775358Y-96475635D01*
X174473447Y-96459009D01*
X174174093Y-96501603D01*
X173888801Y-96601778D01*
X173739208Y-96681739D01*
X173655526Y-96935918D01*
X173539578Y-96819970D01*
X173492813Y-96866735D01*
X173489502Y-96855820D01*
X173430537Y-96745506D01*
X173351185Y-96648815D01*
X173254494Y-96569463D01*
X173144180Y-96510498D01*
X173024482Y-96474188D01*
X172900000Y-96461928D01*
X171713507Y-96461928D01*
X166656534Y-91404956D01*
X166628817Y-91371183D01*
X166494059Y-91260589D01*
X166340313Y-91178411D01*
X166173490Y-91127805D01*
X166043477Y-91115000D01*
X166043469Y-91115000D01*
X166000000Y-91110719D01*
X165956531Y-91115000D01*
X164134521Y-91115000D01*
X164114637Y-91085241D01*
X163914759Y-90885363D01*
X163679727Y-90728320D01*
X163418574Y-90620147D01*
X163141335Y-90565000D01*
X162858665Y-90565000D01*
X162581426Y-90620147D01*
X162320273Y-90728320D01*
X162085241Y-90885363D01*
X161885363Y-91085241D01*
X161728320Y-91320273D01*
X161620147Y-91581426D01*
X161565000Y-91858665D01*
X151735000Y-91858665D01*
X151679853Y-91581426D01*
X151571680Y-91320273D01*
X151414637Y-91085241D01*
X151214759Y-90885363D01*
X150979727Y-90728320D01*
X150718574Y-90620147D01*
X150441335Y-90565000D01*
X150158665Y-90565000D01*
X149881426Y-90620147D01*
X149620273Y-90728320D01*
X149385241Y-90885363D01*
X149185363Y-91085241D01*
X149028320Y-91320273D01*
X148920147Y-91581426D01*
X148865000Y-91858665D01*
X148135000Y-91858665D01*
X148079853Y-91581426D01*
X147971680Y-91320273D01*
X147814637Y-91085241D01*
X147614759Y-90885363D01*
X147379727Y-90728320D01*
X147118574Y-90620147D01*
X146841335Y-90565000D01*
X146558665Y-90565000D01*
X146281426Y-90620147D01*
X146020273Y-90728320D01*
X145785241Y-90885363D01*
X145585363Y-91085241D01*
X145428320Y-91320273D01*
X145320147Y-91581426D01*
X145265000Y-91858665D01*
X135435000Y-91858665D01*
X135379853Y-91581426D01*
X135271680Y-91320273D01*
X135114637Y-91085241D01*
X134914759Y-90885363D01*
X134679727Y-90728320D01*
X134418574Y-90620147D01*
X134141335Y-90565000D01*
X133858665Y-90565000D01*
X133581426Y-90620147D01*
X133320273Y-90728320D01*
X133085241Y-90885363D01*
X132885363Y-91085241D01*
X132865479Y-91115000D01*
X130043465Y-91115000D01*
X129999999Y-91110719D01*
X129956533Y-91115000D01*
X129956523Y-91115000D01*
X129826510Y-91127805D01*
X129659687Y-91178411D01*
X129505941Y-91260589D01*
X129505939Y-91260590D01*
X129505940Y-91260590D01*
X129404953Y-91343468D01*
X129404951Y-91343470D01*
X129371183Y-91371183D01*
X129343470Y-91404951D01*
X125404956Y-95343466D01*
X125371183Y-95371183D01*
X125260589Y-95505942D01*
X125178411Y-95659688D01*
X125127805Y-95826511D01*
X125115000Y-95956524D01*
X125115000Y-95956531D01*
X125110719Y-96000000D01*
X125115000Y-96043469D01*
X125115000Y-96461928D01*
X125100000Y-96461928D01*
X124975518Y-96474188D01*
X124855820Y-96510498D01*
X124745506Y-96569463D01*
X124648815Y-96648815D01*
X124569463Y-96745506D01*
X124510498Y-96855820D01*
X124474188Y-96975518D01*
X124461928Y-97100000D01*
X120398445Y-97100000D01*
X120448918Y-97024463D01*
X120572168Y-96726912D01*
X120635000Y-96411033D01*
X120635000Y-96088967D01*
X120572168Y-95773088D01*
X120448918Y-95475537D01*
X120269987Y-95207748D01*
X120042252Y-94980013D01*
X119774463Y-94801082D01*
X119476912Y-94677832D01*
X119161033Y-94615000D01*
X118838967Y-94615000D01*
X118523088Y-94677832D01*
X118225537Y-94801082D01*
X117957748Y-94980013D01*
X117885000Y-95052761D01*
X117885000Y-91914216D01*
X117885363Y-91914759D01*
X118085241Y-92114637D01*
X118320273Y-92271680D01*
X118581426Y-92379853D01*
X118858665Y-92435000D01*
X119141335Y-92435000D01*
X119418574Y-92379853D01*
X119679727Y-92271680D01*
X119914759Y-92114637D01*
X120114637Y-91914759D01*
X120271680Y-91679727D01*
X120379853Y-91418574D01*
X120435000Y-91141335D01*
X120435000Y-90858665D01*
X120379853Y-90581426D01*
X120271680Y-90320273D01*
X120114637Y-90085241D01*
X119914759Y-89885363D01*
X119679727Y-89728320D01*
X119418574Y-89620147D01*
X119141335Y-89565000D01*
X118858665Y-89565000D01*
X118581426Y-89620147D01*
X118320273Y-89728320D01*
X118085241Y-89885363D01*
X117885363Y-90085241D01*
X117885000Y-90085784D01*
X117885000Y-82543469D01*
X117889281Y-82500000D01*
X117885000Y-82456531D01*
X117885000Y-82456523D01*
X117872195Y-82326510D01*
X117821589Y-82159687D01*
X117739411Y-82005941D01*
X117628817Y-81871183D01*
X117595045Y-81843467D01*
X117388850Y-81637272D01*
X117350741Y-81545269D01*
X117245681Y-81388036D01*
X117111964Y-81254319D01*
X116954731Y-81149259D01*
X116780022Y-81076892D01*
X116594552Y-81040000D01*
X116405448Y-81040000D01*
X116219978Y-81076892D01*
X116045269Y-81149259D01*
X115888036Y-81254319D01*
X115855001Y-81287354D01*
X115855001Y-75896577D01*
X117572506Y-74179072D01*
X117620147Y-74418574D01*
X117728320Y-74679727D01*
X117885363Y-74914759D01*
X118085241Y-75114637D01*
X118320273Y-75271680D01*
X118581426Y-75379853D01*
X118858665Y-75435000D01*
X119141335Y-75435000D01*
X119418574Y-75379853D01*
X119679727Y-75271680D01*
X119914759Y-75114637D01*
X120114637Y-74914759D01*
X120134521Y-74885000D01*
X124633422Y-74885000D01*
X129863421Y-80115000D01*
X127666579Y-80115000D01*
X127428017Y-79876439D01*
X127435000Y-79841335D01*
X127435000Y-79558665D01*
X127379853Y-79281426D01*
X127271680Y-79020273D01*
X127114637Y-78785241D01*
X126914759Y-78585363D01*
X126679727Y-78428320D01*
X126418574Y-78320147D01*
X126141335Y-78265000D01*
X125858665Y-78265000D01*
X125581426Y-78320147D01*
X125320273Y-78428320D01*
X125085241Y-78585363D01*
X124885363Y-78785241D01*
X124728320Y-79020273D01*
X124620147Y-79281426D01*
X124565000Y-79558665D01*
X124565000Y-79841335D01*
X124620147Y-80118574D01*
X124728320Y-80379727D01*
X124885363Y-80614759D01*
X125085241Y-80814637D01*
X125320273Y-80971680D01*
X125581426Y-81079853D01*
X125858665Y-81135000D01*
X126141335Y-81135000D01*
X126176439Y-81128017D01*
X126643470Y-81595049D01*
X126671183Y-81628817D01*
X126704951Y-81656530D01*
X126704953Y-81656532D01*
X126805941Y-81739411D01*
X126959686Y-81821589D01*
X127123174Y-81871183D01*
X127126510Y-81872195D01*
X127256523Y-81885000D01*
X127256531Y-81885000D01*
X127300000Y-81889281D01*
X127343469Y-81885000D01*
X131956531Y-81885000D01*
X132000000Y-81889281D01*
X132043469Y-81885000D01*
X143956531Y-81885000D01*
X144000000Y-81889281D01*
X144043469Y-81885000D01*
X144633422Y-81885000D01*
X148571983Y-85823561D01*
X148565000Y-85858665D01*
X148565000Y-86141335D01*
X148620147Y-86418574D01*
X148728320Y-86679727D01*
X148885363Y-86914759D01*
X149085241Y-87114637D01*
X149320273Y-87271680D01*
X149581426Y-87379853D01*
X149858665Y-87435000D01*
X150141335Y-87435000D01*
X150418574Y-87379853D01*
X150679727Y-87271680D01*
X150914759Y-87114637D01*
X151114637Y-86914759D01*
X151271680Y-86679727D01*
X151379853Y-86418574D01*
X151435000Y-86141335D01*
X151435000Y-85858665D01*
X161265000Y-85858665D01*
X161265000Y-86141335D01*
X161320147Y-86418574D01*
X161428320Y-86679727D01*
X161585363Y-86914759D01*
X161785241Y-87114637D01*
X162020273Y-87271680D01*
X162281426Y-87379853D01*
X162558665Y-87435000D01*
X162841335Y-87435000D01*
X163118574Y-87379853D01*
X163379727Y-87271680D01*
X163614759Y-87114637D01*
X163814637Y-86914759D01*
X163971680Y-86679727D01*
X164079853Y-86418574D01*
X164135000Y-86141335D01*
X164135000Y-85858665D01*
X164079853Y-85581426D01*
X163971680Y-85320273D01*
X163814637Y-85085241D01*
X163614759Y-84885363D01*
X163379727Y-84728320D01*
X163118574Y-84620147D01*
X162841335Y-84565000D01*
X162558665Y-84565000D01*
X162281426Y-84620147D01*
X162020273Y-84728320D01*
X161785241Y-84885363D01*
X161585363Y-85085241D01*
X161428320Y-85320273D01*
X161320147Y-85581426D01*
X161265000Y-85858665D01*
X151435000Y-85858665D01*
X151379853Y-85581426D01*
X151271680Y-85320273D01*
X151114637Y-85085241D01*
X150914759Y-84885363D01*
X150679727Y-84728320D01*
X150418574Y-84620147D01*
X150141335Y-84565000D01*
X149858665Y-84565000D01*
X149823561Y-84571983D01*
X145810243Y-80558665D01*
X173565000Y-80558665D01*
X173565000Y-80841335D01*
X173620147Y-81118574D01*
X173728320Y-81379727D01*
X173885363Y-81614759D01*
X174085241Y-81814637D01*
X174320273Y-81971680D01*
X174581426Y-82079853D01*
X174858665Y-82135000D01*
X175141335Y-82135000D01*
X175418574Y-82079853D01*
X175679727Y-81971680D01*
X175914759Y-81814637D01*
X176114637Y-81614759D01*
X176271680Y-81379727D01*
X176379853Y-81118574D01*
X176435000Y-80841335D01*
X176435000Y-80558665D01*
X176379853Y-80281426D01*
X176271680Y-80020273D01*
X176114637Y-79785241D01*
X175914759Y-79585363D01*
X175679727Y-79428320D01*
X175418574Y-79320147D01*
X175141335Y-79265000D01*
X174858665Y-79265000D01*
X174581426Y-79320147D01*
X174320273Y-79428320D01*
X174085241Y-79585363D01*
X173885363Y-79785241D01*
X173728320Y-80020273D01*
X173620147Y-80281426D01*
X173565000Y-80558665D01*
X145810243Y-80558665D01*
X145751578Y-80500000D01*
X150659060Y-75592519D01*
X150728320Y-75759727D01*
X150885363Y-75994759D01*
X151085241Y-76194637D01*
X151317759Y-76350000D01*
X151085241Y-76505363D01*
X150885363Y-76705241D01*
X150728320Y-76940273D01*
X150620147Y-77201426D01*
X150565000Y-77478665D01*
X150565000Y-77761335D01*
X150620147Y-78038574D01*
X150728320Y-78299727D01*
X150885363Y-78534759D01*
X151085241Y-78734637D01*
X151320273Y-78891680D01*
X151581426Y-78999853D01*
X151858665Y-79055000D01*
X152141335Y-79055000D01*
X152418574Y-78999853D01*
X152679727Y-78891680D01*
X152914759Y-78734637D01*
X153114637Y-78534759D01*
X153271680Y-78299727D01*
X153379853Y-78038574D01*
X153435000Y-77761335D01*
X153435000Y-77478665D01*
X153379853Y-77201426D01*
X153271680Y-76940273D01*
X153114637Y-76705241D01*
X152914759Y-76505363D01*
X152682241Y-76350000D01*
X152914759Y-76194637D01*
X153114637Y-75994759D01*
X153271680Y-75759727D01*
X153379853Y-75498574D01*
X153435000Y-75221335D01*
X153435000Y-74938665D01*
X158185000Y-74938665D01*
X158185000Y-75221335D01*
X158240147Y-75498574D01*
X158348320Y-75759727D01*
X158505363Y-75994759D01*
X158705241Y-76194637D01*
X158937759Y-76350000D01*
X158705241Y-76505363D01*
X158505363Y-76705241D01*
X158348320Y-76940273D01*
X158240147Y-77201426D01*
X158185000Y-77478665D01*
X158185000Y-77761335D01*
X158240147Y-78038574D01*
X158348320Y-78299727D01*
X158505363Y-78534759D01*
X158705241Y-78734637D01*
X158940273Y-78891680D01*
X159201426Y-78999853D01*
X159478665Y-79055000D01*
X159761335Y-79055000D01*
X160038574Y-78999853D01*
X160299727Y-78891680D01*
X160403676Y-78822223D01*
X179195000Y-78822223D01*
X179195000Y-79177777D01*
X179264365Y-79526499D01*
X179400429Y-79854988D01*
X179597965Y-80150621D01*
X179849379Y-80402035D01*
X180145012Y-80599571D01*
X180473501Y-80735635D01*
X180822223Y-80805000D01*
X181177777Y-80805000D01*
X181526499Y-80735635D01*
X181854988Y-80599571D01*
X182150621Y-80402035D01*
X182402035Y-80150621D01*
X182599571Y-79854988D01*
X182735635Y-79526499D01*
X182805000Y-79177777D01*
X182805000Y-78822223D01*
X182735635Y-78473501D01*
X182599571Y-78145012D01*
X182402035Y-77849379D01*
X182150621Y-77597965D01*
X181854988Y-77400429D01*
X181526499Y-77264365D01*
X181177777Y-77195000D01*
X180822223Y-77195000D01*
X180473501Y-77264365D01*
X180145012Y-77400429D01*
X179849379Y-77597965D01*
X179597965Y-77849379D01*
X179400429Y-78145012D01*
X179264365Y-78473501D01*
X179195000Y-78822223D01*
X160403676Y-78822223D01*
X160534759Y-78734637D01*
X160734637Y-78534759D01*
X160891680Y-78299727D01*
X160999853Y-78038574D01*
X161055000Y-77761335D01*
X161055000Y-77478665D01*
X160999853Y-77201426D01*
X160891680Y-76940273D01*
X160734637Y-76705241D01*
X160534759Y-76505363D01*
X160302241Y-76350000D01*
X160534759Y-76194637D01*
X160734637Y-75994759D01*
X160891680Y-75759727D01*
X160999853Y-75498574D01*
X161001021Y-75492702D01*
X164186903Y-75492702D01*
X164258486Y-75736671D01*
X164513996Y-75857571D01*
X164788184Y-75926300D01*
X165070512Y-75940217D01*
X165350130Y-75898787D01*
X165616292Y-75803603D01*
X165741514Y-75736671D01*
X165813097Y-75492702D01*
X165000000Y-74679605D01*
X164186903Y-75492702D01*
X161001021Y-75492702D01*
X161055000Y-75221335D01*
X161055000Y-74938665D01*
X160999853Y-74661426D01*
X160962196Y-74570512D01*
X163559783Y-74570512D01*
X163601213Y-74850130D01*
X163696397Y-75116292D01*
X163763329Y-75241514D01*
X164007298Y-75313097D01*
X164820395Y-74500000D01*
X165179605Y-74500000D01*
X165992702Y-75313097D01*
X166236671Y-75241514D01*
X166357571Y-74986004D01*
X166426300Y-74711816D01*
X166440217Y-74429488D01*
X166398787Y-74149870D01*
X166303603Y-73883708D01*
X166270739Y-73822223D01*
X184195000Y-73822223D01*
X184195000Y-74177777D01*
X184264365Y-74526499D01*
X184400429Y-74854988D01*
X184597965Y-75150621D01*
X184849379Y-75402035D01*
X185145012Y-75599571D01*
X185473501Y-75735635D01*
X185822223Y-75805000D01*
X186177777Y-75805000D01*
X186526499Y-75735635D01*
X186854988Y-75599571D01*
X187150621Y-75402035D01*
X187402035Y-75150621D01*
X187599571Y-74854988D01*
X187735635Y-74526499D01*
X187805000Y-74177777D01*
X187805000Y-73822223D01*
X187735635Y-73473501D01*
X187599571Y-73145012D01*
X187402035Y-72849379D01*
X187150621Y-72597965D01*
X186854988Y-72400429D01*
X186526499Y-72264365D01*
X186177777Y-72195000D01*
X185822223Y-72195000D01*
X185473501Y-72264365D01*
X185145012Y-72400429D01*
X184849379Y-72597965D01*
X184597965Y-72849379D01*
X184400429Y-73145012D01*
X184264365Y-73473501D01*
X184195000Y-73822223D01*
X166270739Y-73822223D01*
X166236671Y-73758486D01*
X165992702Y-73686903D01*
X165179605Y-74500000D01*
X164820395Y-74500000D01*
X164007298Y-73686903D01*
X163763329Y-73758486D01*
X163642429Y-74013996D01*
X163573700Y-74288184D01*
X163559783Y-74570512D01*
X160962196Y-74570512D01*
X160891680Y-74400273D01*
X160734637Y-74165241D01*
X160534759Y-73965363D01*
X160299727Y-73808320D01*
X160289135Y-73803933D01*
X160475131Y-73692385D01*
X160683519Y-73503414D01*
X160851037Y-73277420D01*
X160971246Y-73023087D01*
X161011904Y-72889039D01*
X160889915Y-72667000D01*
X159747000Y-72667000D01*
X159747000Y-72687000D01*
X159493000Y-72687000D01*
X159493000Y-72667000D01*
X158350085Y-72667000D01*
X158228096Y-72889039D01*
X158268754Y-73023087D01*
X158388963Y-73277420D01*
X158556481Y-73503414D01*
X158764869Y-73692385D01*
X158950865Y-73803933D01*
X158940273Y-73808320D01*
X158705241Y-73965363D01*
X158505363Y-74165241D01*
X158348320Y-74400273D01*
X158240147Y-74661426D01*
X158185000Y-74938665D01*
X153435000Y-74938665D01*
X153379853Y-74661426D01*
X153271680Y-74400273D01*
X153114637Y-74165241D01*
X152914759Y-73965363D01*
X152682241Y-73810000D01*
X152914759Y-73654637D01*
X153114637Y-73454759D01*
X153271680Y-73219727D01*
X153379853Y-72958574D01*
X153435000Y-72681335D01*
X153435000Y-72398665D01*
X153379853Y-72121426D01*
X153271680Y-71860273D01*
X153114637Y-71625241D01*
X152916039Y-71426643D01*
X152924482Y-71425812D01*
X153044180Y-71389502D01*
X153154494Y-71330537D01*
X153251185Y-71251185D01*
X153330537Y-71154494D01*
X153389502Y-71044180D01*
X153425812Y-70924482D01*
X153429701Y-70885000D01*
X158485479Y-70885000D01*
X158505363Y-70914759D01*
X158705241Y-71114637D01*
X158940273Y-71271680D01*
X158950865Y-71276067D01*
X158764869Y-71387615D01*
X158556481Y-71576586D01*
X158388963Y-71802580D01*
X158268754Y-72056913D01*
X158228096Y-72190961D01*
X158350085Y-72413000D01*
X159493000Y-72413000D01*
X159493000Y-72393000D01*
X159747000Y-72393000D01*
X159747000Y-72413000D01*
X160889915Y-72413000D01*
X161011904Y-72190961D01*
X160971246Y-72056913D01*
X160877546Y-71858665D01*
X163565000Y-71858665D01*
X163565000Y-72141335D01*
X163620147Y-72418574D01*
X163728320Y-72679727D01*
X163885363Y-72914759D01*
X164085241Y-73114637D01*
X164285869Y-73248692D01*
X164258486Y-73263329D01*
X164186903Y-73507298D01*
X165000000Y-74320395D01*
X165813097Y-73507298D01*
X165741514Y-73263329D01*
X165712659Y-73249676D01*
X165914759Y-73114637D01*
X166114637Y-72914759D01*
X166271680Y-72679727D01*
X166379853Y-72418574D01*
X166435000Y-72141335D01*
X166435000Y-71858665D01*
X166379853Y-71581426D01*
X166271680Y-71320273D01*
X166114637Y-71085241D01*
X165914759Y-70885363D01*
X165679727Y-70728320D01*
X165418574Y-70620147D01*
X165141335Y-70565000D01*
X164858665Y-70565000D01*
X164581426Y-70620147D01*
X164320273Y-70728320D01*
X164085241Y-70885363D01*
X163885363Y-71085241D01*
X163728320Y-71320273D01*
X163620147Y-71581426D01*
X163565000Y-71858665D01*
X160877546Y-71858665D01*
X160851037Y-71802580D01*
X160683519Y-71576586D01*
X160475131Y-71387615D01*
X160289135Y-71276067D01*
X160299727Y-71271680D01*
X160534759Y-71114637D01*
X160734637Y-70914759D01*
X160891680Y-70679727D01*
X160999853Y-70418574D01*
X161055000Y-70141335D01*
X161055000Y-69858665D01*
X160999853Y-69581426D01*
X160891680Y-69320273D01*
X160734637Y-69085241D01*
X160534759Y-68885363D01*
X160299727Y-68728320D01*
X160038574Y-68620147D01*
X159761335Y-68565000D01*
X159478665Y-68565000D01*
X159201426Y-68620147D01*
X158940273Y-68728320D01*
X158705241Y-68885363D01*
X158505363Y-69085241D01*
X158485479Y-69115000D01*
X153429701Y-69115000D01*
X153425812Y-69075518D01*
X153389502Y-68955820D01*
X153330537Y-68845506D01*
X153251185Y-68748815D01*
X153154494Y-68669463D01*
X153044180Y-68610498D01*
X152924482Y-68574188D01*
X152800000Y-68561928D01*
X151200000Y-68561928D01*
X151075518Y-68574188D01*
X150955820Y-68610498D01*
X150845506Y-68669463D01*
X150748815Y-68748815D01*
X150669463Y-68845506D01*
X150610498Y-68955820D01*
X150574188Y-69075518D01*
X150561928Y-69200000D01*
X150561928Y-70800000D01*
X150574188Y-70924482D01*
X150610498Y-71044180D01*
X150669463Y-71154494D01*
X150748815Y-71251185D01*
X150845506Y-71330537D01*
X150955820Y-71389502D01*
X151075518Y-71425812D01*
X151083961Y-71426643D01*
X150885363Y-71625241D01*
X150728320Y-71860273D01*
X150620147Y-72121426D01*
X150565000Y-72398665D01*
X150565000Y-72681335D01*
X150620147Y-72958574D01*
X150669851Y-73078570D01*
X148389401Y-75359020D01*
X148426300Y-75211816D01*
X148440217Y-74929488D01*
X148398787Y-74649870D01*
X148303603Y-74383708D01*
X148236671Y-74258486D01*
X147992702Y-74186903D01*
X147179605Y-75000000D01*
X147193748Y-75014143D01*
X147014143Y-75193748D01*
X147000000Y-75179605D01*
X146186903Y-75992702D01*
X146258486Y-76236671D01*
X146513996Y-76357571D01*
X146788184Y-76426300D01*
X147070512Y-76440217D01*
X147349548Y-76398873D01*
X143633422Y-80115000D01*
X132366579Y-80115000D01*
X130220618Y-77969039D01*
X133608096Y-77969039D01*
X133648754Y-78103087D01*
X133768963Y-78357420D01*
X133936481Y-78583414D01*
X134144869Y-78772385D01*
X134386119Y-78917070D01*
X134650960Y-79011909D01*
X134873000Y-78890624D01*
X134873000Y-77747000D01*
X135127000Y-77747000D01*
X135127000Y-78890624D01*
X135349040Y-79011909D01*
X135613881Y-78917070D01*
X135855131Y-78772385D01*
X136063519Y-78583414D01*
X136231037Y-78357420D01*
X136351246Y-78103087D01*
X136391904Y-77969039D01*
X141228096Y-77969039D01*
X141268754Y-78103087D01*
X141388963Y-78357420D01*
X141556481Y-78583414D01*
X141764869Y-78772385D01*
X142006119Y-78917070D01*
X142270960Y-79011909D01*
X142493000Y-78890624D01*
X142493000Y-77747000D01*
X142747000Y-77747000D01*
X142747000Y-78890624D01*
X142969040Y-79011909D01*
X143233881Y-78917070D01*
X143475131Y-78772385D01*
X143683519Y-78583414D01*
X143851037Y-78357420D01*
X143971246Y-78103087D01*
X144011904Y-77969039D01*
X143889915Y-77747000D01*
X142747000Y-77747000D01*
X142493000Y-77747000D01*
X141350085Y-77747000D01*
X141228096Y-77969039D01*
X136391904Y-77969039D01*
X136269915Y-77747000D01*
X135127000Y-77747000D01*
X134873000Y-77747000D01*
X133730085Y-77747000D01*
X133608096Y-77969039D01*
X130220618Y-77969039D01*
X125656534Y-73404956D01*
X125628817Y-73371183D01*
X125494059Y-73260589D01*
X125340313Y-73178411D01*
X125173490Y-73127805D01*
X125043477Y-73115000D01*
X125043469Y-73115000D01*
X125000000Y-73110719D01*
X124956531Y-73115000D01*
X120134521Y-73115000D01*
X120114637Y-73085241D01*
X119914759Y-72885363D01*
X119712173Y-72750000D01*
X119914759Y-72614637D01*
X120114637Y-72414759D01*
X120271680Y-72179727D01*
X120379853Y-71918574D01*
X120435000Y-71641335D01*
X120435000Y-71358665D01*
X120428017Y-71323561D01*
X122551578Y-69200000D01*
X133561928Y-69200000D01*
X133561928Y-70800000D01*
X133574188Y-70924482D01*
X133610498Y-71044180D01*
X133669463Y-71154494D01*
X133748815Y-71251185D01*
X133845506Y-71330537D01*
X133955820Y-71389502D01*
X134075518Y-71425812D01*
X134083961Y-71426643D01*
X133885363Y-71625241D01*
X133728320Y-71860273D01*
X133620147Y-72121426D01*
X133565000Y-72398665D01*
X133565000Y-72681335D01*
X133620147Y-72958574D01*
X133728320Y-73219727D01*
X133885363Y-73454759D01*
X134085241Y-73654637D01*
X134317759Y-73810000D01*
X134085241Y-73965363D01*
X133885363Y-74165241D01*
X133728320Y-74400273D01*
X133620147Y-74661426D01*
X133565000Y-74938665D01*
X133565000Y-75221335D01*
X133620147Y-75498574D01*
X133728320Y-75759727D01*
X133885363Y-75994759D01*
X134085241Y-76194637D01*
X134320273Y-76351680D01*
X134330865Y-76356067D01*
X134144869Y-76467615D01*
X133936481Y-76656586D01*
X133768963Y-76882580D01*
X133648754Y-77136913D01*
X133608096Y-77270961D01*
X133730085Y-77493000D01*
X134873000Y-77493000D01*
X134873000Y-77473000D01*
X135127000Y-77473000D01*
X135127000Y-77493000D01*
X136269915Y-77493000D01*
X136391904Y-77270961D01*
X136351246Y-77136913D01*
X136231037Y-76882580D01*
X136063519Y-76656586D01*
X135855131Y-76467615D01*
X135669135Y-76356067D01*
X135679727Y-76351680D01*
X135914759Y-76194637D01*
X136114637Y-75994759D01*
X136271680Y-75759727D01*
X136379853Y-75498574D01*
X136435000Y-75221335D01*
X136435000Y-74938665D01*
X136379853Y-74661426D01*
X136271680Y-74400273D01*
X136114637Y-74165241D01*
X135914759Y-73965363D01*
X135682241Y-73810000D01*
X135914759Y-73654637D01*
X136114637Y-73454759D01*
X136271680Y-73219727D01*
X136379853Y-72958574D01*
X136435000Y-72681335D01*
X136435000Y-72398665D01*
X136379853Y-72121426D01*
X136271680Y-71860273D01*
X136114637Y-71625241D01*
X135916039Y-71426643D01*
X135924482Y-71425812D01*
X136044180Y-71389502D01*
X136154494Y-71330537D01*
X136251185Y-71251185D01*
X136330537Y-71154494D01*
X136389502Y-71044180D01*
X136425812Y-70924482D01*
X136438072Y-70800000D01*
X136438072Y-69200000D01*
X136425812Y-69075518D01*
X136389502Y-68955820D01*
X136330537Y-68845506D01*
X136251185Y-68748815D01*
X136154494Y-68669463D01*
X136044180Y-68610498D01*
X135924482Y-68574188D01*
X135800000Y-68561928D01*
X134200000Y-68561928D01*
X134075518Y-68574188D01*
X133955820Y-68610498D01*
X133845506Y-68669463D01*
X133748815Y-68748815D01*
X133669463Y-68845506D01*
X133610498Y-68955820D01*
X133574188Y-69075518D01*
X133561928Y-69200000D01*
X122551578Y-69200000D01*
X123866579Y-67885000D01*
X124865479Y-67885000D01*
X124885363Y-67914759D01*
X125085241Y-68114637D01*
X125320273Y-68271680D01*
X125581426Y-68379853D01*
X125858665Y-68435000D01*
X126141335Y-68435000D01*
X126418574Y-68379853D01*
X126679727Y-68271680D01*
X126914759Y-68114637D01*
X127114637Y-67914759D01*
X127271680Y-67679727D01*
X127379853Y-67418574D01*
X127435000Y-67141335D01*
X127435000Y-66858665D01*
X127379853Y-66581426D01*
X127271680Y-66320273D01*
X127114637Y-66085241D01*
X126914759Y-65885363D01*
X126914216Y-65885000D01*
X137253422Y-65885000D01*
X141191983Y-69823561D01*
X141185000Y-69858665D01*
X141185000Y-70141335D01*
X141240147Y-70418574D01*
X141348320Y-70679727D01*
X141505363Y-70914759D01*
X141705241Y-71114637D01*
X141937759Y-71270000D01*
X141705241Y-71425363D01*
X141505363Y-71625241D01*
X141348320Y-71860273D01*
X141240147Y-72121426D01*
X141185000Y-72398665D01*
X141185000Y-72681335D01*
X141240147Y-72958574D01*
X141348320Y-73219727D01*
X141505363Y-73454759D01*
X141705241Y-73654637D01*
X141937759Y-73810000D01*
X141705241Y-73965363D01*
X141505363Y-74165241D01*
X141348320Y-74400273D01*
X141240147Y-74661426D01*
X141185000Y-74938665D01*
X141185000Y-75221335D01*
X141240147Y-75498574D01*
X141348320Y-75759727D01*
X141505363Y-75994759D01*
X141705241Y-76194637D01*
X141940273Y-76351680D01*
X141950865Y-76356067D01*
X141764869Y-76467615D01*
X141556481Y-76656586D01*
X141388963Y-76882580D01*
X141268754Y-77136913D01*
X141228096Y-77270961D01*
X141350085Y-77493000D01*
X142493000Y-77493000D01*
X142493000Y-77473000D01*
X142747000Y-77473000D01*
X142747000Y-77493000D01*
X143889915Y-77493000D01*
X144011904Y-77270961D01*
X143971246Y-77136913D01*
X143851037Y-76882580D01*
X143683519Y-76656586D01*
X143475131Y-76467615D01*
X143289135Y-76356067D01*
X143299727Y-76351680D01*
X143534759Y-76194637D01*
X143734637Y-75994759D01*
X143891680Y-75759727D01*
X143999853Y-75498574D01*
X144055000Y-75221335D01*
X144055000Y-75070512D01*
X145559783Y-75070512D01*
X145601213Y-75350130D01*
X145696397Y-75616292D01*
X145763329Y-75741514D01*
X146007298Y-75813097D01*
X146820395Y-75000000D01*
X146007298Y-74186903D01*
X145763329Y-74258486D01*
X145642429Y-74513996D01*
X145573700Y-74788184D01*
X145559783Y-75070512D01*
X144055000Y-75070512D01*
X144055000Y-74938665D01*
X144015166Y-74738410D01*
X145683077Y-73070500D01*
X145728320Y-73179727D01*
X145885363Y-73414759D01*
X146085241Y-73614637D01*
X146285869Y-73748692D01*
X146258486Y-73763329D01*
X146186903Y-74007298D01*
X147000000Y-74820395D01*
X147813097Y-74007298D01*
X147741514Y-73763329D01*
X147712659Y-73749676D01*
X147914759Y-73614637D01*
X148114637Y-73414759D01*
X148271680Y-73179727D01*
X148379853Y-72918574D01*
X148435000Y-72641335D01*
X148435000Y-72358665D01*
X148379853Y-72081426D01*
X148271680Y-71820273D01*
X148114637Y-71585241D01*
X147914759Y-71385363D01*
X147679727Y-71228320D01*
X147570500Y-71183077D01*
X153868577Y-64885000D01*
X168956531Y-64885000D01*
X169000000Y-64889281D01*
X169043469Y-64885000D01*
X170633422Y-64885000D01*
X173571983Y-67823561D01*
X173565000Y-67858665D01*
X173565000Y-68141335D01*
X173620147Y-68418574D01*
X173728320Y-68679727D01*
X173885363Y-68914759D01*
X174085241Y-69114637D01*
X174320273Y-69271680D01*
X174581426Y-69379853D01*
X174858665Y-69435000D01*
X175141335Y-69435000D01*
X175418574Y-69379853D01*
X175679727Y-69271680D01*
X175914759Y-69114637D01*
X176114637Y-68914759D01*
X176176467Y-68822223D01*
X179195000Y-68822223D01*
X179195000Y-69177777D01*
X179264365Y-69526499D01*
X179400429Y-69854988D01*
X179597965Y-70150621D01*
X179849379Y-70402035D01*
X180145012Y-70599571D01*
X180473501Y-70735635D01*
X180822223Y-70805000D01*
X181177777Y-70805000D01*
X181526499Y-70735635D01*
X181854988Y-70599571D01*
X182150621Y-70402035D01*
X182402035Y-70150621D01*
X182599571Y-69854988D01*
X182735635Y-69526499D01*
X182805000Y-69177777D01*
X182805000Y-68822223D01*
X182735635Y-68473501D01*
X182599571Y-68145012D01*
X182402035Y-67849379D01*
X182150621Y-67597965D01*
X181854988Y-67400429D01*
X181526499Y-67264365D01*
X181177777Y-67195000D01*
X180822223Y-67195000D01*
X180473501Y-67264365D01*
X180145012Y-67400429D01*
X179849379Y-67597965D01*
X179597965Y-67849379D01*
X179400429Y-68145012D01*
X179264365Y-68473501D01*
X179195000Y-68822223D01*
X176176467Y-68822223D01*
X176271680Y-68679727D01*
X176379853Y-68418574D01*
X176435000Y-68141335D01*
X176435000Y-67858665D01*
X176379853Y-67581426D01*
X176271680Y-67320273D01*
X176114637Y-67085241D01*
X175914759Y-66885363D01*
X175679727Y-66728320D01*
X175418574Y-66620147D01*
X175141335Y-66565000D01*
X174858665Y-66565000D01*
X174823561Y-66571983D01*
X171656532Y-63404954D01*
X171628817Y-63371183D01*
X171494059Y-63260589D01*
X171340313Y-63178411D01*
X171173490Y-63127805D01*
X171128231Y-63123347D01*
X171595050Y-62656529D01*
X171628817Y-62628817D01*
X171739411Y-62494059D01*
X171821589Y-62340313D01*
X171872195Y-62173490D01*
X171885000Y-62043477D01*
X171885000Y-62043467D01*
X171889281Y-62000001D01*
X171885000Y-61956535D01*
X171885000Y-61580078D01*
X172019608Y-61469608D01*
X172198932Y-61251101D01*
X172332182Y-61001808D01*
X172414236Y-60731309D01*
X172435000Y-60520491D01*
X172435000Y-59479508D01*
X172414236Y-59268691D01*
X172332182Y-58998192D01*
X172198932Y-58748899D01*
X172019607Y-58530392D01*
X171801100Y-58351068D01*
X171551807Y-58217818D01*
X171281308Y-58135764D01*
X171000000Y-58108057D01*
X170718691Y-58135764D01*
X170448192Y-58217818D01*
X170198899Y-58351068D01*
X169980392Y-58530393D01*
X169801068Y-58748900D01*
X169730000Y-58881858D01*
X169658932Y-58748899D01*
X169479607Y-58530392D01*
X169261100Y-58351068D01*
X169011807Y-58217818D01*
X168741308Y-58135764D01*
X168460000Y-58108057D01*
X168178691Y-58135764D01*
X167908192Y-58217818D01*
X167658899Y-58351068D01*
X167440392Y-58530393D01*
X167261068Y-58748900D01*
X167127818Y-58998193D01*
X167045764Y-59268692D01*
X167025000Y-59479509D01*
X167025000Y-60520492D01*
X167045764Y-60731309D01*
X167127818Y-61001808D01*
X167261068Y-61251101D01*
X167440393Y-61469608D01*
X167658900Y-61648932D01*
X167908193Y-61782182D01*
X168178692Y-61864236D01*
X168460000Y-61891943D01*
X168741309Y-61864236D01*
X169011808Y-61782182D01*
X169261101Y-61648932D01*
X169479608Y-61469608D01*
X169658932Y-61251101D01*
X169730000Y-61118142D01*
X169801068Y-61251101D01*
X169980393Y-61469608D01*
X170115000Y-61580077D01*
X170115000Y-61633421D01*
X168633422Y-63115000D01*
X153545463Y-63115000D01*
X153501997Y-63110719D01*
X153458531Y-63115000D01*
X153458521Y-63115000D01*
X153328508Y-63127805D01*
X153161685Y-63178411D01*
X153007939Y-63260589D01*
X153007937Y-63260590D01*
X153007938Y-63260590D01*
X152906951Y-63343468D01*
X152906949Y-63343470D01*
X152873181Y-63371183D01*
X152845468Y-63404951D01*
X144021279Y-72229141D01*
X143999853Y-72121426D01*
X143891680Y-71860273D01*
X143734637Y-71625241D01*
X143534759Y-71425363D01*
X143302241Y-71270000D01*
X143534759Y-71114637D01*
X143734637Y-70914759D01*
X143891680Y-70679727D01*
X143999853Y-70418574D01*
X144055000Y-70141335D01*
X144055000Y-69858665D01*
X143999853Y-69581426D01*
X143891680Y-69320273D01*
X143734637Y-69085241D01*
X143534759Y-68885363D01*
X143299727Y-68728320D01*
X143038574Y-68620147D01*
X142761335Y-68565000D01*
X142478665Y-68565000D01*
X142443561Y-68571983D01*
X138556588Y-64685010D01*
X146156521Y-64685010D01*
X146199990Y-64689291D01*
X146243459Y-64685010D01*
X146243467Y-64685010D01*
X146373480Y-64672205D01*
X146540303Y-64621599D01*
X146694049Y-64539421D01*
X146828807Y-64428827D01*
X146856524Y-64395054D01*
X149464462Y-61787117D01*
X149718692Y-61864236D01*
X150000000Y-61891943D01*
X150281309Y-61864236D01*
X150551808Y-61782182D01*
X150801101Y-61648932D01*
X151019608Y-61469608D01*
X151198932Y-61251101D01*
X151332182Y-61001808D01*
X151414236Y-60731309D01*
X151435000Y-60520491D01*
X151435000Y-59479508D01*
X151414236Y-59268691D01*
X151332182Y-58998192D01*
X151198932Y-58748899D01*
X151019607Y-58530392D01*
X150801100Y-58351068D01*
X150551807Y-58217818D01*
X150281308Y-58135764D01*
X150000000Y-58108057D01*
X149718691Y-58135764D01*
X149448192Y-58217818D01*
X149198899Y-58351068D01*
X148980392Y-58530393D01*
X148801068Y-58748900D01*
X148730000Y-58881858D01*
X148658932Y-58748899D01*
X148479607Y-58530392D01*
X148261100Y-58351068D01*
X148011807Y-58217818D01*
X147741308Y-58135764D01*
X147460000Y-58108057D01*
X147178691Y-58135764D01*
X146908192Y-58217818D01*
X146658899Y-58351068D01*
X146440392Y-58530393D01*
X146261068Y-58748900D01*
X146127818Y-58998193D01*
X146045764Y-59268692D01*
X146025000Y-59479509D01*
X146025000Y-60520492D01*
X146045764Y-60731309D01*
X146127818Y-61001808D01*
X146261068Y-61251101D01*
X146440393Y-61469608D01*
X146658900Y-61648932D01*
X146908193Y-61782182D01*
X146952730Y-61795692D01*
X145833412Y-62915010D01*
X128336568Y-62915010D01*
X129433513Y-61818066D01*
X129551808Y-61782182D01*
X129801101Y-61648932D01*
X130019608Y-61469608D01*
X130198932Y-61251101D01*
X130332182Y-61001808D01*
X130414236Y-60731309D01*
X130435000Y-60520491D01*
X130435000Y-59479508D01*
X130414236Y-59268691D01*
X130332182Y-58998192D01*
X130198932Y-58748899D01*
X130019607Y-58530392D01*
X129801100Y-58351068D01*
X129551807Y-58217818D01*
X129281308Y-58135764D01*
X129000000Y-58108057D01*
X128718691Y-58135764D01*
X128448192Y-58217818D01*
X128198899Y-58351068D01*
X127980392Y-58530393D01*
X127801068Y-58748900D01*
X127730000Y-58881858D01*
X127658932Y-58748899D01*
X127479607Y-58530392D01*
X127261100Y-58351068D01*
X127011807Y-58217818D01*
X126741308Y-58135764D01*
X126460000Y-58108057D01*
X126178691Y-58135764D01*
X125908192Y-58217818D01*
X125658899Y-58351068D01*
X125440392Y-58530393D01*
X125261068Y-58748900D01*
X125127818Y-58998193D01*
X125045764Y-59268692D01*
X125025000Y-59479509D01*
X125025000Y-60520492D01*
X125045764Y-60731309D01*
X125127818Y-61001808D01*
X125261068Y-61251101D01*
X125440393Y-61469608D01*
X125658900Y-61648932D01*
X125908193Y-61782182D01*
X126178692Y-61864236D01*
X126460000Y-61891943D01*
X126741309Y-61864236D01*
X126946398Y-61802024D01*
X126633422Y-62115000D01*
X117834521Y-62115000D01*
X117814637Y-62085241D01*
X117614759Y-61885363D01*
X117379727Y-61728320D01*
X117118574Y-61620147D01*
X116841335Y-61565000D01*
X116558665Y-61565000D01*
X116281426Y-61620147D01*
X116020273Y-61728320D01*
X115785241Y-61885363D01*
X115585363Y-62085241D01*
X115428320Y-62320273D01*
X115320147Y-62581426D01*
X115265000Y-62858665D01*
X115265000Y-63141335D01*
X115320147Y-63418574D01*
X115428320Y-63679727D01*
X115585363Y-63914759D01*
X115785241Y-64114637D01*
X116020273Y-64271680D01*
X116281426Y-64379853D01*
X116558665Y-64435000D01*
X116841335Y-64435000D01*
X117118574Y-64379853D01*
X117379727Y-64271680D01*
X117614759Y-64114637D01*
X117814637Y-63914759D01*
X117834521Y-63885000D01*
X123863421Y-63885000D01*
X120940584Y-66807838D01*
X120923108Y-66719978D01*
X120850741Y-66545269D01*
X120745681Y-66388036D01*
X120611964Y-66254319D01*
X120454731Y-66149259D01*
X120280022Y-66076892D01*
X120094552Y-66040000D01*
X119905448Y-66040000D01*
X119719978Y-66076892D01*
X119627977Y-66115000D01*
X109043469Y-66115000D01*
X109000000Y-66110719D01*
X108956531Y-66115000D01*
X108956523Y-66115000D01*
X108826510Y-66127805D01*
X108659686Y-66178411D01*
X108505941Y-66260589D01*
X108404953Y-66343468D01*
X108404951Y-66343470D01*
X108371183Y-66371183D01*
X108343470Y-66404951D01*
X106186494Y-68561928D01*
X105200000Y-68561928D01*
X105075518Y-68574188D01*
X104955820Y-68610498D01*
X104845506Y-68669463D01*
X104748815Y-68748815D01*
X104669463Y-68845506D01*
X104610498Y-68955820D01*
X104574188Y-69075518D01*
X104561928Y-69200000D01*
X93127000Y-69200000D01*
X93127000Y-62858665D01*
X102565000Y-62858665D01*
X102565000Y-63141335D01*
X102620147Y-63418574D01*
X102728320Y-63679727D01*
X102885363Y-63914759D01*
X103085241Y-64114637D01*
X103320273Y-64271680D01*
X103581426Y-64379853D01*
X103858665Y-64435000D01*
X104141335Y-64435000D01*
X104418574Y-64379853D01*
X104679727Y-64271680D01*
X104914759Y-64114637D01*
X105114637Y-63914759D01*
X105271680Y-63679727D01*
X105379853Y-63418574D01*
X105435000Y-63141335D01*
X105435000Y-62858665D01*
X105379853Y-62581426D01*
X105271680Y-62320273D01*
X105114637Y-62085241D01*
X104914759Y-61885363D01*
X104679727Y-61728320D01*
X104418574Y-61620147D01*
X104141335Y-61565000D01*
X103858665Y-61565000D01*
X103581426Y-61620147D01*
X103320273Y-61728320D01*
X103085241Y-61885363D01*
X102885363Y-62085241D01*
X102728320Y-62320273D01*
X102620147Y-62581426D01*
X102565000Y-62858665D01*
X93127000Y-62858665D01*
X93127000Y-57127000D01*
X101000000Y-57127000D01*
X101024776Y-57124560D01*
X101048601Y-57117333D01*
X101070557Y-57105597D01*
X101089803Y-57089803D01*
X101105597Y-57070557D01*
X101117333Y-57048601D01*
X101124560Y-57024776D01*
X101127000Y-57000000D01*
X101127000Y-51216706D01*
X104615000Y-51216706D01*
X104615000Y-52823293D01*
X104630700Y-52982696D01*
X104692741Y-53187219D01*
X104793491Y-53375710D01*
X104929078Y-53540922D01*
X105094290Y-53676509D01*
X105282780Y-53777259D01*
X105487303Y-53839300D01*
X105700000Y-53860249D01*
X105912696Y-53839300D01*
X106117219Y-53777259D01*
X106305710Y-53676509D01*
X106320978Y-53663978D01*
X106422099Y-53765099D01*
X106583428Y-53872896D01*
X106762686Y-53947147D01*
X106952986Y-53985000D01*
X107147014Y-53985000D01*
X107337314Y-53947147D01*
X107475542Y-53889891D01*
X107604384Y-53944589D01*
X107794344Y-53984110D01*
X107988364Y-53985813D01*
X108178989Y-53949632D01*
X108325651Y-53890385D01*
X108462686Y-53947147D01*
X108652986Y-53985000D01*
X108847014Y-53985000D01*
X109037314Y-53947147D01*
X109175000Y-53890116D01*
X109312686Y-53947147D01*
X109502986Y-53985000D01*
X109697014Y-53985000D01*
X109887314Y-53947147D01*
X110025000Y-53890116D01*
X110162686Y-53947147D01*
X110352986Y-53985000D01*
X110547014Y-53985000D01*
X110737314Y-53947147D01*
X110875000Y-53890116D01*
X111012686Y-53947147D01*
X111202986Y-53985000D01*
X111397014Y-53985000D01*
X111587314Y-53947147D01*
X111725542Y-53889891D01*
X111854384Y-53944589D01*
X112044344Y-53984110D01*
X112238364Y-53985813D01*
X112428989Y-53949632D01*
X112575651Y-53890385D01*
X112712686Y-53947147D01*
X112902986Y-53985000D01*
X113097014Y-53985000D01*
X113287314Y-53947147D01*
X113466572Y-53872896D01*
X113627901Y-53765099D01*
X113729022Y-53663978D01*
X113744290Y-53676509D01*
X113932780Y-53777259D01*
X114137303Y-53839300D01*
X114350000Y-53860249D01*
X114562696Y-53839300D01*
X114767219Y-53777259D01*
X114955710Y-53676509D01*
X115120922Y-53540922D01*
X115256509Y-53375710D01*
X115357259Y-53187220D01*
X115398021Y-53052844D01*
X121535000Y-53052844D01*
X121535000Y-56787157D01*
X121569511Y-57137542D01*
X121705888Y-57587116D01*
X121927352Y-58001446D01*
X122225392Y-58364609D01*
X122588555Y-58662649D01*
X123002885Y-58884113D01*
X123452459Y-59020490D01*
X123920000Y-59066539D01*
X124387542Y-59020490D01*
X124837116Y-58884113D01*
X125251446Y-58662649D01*
X125614609Y-58364609D01*
X125912649Y-58001446D01*
X126134113Y-57587116D01*
X126270490Y-57137542D01*
X126305000Y-56787157D01*
X126305000Y-53052844D01*
X131695000Y-53052844D01*
X131695000Y-56787157D01*
X131729511Y-57137542D01*
X131865888Y-57587116D01*
X132087352Y-58001446D01*
X132385392Y-58364609D01*
X132748555Y-58662649D01*
X133162885Y-58884113D01*
X133612459Y-59020490D01*
X134080000Y-59066539D01*
X134547542Y-59020490D01*
X134997116Y-58884113D01*
X135411446Y-58662649D01*
X135774609Y-58364609D01*
X136072649Y-58001446D01*
X136294113Y-57587116D01*
X136430490Y-57137542D01*
X136465000Y-56787157D01*
X136465000Y-53052844D01*
X142535000Y-53052844D01*
X142535000Y-56787157D01*
X142569511Y-57137542D01*
X142705888Y-57587116D01*
X142927352Y-58001446D01*
X143225392Y-58364609D01*
X143588555Y-58662649D01*
X144002885Y-58884113D01*
X144452459Y-59020490D01*
X144920000Y-59066539D01*
X145387542Y-59020490D01*
X145837116Y-58884113D01*
X146251446Y-58662649D01*
X146614609Y-58364609D01*
X146912649Y-58001446D01*
X147134113Y-57587116D01*
X147270490Y-57137542D01*
X147305000Y-56787157D01*
X147305000Y-53052844D01*
X152695000Y-53052844D01*
X152695000Y-56787157D01*
X152729511Y-57137542D01*
X152865888Y-57587116D01*
X153087352Y-58001446D01*
X153385392Y-58364609D01*
X153748555Y-58662649D01*
X154162885Y-58884113D01*
X154612459Y-59020490D01*
X155080000Y-59066539D01*
X155547542Y-59020490D01*
X155997116Y-58884113D01*
X156411446Y-58662649D01*
X156774609Y-58364609D01*
X157072649Y-58001446D01*
X157294113Y-57587116D01*
X157430490Y-57137542D01*
X157465000Y-56787157D01*
X157465000Y-53052844D01*
X163535000Y-53052844D01*
X163535000Y-56787157D01*
X163569511Y-57137542D01*
X163705888Y-57587116D01*
X163927352Y-58001446D01*
X164225392Y-58364609D01*
X164588555Y-58662649D01*
X165002885Y-58884113D01*
X165452459Y-59020490D01*
X165920000Y-59066539D01*
X166387542Y-59020490D01*
X166837116Y-58884113D01*
X167251446Y-58662649D01*
X167614609Y-58364609D01*
X167912649Y-58001446D01*
X168134113Y-57587116D01*
X168270490Y-57137542D01*
X168305000Y-56787157D01*
X168305000Y-53052844D01*
X173695000Y-53052844D01*
X173695000Y-56787157D01*
X173729511Y-57137542D01*
X173865888Y-57587116D01*
X174087352Y-58001446D01*
X174385392Y-58364609D01*
X174748555Y-58662649D01*
X175162885Y-58884113D01*
X175612459Y-59020490D01*
X176080000Y-59066539D01*
X176547542Y-59020490D01*
X176997116Y-58884113D01*
X177411446Y-58662649D01*
X177774609Y-58364609D01*
X178072649Y-58001446D01*
X178294113Y-57587116D01*
X178430490Y-57137542D01*
X178465000Y-56787157D01*
X178465000Y-53052843D01*
X178430490Y-52702458D01*
X178294113Y-52252884D01*
X178072649Y-51838554D01*
X177774609Y-51475391D01*
X177411445Y-51177351D01*
X176997115Y-50955887D01*
X176547541Y-50819510D01*
X176080000Y-50773461D01*
X175612458Y-50819510D01*
X175162884Y-50955887D01*
X174748554Y-51177351D01*
X174385391Y-51475391D01*
X174087351Y-51838555D01*
X173865887Y-52252885D01*
X173729510Y-52702459D01*
X173695000Y-53052844D01*
X168305000Y-53052844D01*
X168305000Y-53052843D01*
X168270490Y-52702458D01*
X168134113Y-52252884D01*
X167912649Y-51838554D01*
X167614609Y-51475391D01*
X167251445Y-51177351D01*
X166837115Y-50955887D01*
X166387541Y-50819510D01*
X165920000Y-50773461D01*
X165452458Y-50819510D01*
X165002884Y-50955887D01*
X164588554Y-51177351D01*
X164225391Y-51475391D01*
X163927351Y-51838555D01*
X163705887Y-52252885D01*
X163569510Y-52702459D01*
X163535000Y-53052844D01*
X157465000Y-53052844D01*
X157465000Y-53052843D01*
X157430490Y-52702458D01*
X157294113Y-52252884D01*
X157072649Y-51838554D01*
X156774609Y-51475391D01*
X156411445Y-51177351D01*
X155997115Y-50955887D01*
X155547541Y-50819510D01*
X155080000Y-50773461D01*
X154612458Y-50819510D01*
X154162884Y-50955887D01*
X153748554Y-51177351D01*
X153385391Y-51475391D01*
X153087351Y-51838555D01*
X152865887Y-52252885D01*
X152729510Y-52702459D01*
X152695000Y-53052844D01*
X147305000Y-53052844D01*
X147305000Y-53052843D01*
X147270490Y-52702458D01*
X147134113Y-52252884D01*
X146912649Y-51838554D01*
X146614609Y-51475391D01*
X146251445Y-51177351D01*
X145837115Y-50955887D01*
X145387541Y-50819510D01*
X144920000Y-50773461D01*
X144452458Y-50819510D01*
X144002884Y-50955887D01*
X143588554Y-51177351D01*
X143225391Y-51475391D01*
X142927351Y-51838555D01*
X142705887Y-52252885D01*
X142569510Y-52702459D01*
X142535000Y-53052844D01*
X136465000Y-53052844D01*
X136465000Y-53052843D01*
X136430490Y-52702458D01*
X136294113Y-52252884D01*
X136072649Y-51838554D01*
X135774609Y-51475391D01*
X135411445Y-51177351D01*
X134997115Y-50955887D01*
X134547541Y-50819510D01*
X134080000Y-50773461D01*
X133612458Y-50819510D01*
X133162884Y-50955887D01*
X132748554Y-51177351D01*
X132385391Y-51475391D01*
X132087351Y-51838555D01*
X131865887Y-52252885D01*
X131729510Y-52702459D01*
X131695000Y-53052844D01*
X126305000Y-53052844D01*
X126305000Y-53052843D01*
X126270490Y-52702458D01*
X126134113Y-52252884D01*
X125912649Y-51838554D01*
X125614609Y-51475391D01*
X125251445Y-51177351D01*
X124837115Y-50955887D01*
X124387541Y-50819510D01*
X123920000Y-50773461D01*
X123452458Y-50819510D01*
X123002884Y-50955887D01*
X122588554Y-51177351D01*
X122225391Y-51475391D01*
X121927351Y-51838555D01*
X121705887Y-52252885D01*
X121569510Y-52702459D01*
X121535000Y-53052844D01*
X115398021Y-53052844D01*
X115419300Y-52982697D01*
X115435000Y-52823294D01*
X115435000Y-51216706D01*
X115419300Y-51057303D01*
X115357259Y-50852780D01*
X115256509Y-50664290D01*
X115120922Y-50499078D01*
X114955710Y-50363491D01*
X114767220Y-50262741D01*
X114562697Y-50200700D01*
X114350000Y-50179751D01*
X114137304Y-50200700D01*
X113932781Y-50262741D01*
X113744291Y-50363491D01*
X113579079Y-50499078D01*
X113443492Y-50664290D01*
X113398306Y-50748827D01*
X113287314Y-50702853D01*
X113097014Y-50665000D01*
X112902986Y-50665000D01*
X112712686Y-50702853D01*
X112574458Y-50760109D01*
X112445616Y-50705411D01*
X112255656Y-50665890D01*
X112061636Y-50664187D01*
X111871011Y-50700368D01*
X111724349Y-50759615D01*
X111587314Y-50702853D01*
X111397014Y-50665000D01*
X111202986Y-50665000D01*
X111012686Y-50702853D01*
X110875000Y-50759884D01*
X110737314Y-50702853D01*
X110547014Y-50665000D01*
X110352986Y-50665000D01*
X110162686Y-50702853D01*
X110025000Y-50759884D01*
X109887314Y-50702853D01*
X109697014Y-50665000D01*
X109502986Y-50665000D01*
X109312686Y-50702853D01*
X109175000Y-50759884D01*
X109037314Y-50702853D01*
X108847014Y-50665000D01*
X108652986Y-50665000D01*
X108462686Y-50702853D01*
X108324458Y-50760109D01*
X108195616Y-50705411D01*
X108005656Y-50665890D01*
X107811636Y-50664187D01*
X107621011Y-50700368D01*
X107474349Y-50759615D01*
X107337314Y-50702853D01*
X107147014Y-50665000D01*
X106952986Y-50665000D01*
X106762686Y-50702853D01*
X106651695Y-50748827D01*
X106606509Y-50664290D01*
X106470922Y-50499078D01*
X106305710Y-50363491D01*
X106117220Y-50262741D01*
X105912697Y-50200700D01*
X105700000Y-50179751D01*
X105487304Y-50200700D01*
X105282781Y-50262741D01*
X105094291Y-50363491D01*
X104929079Y-50499078D01*
X104793492Y-50664290D01*
X104692742Y-50852780D01*
X104630700Y-51057303D01*
X104615000Y-51216706D01*
X101127000Y-51216706D01*
X101127000Y-49000000D01*
X101124560Y-48975224D01*
X101117333Y-48951399D01*
X101105597Y-48929443D01*
X101089803Y-48910197D01*
X101070557Y-48894403D01*
X101048601Y-48882667D01*
X101024776Y-48875440D01*
X101000000Y-48873000D01*
X93127000Y-48873000D01*
X93127000Y-48127000D01*
X104620881Y-48127000D01*
X104615000Y-48186706D01*
%TD*%
M02*
