G04 #@! TF.GenerationSoftware,KiCad,Pcbnew,5.1.6-c6e7f7d~86~ubuntu20.04.1*
G04 #@! TF.CreationDate,2020-06-08T17:16:22+01:00*
G04 #@! TF.ProjectId,PC_driver,50435f64-7269-4766-9572-2e6b69636164,rev?*
G04 #@! TF.SameCoordinates,Original*
G04 #@! TF.FileFunction,Soldermask,Bot*
G04 #@! TF.FilePolarity,Negative*
%FSLAX46Y46*%
G04 Gerber Fmt 4.6, Leading zero omitted, Abs format (unit mm)*
G04 Created by KiCad (PCBNEW 5.1.6-c6e7f7d~86~ubuntu20.04.1) date 2020-06-08 17:16:22*
%MOMM*%
%LPD*%
G01*
G04 APERTURE LIST*
%ADD10O,1.600000X1.600000*%
%ADD11C,1.600000*%
%ADD12R,1.800000X1.800000*%
%ADD13C,1.800000*%
%ADD14R,1.600000X1.600000*%
%ADD15C,3.200000*%
%ADD16C,2.340000*%
%ADD17O,3.500000X7.000000*%
%ADD18O,1.600000X2.500000*%
%ADD19R,1.700000X1.700000*%
%ADD20O,1.700000X1.700000*%
%ADD21C,0.700000*%
%ADD22O,0.900000X2.400000*%
%ADD23O,0.900000X1.700000*%
%ADD24C,2.000000*%
%ADD25C,1.700000*%
G04 APERTURE END LIST*
D10*
X106300000Y-91000000D03*
D11*
X119000000Y-91000000D03*
D10*
X146700000Y-92000000D03*
D11*
X134000000Y-92000000D03*
D12*
X172000000Y-98000000D03*
D13*
X174540000Y-98000000D03*
X128540000Y-98000000D03*
D12*
X126000000Y-98000000D03*
D14*
X152000000Y-70000000D03*
D10*
X159620000Y-77620000D03*
X152000000Y-72540000D03*
X159620000Y-75080000D03*
X152000000Y-75080000D03*
X159620000Y-72540000D03*
X152000000Y-77620000D03*
X159620000Y-70000000D03*
X142620000Y-70000000D03*
X135000000Y-77620000D03*
X142620000Y-72540000D03*
X135000000Y-75080000D03*
X142620000Y-75080000D03*
X135000000Y-72540000D03*
X142620000Y-77620000D03*
D14*
X135000000Y-70000000D03*
D15*
X97000000Y-53000000D03*
X185000000Y-53000000D03*
X185000000Y-98000000D03*
X97000000Y-98000000D03*
D16*
X181000000Y-69000000D03*
X186000000Y-74000000D03*
X181000000Y-79000000D03*
D11*
X119000000Y-71500000D03*
X119000000Y-74000000D03*
X165000000Y-72000000D03*
X165000000Y-74500000D03*
X147000000Y-75000000D03*
X147000000Y-72500000D03*
D17*
X123920000Y-54920000D03*
X134080000Y-54920000D03*
D18*
X129000000Y-60000000D03*
X126460000Y-60000000D03*
D19*
X108000000Y-85000000D03*
D20*
X110540000Y-85000000D03*
X113080000Y-85000000D03*
D17*
X144920000Y-54920000D03*
X155080000Y-54920000D03*
D18*
X150000000Y-60000000D03*
X147460000Y-60000000D03*
X168460000Y-60000000D03*
X171000000Y-60000000D03*
D17*
X176080000Y-54920000D03*
X165920000Y-54920000D03*
D21*
X113000000Y-53000000D03*
X112150000Y-53000000D03*
X111300000Y-53000000D03*
X110450000Y-53000000D03*
X109600000Y-53000000D03*
X108750000Y-53000000D03*
X107900000Y-53000000D03*
X107050000Y-53000000D03*
X112150000Y-51650000D03*
X110450000Y-51650000D03*
X111300000Y-51650000D03*
X113000000Y-51650000D03*
X108750000Y-51650000D03*
X107900000Y-51650000D03*
X107050000Y-51650000D03*
X109600000Y-51650000D03*
D22*
X114350000Y-52020000D03*
X105700000Y-52020000D03*
D23*
X114350000Y-48640000D03*
X105700000Y-48640000D03*
D11*
X104000000Y-63000000D03*
D10*
X116700000Y-63000000D03*
X126000000Y-79700000D03*
D11*
X126000000Y-67000000D03*
D10*
X162700000Y-86000000D03*
D11*
X150000000Y-86000000D03*
X163000000Y-92000000D03*
D10*
X150300000Y-92000000D03*
D11*
X175000000Y-68000000D03*
D10*
X175000000Y-80700000D03*
D24*
X107000000Y-96250000D03*
X119000000Y-96250000D03*
X119000000Y-102250000D03*
X107000000Y-102250000D03*
D25*
X109000000Y-98000000D03*
X113000000Y-98000000D03*
X117000000Y-98000000D03*
D14*
X106000000Y-70000000D03*
D10*
X113620000Y-77620000D03*
X106000000Y-72540000D03*
X113620000Y-75080000D03*
X106000000Y-75080000D03*
X113620000Y-72540000D03*
X106000000Y-77620000D03*
X113620000Y-70000000D03*
M02*
