G04 #@! TF.FileFunction,Copper,L1,Top,Signal*
%FSLAX46Y46*%
G04 Gerber Fmt 4.6, Leading zero omitted, Abs format (unit mm)*
G04 Created by KiCad (PCBNEW 4.0.7) date 01/14/20 09:17:38*
%MOMM*%
%LPD*%
G01*
G04 APERTURE LIST*
%ADD10C,0.100000*%
%ADD11R,1.600000X1.600000*%
%ADD12O,1.600000X1.600000*%
%ADD13C,2.000000*%
%ADD14R,1.500000X2.600000*%
%ADD15C,15.240000*%
%ADD16C,5.080000*%
%ADD17R,3.500000X3.500000*%
%ADD18C,1.600000*%
%ADD19C,2.500000*%
%ADD20R,1.250000X2.500000*%
%ADD21C,0.600000*%
%ADD22C,0.250000*%
%ADD23C,0.254000*%
G04 APERTURE END LIST*
D10*
D11*
X121920000Y-113030000D03*
D12*
X129540000Y-120650000D03*
X121920000Y-115570000D03*
X129540000Y-118110000D03*
X121920000Y-118110000D03*
X129540000Y-115570000D03*
X121920000Y-120650000D03*
X129540000Y-113030000D03*
D13*
X182880000Y-93980000D03*
X190380000Y-93980000D03*
X180340000Y-102870000D03*
X190340000Y-102870000D03*
D11*
X138430000Y-113030000D03*
D12*
X148590000Y-120650000D03*
X138430000Y-115570000D03*
X148590000Y-118110000D03*
X138430000Y-118110000D03*
X148590000Y-115570000D03*
X138430000Y-120650000D03*
X148590000Y-113030000D03*
D14*
X173760000Y-118110000D03*
X176760000Y-118110000D03*
D15*
X144780000Y-77470000D03*
D16*
X144780000Y-64770000D03*
D15*
X165100000Y-77470000D03*
D16*
X165100000Y-64770000D03*
D15*
X185420000Y-77470000D03*
D16*
X185420000Y-64770000D03*
D17*
X127000000Y-82550000D03*
X127000000Y-76550000D03*
X122300000Y-79550000D03*
D11*
X120650000Y-93980000D03*
D12*
X130810000Y-101600000D03*
X120650000Y-96520000D03*
X130810000Y-99060000D03*
X120650000Y-99060000D03*
X130810000Y-96520000D03*
X120650000Y-101600000D03*
X130810000Y-93980000D03*
D18*
X142240000Y-92710000D03*
D12*
X152400000Y-92710000D03*
D18*
X158750000Y-92710000D03*
D12*
X168910000Y-92710000D03*
D18*
X142240000Y-99060000D03*
D12*
X152400000Y-99060000D03*
D18*
X158750000Y-99060000D03*
D12*
X168910000Y-99060000D03*
D18*
X142240000Y-105410000D03*
D12*
X152400000Y-105410000D03*
D18*
X158750000Y-105410000D03*
D12*
X168910000Y-105410000D03*
D19*
X161210000Y-120650000D03*
X166210000Y-120650000D03*
X156210000Y-120650000D03*
D20*
X190460000Y-120860000D03*
X187960000Y-120860000D03*
X185460000Y-120860000D03*
D21*
X169672000Y-113792000D03*
X152400000Y-105410000D03*
X162560000Y-103124000D03*
X166116000Y-112268000D03*
D22*
X121920000Y-113030000D02*
X121920000Y-112268000D01*
X121920000Y-112268000D02*
X124968000Y-109220000D01*
X124968000Y-109220000D02*
X173228000Y-109220000D01*
X173228000Y-109220000D02*
X173736000Y-108712000D01*
X173736000Y-108712000D02*
X173736000Y-103124000D01*
X173736000Y-103124000D02*
X169672000Y-99060000D01*
X169672000Y-99060000D02*
X168910000Y-99060000D01*
X138430000Y-115570000D02*
X138430000Y-113030000D01*
X129540000Y-113030000D02*
X138430000Y-113030000D01*
X120650000Y-96520000D02*
X122936000Y-96520000D01*
X140208000Y-99060000D02*
X142240000Y-99060000D01*
X136144000Y-103124000D02*
X140208000Y-99060000D01*
X129540000Y-103124000D02*
X136144000Y-103124000D01*
X122936000Y-96520000D02*
X129540000Y-103124000D01*
X158750000Y-92710000D02*
X155448000Y-96012000D01*
X145288000Y-96012000D02*
X142240000Y-99060000D01*
X155448000Y-96012000D02*
X145288000Y-96012000D01*
X190380000Y-93980000D02*
X190380000Y-90304000D01*
X162052000Y-89408000D02*
X158750000Y-92710000D01*
X189484000Y-89408000D02*
X162052000Y-89408000D01*
X190380000Y-90304000D02*
X189484000Y-89408000D01*
X148590000Y-120650000D02*
X150114000Y-120650000D01*
X161290000Y-96520000D02*
X158750000Y-99060000D01*
X173736000Y-96520000D02*
X161290000Y-96520000D01*
X175260000Y-98044000D02*
X173736000Y-96520000D01*
X175260000Y-110236000D02*
X175260000Y-98044000D01*
X174752000Y-110744000D02*
X175260000Y-110236000D01*
X160020000Y-110744000D02*
X174752000Y-110744000D01*
X150114000Y-120650000D02*
X160020000Y-110744000D01*
X148590000Y-118110000D02*
X148590000Y-115570000D01*
X138430000Y-118110000D02*
X140970000Y-118110000D01*
X187960000Y-122936000D02*
X187960000Y-120860000D01*
X187452000Y-123444000D02*
X187960000Y-122936000D01*
X146304000Y-123444000D02*
X187452000Y-123444000D01*
X140970000Y-118110000D02*
X146304000Y-123444000D01*
X173760000Y-118110000D02*
X173760000Y-117880000D01*
X173760000Y-117880000D02*
X169672000Y-113792000D01*
X185460000Y-120860000D02*
X185460000Y-115276000D01*
X147320000Y-88392000D02*
X143002000Y-92710000D01*
X192532000Y-88392000D02*
X147320000Y-88392000D01*
X192532000Y-108204000D02*
X192532000Y-88392000D01*
X185460000Y-115276000D02*
X192532000Y-108204000D01*
X143002000Y-92710000D02*
X142240000Y-92710000D01*
X142240000Y-92710000D02*
X142240000Y-91440000D01*
X137414000Y-64770000D02*
X144780000Y-64770000D01*
X134620000Y-67564000D02*
X137414000Y-64770000D01*
X134620000Y-83820000D02*
X134620000Y-67564000D01*
X142240000Y-91440000D02*
X134620000Y-83820000D01*
X120650000Y-93980000D02*
X130810000Y-93980000D01*
X166210000Y-120650000D02*
X166210000Y-112362000D01*
X154940000Y-101600000D02*
X152400000Y-99060000D01*
X161036000Y-101600000D02*
X154940000Y-101600000D01*
X162560000Y-103124000D02*
X161036000Y-101600000D01*
X166210000Y-112362000D02*
X166116000Y-112268000D01*
X120650000Y-101600000D02*
X120650000Y-102362000D01*
X120650000Y-102362000D02*
X122428000Y-104140000D01*
X122428000Y-104140000D02*
X137668000Y-104140000D01*
X137668000Y-104140000D02*
X140208000Y-101600000D01*
X140208000Y-101600000D02*
X149860000Y-101600000D01*
X149860000Y-101600000D02*
X152400000Y-99060000D01*
D23*
G36*
X194183000Y-62282606D02*
X194183000Y-121867394D01*
X192987394Y-123063000D01*
X188694738Y-123063000D01*
X188720000Y-122936000D01*
X188720000Y-122732038D01*
X188820317Y-122713162D01*
X189036441Y-122574090D01*
X189181431Y-122361890D01*
X189204609Y-122247436D01*
X189296673Y-122469699D01*
X189475302Y-122648327D01*
X189708691Y-122745000D01*
X190174250Y-122745000D01*
X190333000Y-122586250D01*
X190333000Y-120987000D01*
X190587000Y-120987000D01*
X190587000Y-122586250D01*
X190745750Y-122745000D01*
X191211309Y-122745000D01*
X191444698Y-122648327D01*
X191623327Y-122469699D01*
X191720000Y-122236310D01*
X191720000Y-121145750D01*
X191561250Y-120987000D01*
X190587000Y-120987000D01*
X190333000Y-120987000D01*
X190313000Y-120987000D01*
X190313000Y-120733000D01*
X190333000Y-120733000D01*
X190333000Y-119133750D01*
X190174250Y-118975000D01*
X189708691Y-118975000D01*
X189475302Y-119071673D01*
X189296673Y-119250301D01*
X189205964Y-119469292D01*
X189188162Y-119374683D01*
X189049090Y-119158559D01*
X188836890Y-119013569D01*
X188585000Y-118962560D01*
X187335000Y-118962560D01*
X187099683Y-119006838D01*
X186883559Y-119145910D01*
X186738569Y-119358110D01*
X186710824Y-119495120D01*
X186688162Y-119374683D01*
X186549090Y-119158559D01*
X186336890Y-119013569D01*
X186220000Y-118989898D01*
X186220000Y-118324873D01*
X190274812Y-118324873D01*
X190439646Y-118723800D01*
X190718055Y-119002695D01*
X190587000Y-119133750D01*
X190587000Y-120733000D01*
X191561250Y-120733000D01*
X191720000Y-120574250D01*
X191720000Y-119483690D01*
X191623327Y-119250301D01*
X191568208Y-119195182D01*
X191574873Y-119195188D01*
X191973800Y-119030354D01*
X192279282Y-118725405D01*
X192444811Y-118326767D01*
X192445188Y-117895127D01*
X192280354Y-117496200D01*
X191975405Y-117190718D01*
X191576767Y-117025189D01*
X191145127Y-117024812D01*
X190746200Y-117189646D01*
X190440718Y-117494595D01*
X190275189Y-117893233D01*
X190274812Y-118324873D01*
X186220000Y-118324873D01*
X186220000Y-115590802D01*
X193069401Y-108741401D01*
X193234148Y-108494840D01*
X193292000Y-108204000D01*
X193292000Y-88392000D01*
X193234148Y-88101161D01*
X193069401Y-87854599D01*
X192822839Y-87689852D01*
X192532000Y-87632000D01*
X147320000Y-87632000D01*
X147029161Y-87689852D01*
X146782599Y-87854599D01*
X143098434Y-91538764D01*
X143053923Y-91494176D01*
X143000000Y-91471785D01*
X143000000Y-91440000D01*
X142942148Y-91149161D01*
X142942148Y-91149160D01*
X142777401Y-90902599D01*
X135380000Y-83505198D01*
X135380000Y-79104817D01*
X136523570Y-79104817D01*
X137777671Y-82139973D01*
X140097813Y-84464168D01*
X143130775Y-85723564D01*
X146414817Y-85726430D01*
X149449973Y-84472329D01*
X151774168Y-82152187D01*
X153033564Y-79119225D01*
X153033576Y-79104817D01*
X156843570Y-79104817D01*
X158097671Y-82139973D01*
X160417813Y-84464168D01*
X163450775Y-85723564D01*
X166734817Y-85726430D01*
X169769973Y-84472329D01*
X172094168Y-82152187D01*
X173353564Y-79119225D01*
X173353576Y-79104817D01*
X177163570Y-79104817D01*
X178417671Y-82139973D01*
X180737813Y-84464168D01*
X183770775Y-85723564D01*
X187054817Y-85726430D01*
X190089973Y-84472329D01*
X192414168Y-82152187D01*
X193673564Y-79119225D01*
X193676430Y-75835183D01*
X192422329Y-72800027D01*
X190102187Y-70475832D01*
X187069225Y-69216436D01*
X183785183Y-69213570D01*
X180750027Y-70467671D01*
X178425832Y-72787813D01*
X177166436Y-75820775D01*
X177163570Y-79104817D01*
X173353576Y-79104817D01*
X173356430Y-75835183D01*
X172102329Y-72800027D01*
X169782187Y-70475832D01*
X166749225Y-69216436D01*
X163465183Y-69213570D01*
X160430027Y-70467671D01*
X158105832Y-72787813D01*
X156846436Y-75820775D01*
X156843570Y-79104817D01*
X153033576Y-79104817D01*
X153036430Y-75835183D01*
X151782329Y-72800027D01*
X149462187Y-70475832D01*
X146429225Y-69216436D01*
X143145183Y-69213570D01*
X140110027Y-70467671D01*
X137785832Y-72787813D01*
X136526436Y-75820775D01*
X136523570Y-79104817D01*
X135380000Y-79104817D01*
X135380000Y-67878802D01*
X137728802Y-65530000D01*
X141658671Y-65530000D01*
X142086796Y-66566143D01*
X142979159Y-67460065D01*
X144145683Y-67944448D01*
X145408776Y-67945550D01*
X146576143Y-67463204D01*
X147470065Y-66570841D01*
X147954448Y-65404317D01*
X147954452Y-65398776D01*
X161924450Y-65398776D01*
X162406796Y-66566143D01*
X163299159Y-67460065D01*
X164465683Y-67944448D01*
X165728776Y-67945550D01*
X166896143Y-67463204D01*
X167790065Y-66570841D01*
X168274448Y-65404317D01*
X168274452Y-65398776D01*
X182244450Y-65398776D01*
X182726796Y-66566143D01*
X183619159Y-67460065D01*
X184785683Y-67944448D01*
X186048776Y-67945550D01*
X187216143Y-67463204D01*
X188110065Y-66570841D01*
X188594448Y-65404317D01*
X188595550Y-64141224D01*
X188113204Y-62973857D01*
X187220841Y-62079935D01*
X186054317Y-61595552D01*
X184791224Y-61594450D01*
X183623857Y-62076796D01*
X182729935Y-62969159D01*
X182245552Y-64135683D01*
X182244450Y-65398776D01*
X168274452Y-65398776D01*
X168275550Y-64141224D01*
X167793204Y-62973857D01*
X166900841Y-62079935D01*
X165734317Y-61595552D01*
X164471224Y-61594450D01*
X163303857Y-62076796D01*
X162409935Y-62969159D01*
X161925552Y-64135683D01*
X161924450Y-65398776D01*
X147954452Y-65398776D01*
X147955550Y-64141224D01*
X147473204Y-62973857D01*
X146580841Y-62079935D01*
X145414317Y-61595552D01*
X144151224Y-61594450D01*
X142983857Y-62076796D01*
X142089935Y-62969159D01*
X141657740Y-64010000D01*
X137414000Y-64010000D01*
X137123161Y-64067852D01*
X136876599Y-64232599D01*
X134082599Y-67026599D01*
X133917852Y-67273161D01*
X133860000Y-67564000D01*
X133860000Y-83820000D01*
X133917852Y-84110839D01*
X134082599Y-84357401D01*
X141322986Y-91597788D01*
X141024176Y-91896077D01*
X140805250Y-92423309D01*
X140804752Y-92994187D01*
X141022757Y-93521800D01*
X141426077Y-93925824D01*
X141953309Y-94144750D01*
X142524187Y-94145248D01*
X143051800Y-93927243D01*
X143455824Y-93523923D01*
X143592833Y-93193969D01*
X144076802Y-92710000D01*
X150936887Y-92710000D01*
X151046120Y-93259151D01*
X151357189Y-93724698D01*
X151822736Y-94035767D01*
X152371887Y-94145000D01*
X152428113Y-94145000D01*
X152977264Y-94035767D01*
X153442811Y-93724698D01*
X153753880Y-93259151D01*
X153863113Y-92710000D01*
X153753880Y-92160849D01*
X153442811Y-91695302D01*
X152977264Y-91384233D01*
X152428113Y-91275000D01*
X152371887Y-91275000D01*
X151822736Y-91384233D01*
X151357189Y-91695302D01*
X151046120Y-92160849D01*
X150936887Y-92710000D01*
X144076802Y-92710000D01*
X147634802Y-89152000D01*
X161233198Y-89152000D01*
X159088454Y-91296744D01*
X159036691Y-91275250D01*
X158465813Y-91274752D01*
X157938200Y-91492757D01*
X157534176Y-91896077D01*
X157315250Y-92423309D01*
X157314752Y-92994187D01*
X157337049Y-93048149D01*
X155133198Y-95252000D01*
X145288000Y-95252000D01*
X144997161Y-95309852D01*
X144750599Y-95474599D01*
X142578454Y-97646744D01*
X142526691Y-97625250D01*
X141955813Y-97624752D01*
X141428200Y-97842757D01*
X141024176Y-98246077D01*
X141001785Y-98300000D01*
X140208000Y-98300000D01*
X139917161Y-98357852D01*
X139670599Y-98522599D01*
X135829198Y-102364000D01*
X132020322Y-102364000D01*
X132163880Y-102149151D01*
X132273113Y-101600000D01*
X132163880Y-101050849D01*
X131852811Y-100585302D01*
X131448297Y-100315014D01*
X131665134Y-100212389D01*
X132041041Y-99797423D01*
X132201904Y-99409039D01*
X132079915Y-99187000D01*
X130937000Y-99187000D01*
X130937000Y-99207000D01*
X130683000Y-99207000D01*
X130683000Y-99187000D01*
X129540085Y-99187000D01*
X129418096Y-99409039D01*
X129578959Y-99797423D01*
X129954866Y-100212389D01*
X130171703Y-100315014D01*
X129767189Y-100585302D01*
X129456120Y-101050849D01*
X129346887Y-101600000D01*
X129410474Y-101919672D01*
X124359841Y-96869039D01*
X129418096Y-96869039D01*
X129578959Y-97257423D01*
X129954866Y-97672389D01*
X130203367Y-97790000D01*
X129954866Y-97907611D01*
X129578959Y-98322577D01*
X129418096Y-98710961D01*
X129540085Y-98933000D01*
X130683000Y-98933000D01*
X130683000Y-96647000D01*
X130937000Y-96647000D01*
X130937000Y-98933000D01*
X132079915Y-98933000D01*
X132201904Y-98710961D01*
X132041041Y-98322577D01*
X131665134Y-97907611D01*
X131416633Y-97790000D01*
X131665134Y-97672389D01*
X132041041Y-97257423D01*
X132201904Y-96869039D01*
X132079915Y-96647000D01*
X130937000Y-96647000D01*
X130683000Y-96647000D01*
X129540085Y-96647000D01*
X129418096Y-96869039D01*
X124359841Y-96869039D01*
X123473401Y-95982599D01*
X123226839Y-95817852D01*
X122936000Y-95760000D01*
X121862995Y-95760000D01*
X121692811Y-95505302D01*
X121548535Y-95408899D01*
X121685317Y-95383162D01*
X121901441Y-95244090D01*
X122046431Y-95031890D01*
X122097440Y-94780000D01*
X122097440Y-94740000D01*
X129597005Y-94740000D01*
X129767189Y-94994698D01*
X130171703Y-95264986D01*
X129954866Y-95367611D01*
X129578959Y-95782577D01*
X129418096Y-96170961D01*
X129540085Y-96393000D01*
X130683000Y-96393000D01*
X130683000Y-96373000D01*
X130937000Y-96373000D01*
X130937000Y-96393000D01*
X132079915Y-96393000D01*
X132201904Y-96170961D01*
X132041041Y-95782577D01*
X131665134Y-95367611D01*
X131448297Y-95264986D01*
X131852811Y-94994698D01*
X132163880Y-94529151D01*
X132273113Y-93980000D01*
X132163880Y-93430849D01*
X131852811Y-92965302D01*
X131387264Y-92654233D01*
X130838113Y-92545000D01*
X130781887Y-92545000D01*
X130232736Y-92654233D01*
X129767189Y-92965302D01*
X129597005Y-93220000D01*
X122097440Y-93220000D01*
X122097440Y-93180000D01*
X122053162Y-92944683D01*
X121914090Y-92728559D01*
X121701890Y-92583569D01*
X121450000Y-92532560D01*
X119850000Y-92532560D01*
X119614683Y-92576838D01*
X119507000Y-92646130D01*
X119507000Y-82835750D01*
X124615000Y-82835750D01*
X124615000Y-84426309D01*
X124711673Y-84659698D01*
X124890301Y-84838327D01*
X125123690Y-84935000D01*
X126714250Y-84935000D01*
X126873000Y-84776250D01*
X126873000Y-82677000D01*
X127127000Y-82677000D01*
X127127000Y-84776250D01*
X127285750Y-84935000D01*
X128876310Y-84935000D01*
X129109699Y-84838327D01*
X129288327Y-84659698D01*
X129385000Y-84426309D01*
X129385000Y-82835750D01*
X129226250Y-82677000D01*
X127127000Y-82677000D01*
X126873000Y-82677000D01*
X124773750Y-82677000D01*
X124615000Y-82835750D01*
X119507000Y-82835750D01*
X119507000Y-77800000D01*
X119902560Y-77800000D01*
X119902560Y-81300000D01*
X119946838Y-81535317D01*
X120085910Y-81751441D01*
X120298110Y-81896431D01*
X120550000Y-81947440D01*
X124050000Y-81947440D01*
X124285317Y-81903162D01*
X124501441Y-81764090D01*
X124615000Y-81597891D01*
X124615000Y-82264250D01*
X124773750Y-82423000D01*
X126873000Y-82423000D01*
X126873000Y-80323750D01*
X127127000Y-80323750D01*
X127127000Y-82423000D01*
X129226250Y-82423000D01*
X129385000Y-82264250D01*
X129385000Y-80673691D01*
X129288327Y-80440302D01*
X129109699Y-80261673D01*
X128876310Y-80165000D01*
X127285750Y-80165000D01*
X127127000Y-80323750D01*
X126873000Y-80323750D01*
X126714250Y-80165000D01*
X125123690Y-80165000D01*
X124890301Y-80261673D01*
X124711673Y-80440302D01*
X124697440Y-80474663D01*
X124697440Y-78613955D01*
X124785910Y-78751441D01*
X124998110Y-78896431D01*
X125250000Y-78947440D01*
X128750000Y-78947440D01*
X128985317Y-78903162D01*
X129201441Y-78764090D01*
X129346431Y-78551890D01*
X129397440Y-78300000D01*
X129397440Y-74800000D01*
X129353162Y-74564683D01*
X129214090Y-74348559D01*
X129001890Y-74203569D01*
X128750000Y-74152560D01*
X125250000Y-74152560D01*
X125014683Y-74196838D01*
X124798559Y-74335910D01*
X124653569Y-74548110D01*
X124602560Y-74800000D01*
X124602560Y-77486045D01*
X124514090Y-77348559D01*
X124301890Y-77203569D01*
X124050000Y-77152560D01*
X120550000Y-77152560D01*
X120314683Y-77196838D01*
X120098559Y-77335910D01*
X119953569Y-77548110D01*
X119902560Y-77800000D01*
X119507000Y-77800000D01*
X119507000Y-62282606D01*
X120702606Y-61087000D01*
X192987394Y-61087000D01*
X194183000Y-62282606D01*
X194183000Y-62282606D01*
G37*
X194183000Y-62282606D02*
X194183000Y-121867394D01*
X192987394Y-123063000D01*
X188694738Y-123063000D01*
X188720000Y-122936000D01*
X188720000Y-122732038D01*
X188820317Y-122713162D01*
X189036441Y-122574090D01*
X189181431Y-122361890D01*
X189204609Y-122247436D01*
X189296673Y-122469699D01*
X189475302Y-122648327D01*
X189708691Y-122745000D01*
X190174250Y-122745000D01*
X190333000Y-122586250D01*
X190333000Y-120987000D01*
X190587000Y-120987000D01*
X190587000Y-122586250D01*
X190745750Y-122745000D01*
X191211309Y-122745000D01*
X191444698Y-122648327D01*
X191623327Y-122469699D01*
X191720000Y-122236310D01*
X191720000Y-121145750D01*
X191561250Y-120987000D01*
X190587000Y-120987000D01*
X190333000Y-120987000D01*
X190313000Y-120987000D01*
X190313000Y-120733000D01*
X190333000Y-120733000D01*
X190333000Y-119133750D01*
X190174250Y-118975000D01*
X189708691Y-118975000D01*
X189475302Y-119071673D01*
X189296673Y-119250301D01*
X189205964Y-119469292D01*
X189188162Y-119374683D01*
X189049090Y-119158559D01*
X188836890Y-119013569D01*
X188585000Y-118962560D01*
X187335000Y-118962560D01*
X187099683Y-119006838D01*
X186883559Y-119145910D01*
X186738569Y-119358110D01*
X186710824Y-119495120D01*
X186688162Y-119374683D01*
X186549090Y-119158559D01*
X186336890Y-119013569D01*
X186220000Y-118989898D01*
X186220000Y-118324873D01*
X190274812Y-118324873D01*
X190439646Y-118723800D01*
X190718055Y-119002695D01*
X190587000Y-119133750D01*
X190587000Y-120733000D01*
X191561250Y-120733000D01*
X191720000Y-120574250D01*
X191720000Y-119483690D01*
X191623327Y-119250301D01*
X191568208Y-119195182D01*
X191574873Y-119195188D01*
X191973800Y-119030354D01*
X192279282Y-118725405D01*
X192444811Y-118326767D01*
X192445188Y-117895127D01*
X192280354Y-117496200D01*
X191975405Y-117190718D01*
X191576767Y-117025189D01*
X191145127Y-117024812D01*
X190746200Y-117189646D01*
X190440718Y-117494595D01*
X190275189Y-117893233D01*
X190274812Y-118324873D01*
X186220000Y-118324873D01*
X186220000Y-115590802D01*
X193069401Y-108741401D01*
X193234148Y-108494840D01*
X193292000Y-108204000D01*
X193292000Y-88392000D01*
X193234148Y-88101161D01*
X193069401Y-87854599D01*
X192822839Y-87689852D01*
X192532000Y-87632000D01*
X147320000Y-87632000D01*
X147029161Y-87689852D01*
X146782599Y-87854599D01*
X143098434Y-91538764D01*
X143053923Y-91494176D01*
X143000000Y-91471785D01*
X143000000Y-91440000D01*
X142942148Y-91149161D01*
X142942148Y-91149160D01*
X142777401Y-90902599D01*
X135380000Y-83505198D01*
X135380000Y-79104817D01*
X136523570Y-79104817D01*
X137777671Y-82139973D01*
X140097813Y-84464168D01*
X143130775Y-85723564D01*
X146414817Y-85726430D01*
X149449973Y-84472329D01*
X151774168Y-82152187D01*
X153033564Y-79119225D01*
X153033576Y-79104817D01*
X156843570Y-79104817D01*
X158097671Y-82139973D01*
X160417813Y-84464168D01*
X163450775Y-85723564D01*
X166734817Y-85726430D01*
X169769973Y-84472329D01*
X172094168Y-82152187D01*
X173353564Y-79119225D01*
X173353576Y-79104817D01*
X177163570Y-79104817D01*
X178417671Y-82139973D01*
X180737813Y-84464168D01*
X183770775Y-85723564D01*
X187054817Y-85726430D01*
X190089973Y-84472329D01*
X192414168Y-82152187D01*
X193673564Y-79119225D01*
X193676430Y-75835183D01*
X192422329Y-72800027D01*
X190102187Y-70475832D01*
X187069225Y-69216436D01*
X183785183Y-69213570D01*
X180750027Y-70467671D01*
X178425832Y-72787813D01*
X177166436Y-75820775D01*
X177163570Y-79104817D01*
X173353576Y-79104817D01*
X173356430Y-75835183D01*
X172102329Y-72800027D01*
X169782187Y-70475832D01*
X166749225Y-69216436D01*
X163465183Y-69213570D01*
X160430027Y-70467671D01*
X158105832Y-72787813D01*
X156846436Y-75820775D01*
X156843570Y-79104817D01*
X153033576Y-79104817D01*
X153036430Y-75835183D01*
X151782329Y-72800027D01*
X149462187Y-70475832D01*
X146429225Y-69216436D01*
X143145183Y-69213570D01*
X140110027Y-70467671D01*
X137785832Y-72787813D01*
X136526436Y-75820775D01*
X136523570Y-79104817D01*
X135380000Y-79104817D01*
X135380000Y-67878802D01*
X137728802Y-65530000D01*
X141658671Y-65530000D01*
X142086796Y-66566143D01*
X142979159Y-67460065D01*
X144145683Y-67944448D01*
X145408776Y-67945550D01*
X146576143Y-67463204D01*
X147470065Y-66570841D01*
X147954448Y-65404317D01*
X147954452Y-65398776D01*
X161924450Y-65398776D01*
X162406796Y-66566143D01*
X163299159Y-67460065D01*
X164465683Y-67944448D01*
X165728776Y-67945550D01*
X166896143Y-67463204D01*
X167790065Y-66570841D01*
X168274448Y-65404317D01*
X168274452Y-65398776D01*
X182244450Y-65398776D01*
X182726796Y-66566143D01*
X183619159Y-67460065D01*
X184785683Y-67944448D01*
X186048776Y-67945550D01*
X187216143Y-67463204D01*
X188110065Y-66570841D01*
X188594448Y-65404317D01*
X188595550Y-64141224D01*
X188113204Y-62973857D01*
X187220841Y-62079935D01*
X186054317Y-61595552D01*
X184791224Y-61594450D01*
X183623857Y-62076796D01*
X182729935Y-62969159D01*
X182245552Y-64135683D01*
X182244450Y-65398776D01*
X168274452Y-65398776D01*
X168275550Y-64141224D01*
X167793204Y-62973857D01*
X166900841Y-62079935D01*
X165734317Y-61595552D01*
X164471224Y-61594450D01*
X163303857Y-62076796D01*
X162409935Y-62969159D01*
X161925552Y-64135683D01*
X161924450Y-65398776D01*
X147954452Y-65398776D01*
X147955550Y-64141224D01*
X147473204Y-62973857D01*
X146580841Y-62079935D01*
X145414317Y-61595552D01*
X144151224Y-61594450D01*
X142983857Y-62076796D01*
X142089935Y-62969159D01*
X141657740Y-64010000D01*
X137414000Y-64010000D01*
X137123161Y-64067852D01*
X136876599Y-64232599D01*
X134082599Y-67026599D01*
X133917852Y-67273161D01*
X133860000Y-67564000D01*
X133860000Y-83820000D01*
X133917852Y-84110839D01*
X134082599Y-84357401D01*
X141322986Y-91597788D01*
X141024176Y-91896077D01*
X140805250Y-92423309D01*
X140804752Y-92994187D01*
X141022757Y-93521800D01*
X141426077Y-93925824D01*
X141953309Y-94144750D01*
X142524187Y-94145248D01*
X143051800Y-93927243D01*
X143455824Y-93523923D01*
X143592833Y-93193969D01*
X144076802Y-92710000D01*
X150936887Y-92710000D01*
X151046120Y-93259151D01*
X151357189Y-93724698D01*
X151822736Y-94035767D01*
X152371887Y-94145000D01*
X152428113Y-94145000D01*
X152977264Y-94035767D01*
X153442811Y-93724698D01*
X153753880Y-93259151D01*
X153863113Y-92710000D01*
X153753880Y-92160849D01*
X153442811Y-91695302D01*
X152977264Y-91384233D01*
X152428113Y-91275000D01*
X152371887Y-91275000D01*
X151822736Y-91384233D01*
X151357189Y-91695302D01*
X151046120Y-92160849D01*
X150936887Y-92710000D01*
X144076802Y-92710000D01*
X147634802Y-89152000D01*
X161233198Y-89152000D01*
X159088454Y-91296744D01*
X159036691Y-91275250D01*
X158465813Y-91274752D01*
X157938200Y-91492757D01*
X157534176Y-91896077D01*
X157315250Y-92423309D01*
X157314752Y-92994187D01*
X157337049Y-93048149D01*
X155133198Y-95252000D01*
X145288000Y-95252000D01*
X144997161Y-95309852D01*
X144750599Y-95474599D01*
X142578454Y-97646744D01*
X142526691Y-97625250D01*
X141955813Y-97624752D01*
X141428200Y-97842757D01*
X141024176Y-98246077D01*
X141001785Y-98300000D01*
X140208000Y-98300000D01*
X139917161Y-98357852D01*
X139670599Y-98522599D01*
X135829198Y-102364000D01*
X132020322Y-102364000D01*
X132163880Y-102149151D01*
X132273113Y-101600000D01*
X132163880Y-101050849D01*
X131852811Y-100585302D01*
X131448297Y-100315014D01*
X131665134Y-100212389D01*
X132041041Y-99797423D01*
X132201904Y-99409039D01*
X132079915Y-99187000D01*
X130937000Y-99187000D01*
X130937000Y-99207000D01*
X130683000Y-99207000D01*
X130683000Y-99187000D01*
X129540085Y-99187000D01*
X129418096Y-99409039D01*
X129578959Y-99797423D01*
X129954866Y-100212389D01*
X130171703Y-100315014D01*
X129767189Y-100585302D01*
X129456120Y-101050849D01*
X129346887Y-101600000D01*
X129410474Y-101919672D01*
X124359841Y-96869039D01*
X129418096Y-96869039D01*
X129578959Y-97257423D01*
X129954866Y-97672389D01*
X130203367Y-97790000D01*
X129954866Y-97907611D01*
X129578959Y-98322577D01*
X129418096Y-98710961D01*
X129540085Y-98933000D01*
X130683000Y-98933000D01*
X130683000Y-96647000D01*
X130937000Y-96647000D01*
X130937000Y-98933000D01*
X132079915Y-98933000D01*
X132201904Y-98710961D01*
X132041041Y-98322577D01*
X131665134Y-97907611D01*
X131416633Y-97790000D01*
X131665134Y-97672389D01*
X132041041Y-97257423D01*
X132201904Y-96869039D01*
X132079915Y-96647000D01*
X130937000Y-96647000D01*
X130683000Y-96647000D01*
X129540085Y-96647000D01*
X129418096Y-96869039D01*
X124359841Y-96869039D01*
X123473401Y-95982599D01*
X123226839Y-95817852D01*
X122936000Y-95760000D01*
X121862995Y-95760000D01*
X121692811Y-95505302D01*
X121548535Y-95408899D01*
X121685317Y-95383162D01*
X121901441Y-95244090D01*
X122046431Y-95031890D01*
X122097440Y-94780000D01*
X122097440Y-94740000D01*
X129597005Y-94740000D01*
X129767189Y-94994698D01*
X130171703Y-95264986D01*
X129954866Y-95367611D01*
X129578959Y-95782577D01*
X129418096Y-96170961D01*
X129540085Y-96393000D01*
X130683000Y-96393000D01*
X130683000Y-96373000D01*
X130937000Y-96373000D01*
X130937000Y-96393000D01*
X132079915Y-96393000D01*
X132201904Y-96170961D01*
X132041041Y-95782577D01*
X131665134Y-95367611D01*
X131448297Y-95264986D01*
X131852811Y-94994698D01*
X132163880Y-94529151D01*
X132273113Y-93980000D01*
X132163880Y-93430849D01*
X131852811Y-92965302D01*
X131387264Y-92654233D01*
X130838113Y-92545000D01*
X130781887Y-92545000D01*
X130232736Y-92654233D01*
X129767189Y-92965302D01*
X129597005Y-93220000D01*
X122097440Y-93220000D01*
X122097440Y-93180000D01*
X122053162Y-92944683D01*
X121914090Y-92728559D01*
X121701890Y-92583569D01*
X121450000Y-92532560D01*
X119850000Y-92532560D01*
X119614683Y-92576838D01*
X119507000Y-92646130D01*
X119507000Y-82835750D01*
X124615000Y-82835750D01*
X124615000Y-84426309D01*
X124711673Y-84659698D01*
X124890301Y-84838327D01*
X125123690Y-84935000D01*
X126714250Y-84935000D01*
X126873000Y-84776250D01*
X126873000Y-82677000D01*
X127127000Y-82677000D01*
X127127000Y-84776250D01*
X127285750Y-84935000D01*
X128876310Y-84935000D01*
X129109699Y-84838327D01*
X129288327Y-84659698D01*
X129385000Y-84426309D01*
X129385000Y-82835750D01*
X129226250Y-82677000D01*
X127127000Y-82677000D01*
X126873000Y-82677000D01*
X124773750Y-82677000D01*
X124615000Y-82835750D01*
X119507000Y-82835750D01*
X119507000Y-77800000D01*
X119902560Y-77800000D01*
X119902560Y-81300000D01*
X119946838Y-81535317D01*
X120085910Y-81751441D01*
X120298110Y-81896431D01*
X120550000Y-81947440D01*
X124050000Y-81947440D01*
X124285317Y-81903162D01*
X124501441Y-81764090D01*
X124615000Y-81597891D01*
X124615000Y-82264250D01*
X124773750Y-82423000D01*
X126873000Y-82423000D01*
X126873000Y-80323750D01*
X127127000Y-80323750D01*
X127127000Y-82423000D01*
X129226250Y-82423000D01*
X129385000Y-82264250D01*
X129385000Y-80673691D01*
X129288327Y-80440302D01*
X129109699Y-80261673D01*
X128876310Y-80165000D01*
X127285750Y-80165000D01*
X127127000Y-80323750D01*
X126873000Y-80323750D01*
X126714250Y-80165000D01*
X125123690Y-80165000D01*
X124890301Y-80261673D01*
X124711673Y-80440302D01*
X124697440Y-80474663D01*
X124697440Y-78613955D01*
X124785910Y-78751441D01*
X124998110Y-78896431D01*
X125250000Y-78947440D01*
X128750000Y-78947440D01*
X128985317Y-78903162D01*
X129201441Y-78764090D01*
X129346431Y-78551890D01*
X129397440Y-78300000D01*
X129397440Y-74800000D01*
X129353162Y-74564683D01*
X129214090Y-74348559D01*
X129001890Y-74203569D01*
X128750000Y-74152560D01*
X125250000Y-74152560D01*
X125014683Y-74196838D01*
X124798559Y-74335910D01*
X124653569Y-74548110D01*
X124602560Y-74800000D01*
X124602560Y-77486045D01*
X124514090Y-77348559D01*
X124301890Y-77203569D01*
X124050000Y-77152560D01*
X120550000Y-77152560D01*
X120314683Y-77196838D01*
X120098559Y-77335910D01*
X119953569Y-77548110D01*
X119902560Y-77800000D01*
X119507000Y-77800000D01*
X119507000Y-62282606D01*
X120702606Y-61087000D01*
X192987394Y-61087000D01*
X194183000Y-62282606D01*
G36*
X189620000Y-90618802D02*
X189620000Y-92524953D01*
X189455057Y-92593106D01*
X188994722Y-93052637D01*
X188745284Y-93653352D01*
X188744716Y-94303795D01*
X188993106Y-94904943D01*
X189452637Y-95365278D01*
X190053352Y-95614716D01*
X190703795Y-95615284D01*
X191304943Y-95366894D01*
X191765278Y-94907363D01*
X191772000Y-94891175D01*
X191772000Y-102026187D01*
X191759387Y-101995736D01*
X191492532Y-101897073D01*
X190519605Y-102870000D01*
X191492532Y-103842927D01*
X191759387Y-103744264D01*
X191772000Y-103710314D01*
X191772000Y-107889198D01*
X184922599Y-114738599D01*
X184757852Y-114985161D01*
X184700000Y-115276000D01*
X184700000Y-117025122D01*
X184345127Y-117024812D01*
X183946200Y-117189646D01*
X183640718Y-117494595D01*
X183475189Y-117893233D01*
X183474812Y-118324873D01*
X183639646Y-118723800D01*
X183944595Y-119029282D01*
X184343233Y-119194811D01*
X184350142Y-119194817D01*
X184238569Y-119358110D01*
X184187560Y-119610000D01*
X184187560Y-122110000D01*
X184231838Y-122345317D01*
X184370910Y-122561441D01*
X184550281Y-122684000D01*
X146618802Y-122684000D01*
X141507401Y-117572599D01*
X141260839Y-117407852D01*
X140970000Y-117350000D01*
X139642995Y-117350000D01*
X139472811Y-117095302D01*
X139090725Y-116840000D01*
X139472811Y-116584698D01*
X139783880Y-116119151D01*
X139893113Y-115570000D01*
X147126887Y-115570000D01*
X147236120Y-116119151D01*
X147547189Y-116584698D01*
X147830000Y-116773667D01*
X147830000Y-116906333D01*
X147547189Y-117095302D01*
X147236120Y-117560849D01*
X147126887Y-118110000D01*
X147236120Y-118659151D01*
X147547189Y-119124698D01*
X147929275Y-119380000D01*
X147547189Y-119635302D01*
X147236120Y-120100849D01*
X147126887Y-120650000D01*
X147236120Y-121199151D01*
X147547189Y-121664698D01*
X148012736Y-121975767D01*
X148561887Y-122085000D01*
X148618113Y-122085000D01*
X149167264Y-121975767D01*
X149632811Y-121664698D01*
X149802995Y-121410000D01*
X150114000Y-121410000D01*
X150404839Y-121352148D01*
X150651401Y-121187401D01*
X150815497Y-121023305D01*
X154324674Y-121023305D01*
X154611043Y-121716372D01*
X155140839Y-122247093D01*
X155833405Y-122534672D01*
X156583305Y-122535326D01*
X157276372Y-122248957D01*
X157807093Y-121719161D01*
X158094672Y-121026595D01*
X158094674Y-121023305D01*
X159324674Y-121023305D01*
X159611043Y-121716372D01*
X160140839Y-122247093D01*
X160833405Y-122534672D01*
X161583305Y-122535326D01*
X162276372Y-122248957D01*
X162807093Y-121719161D01*
X163094672Y-121026595D01*
X163095326Y-120276695D01*
X162808957Y-119583628D01*
X162279161Y-119052907D01*
X161586595Y-118765328D01*
X160836695Y-118764674D01*
X160143628Y-119051043D01*
X159612907Y-119580839D01*
X159325328Y-120273405D01*
X159324674Y-121023305D01*
X158094674Y-121023305D01*
X158095326Y-120276695D01*
X157808957Y-119583628D01*
X157279161Y-119052907D01*
X156586595Y-118765328D01*
X155836695Y-118764674D01*
X155143628Y-119051043D01*
X154612907Y-119580839D01*
X154325328Y-120273405D01*
X154324674Y-121023305D01*
X150815497Y-121023305D01*
X160334802Y-111504000D01*
X165557889Y-111504000D01*
X165323808Y-111737673D01*
X165181162Y-112081201D01*
X165180838Y-112453167D01*
X165322883Y-112796943D01*
X165450000Y-112924282D01*
X165450000Y-118924453D01*
X165143628Y-119051043D01*
X164612907Y-119580839D01*
X164325328Y-120273405D01*
X164324674Y-121023305D01*
X164611043Y-121716372D01*
X165140839Y-122247093D01*
X165833405Y-122534672D01*
X166583305Y-122535326D01*
X167276372Y-122248957D01*
X167807093Y-121719161D01*
X168094672Y-121026595D01*
X168095326Y-120276695D01*
X167808957Y-119583628D01*
X167279161Y-119052907D01*
X166970000Y-118924532D01*
X166970000Y-113977167D01*
X168736838Y-113977167D01*
X168878883Y-114320943D01*
X169141673Y-114584192D01*
X169485201Y-114726838D01*
X169532077Y-114726879D01*
X172362560Y-117557362D01*
X172362560Y-119410000D01*
X172406838Y-119645317D01*
X172545910Y-119861441D01*
X172758110Y-120006431D01*
X173010000Y-120057440D01*
X174510000Y-120057440D01*
X174745317Y-120013162D01*
X174961441Y-119874090D01*
X175106431Y-119661890D01*
X175157440Y-119410000D01*
X175157440Y-118395750D01*
X175375000Y-118395750D01*
X175375000Y-119536310D01*
X175471673Y-119769699D01*
X175650302Y-119948327D01*
X175883691Y-120045000D01*
X176474250Y-120045000D01*
X176633000Y-119886250D01*
X176633000Y-118237000D01*
X176887000Y-118237000D01*
X176887000Y-119886250D01*
X177045750Y-120045000D01*
X177636309Y-120045000D01*
X177869698Y-119948327D01*
X178048327Y-119769699D01*
X178145000Y-119536310D01*
X178145000Y-118395750D01*
X177986250Y-118237000D01*
X176887000Y-118237000D01*
X176633000Y-118237000D01*
X175533750Y-118237000D01*
X175375000Y-118395750D01*
X175157440Y-118395750D01*
X175157440Y-116810000D01*
X175133674Y-116683690D01*
X175375000Y-116683690D01*
X175375000Y-117824250D01*
X175533750Y-117983000D01*
X176633000Y-117983000D01*
X176633000Y-116333750D01*
X176887000Y-116333750D01*
X176887000Y-117983000D01*
X177986250Y-117983000D01*
X178145000Y-117824250D01*
X178145000Y-116683690D01*
X178048327Y-116450301D01*
X177869698Y-116271673D01*
X177636309Y-116175000D01*
X177045750Y-116175000D01*
X176887000Y-116333750D01*
X176633000Y-116333750D01*
X176474250Y-116175000D01*
X175883691Y-116175000D01*
X175650302Y-116271673D01*
X175471673Y-116450301D01*
X175375000Y-116683690D01*
X175133674Y-116683690D01*
X175113162Y-116574683D01*
X174974090Y-116358559D01*
X174761890Y-116213569D01*
X174510000Y-116162560D01*
X173117362Y-116162560D01*
X170607122Y-113652320D01*
X170607162Y-113606833D01*
X170465117Y-113263057D01*
X170202327Y-112999808D01*
X169858799Y-112857162D01*
X169486833Y-112856838D01*
X169143057Y-112998883D01*
X168879808Y-113261673D01*
X168737162Y-113605201D01*
X168736838Y-113977167D01*
X166970000Y-113977167D01*
X166970000Y-112649478D01*
X167050838Y-112454799D01*
X167051162Y-112082833D01*
X166909117Y-111739057D01*
X166674470Y-111504000D01*
X174752000Y-111504000D01*
X175042839Y-111446148D01*
X175289401Y-111281401D01*
X175797401Y-110773401D01*
X175962147Y-110526840D01*
X175962148Y-110526839D01*
X176020000Y-110236000D01*
X176020000Y-103193795D01*
X178704716Y-103193795D01*
X178953106Y-103794943D01*
X179412637Y-104255278D01*
X180013352Y-104504716D01*
X180663795Y-104505284D01*
X181264943Y-104256894D01*
X181499715Y-104022532D01*
X189367073Y-104022532D01*
X189465736Y-104289387D01*
X190075461Y-104515908D01*
X190725460Y-104491856D01*
X191214264Y-104289387D01*
X191312927Y-104022532D01*
X190340000Y-103049605D01*
X189367073Y-104022532D01*
X181499715Y-104022532D01*
X181725278Y-103797363D01*
X181974716Y-103196648D01*
X181975232Y-102605461D01*
X188694092Y-102605461D01*
X188718144Y-103255460D01*
X188920613Y-103744264D01*
X189187468Y-103842927D01*
X190160395Y-102870000D01*
X189187468Y-101897073D01*
X188920613Y-101995736D01*
X188694092Y-102605461D01*
X181975232Y-102605461D01*
X181975284Y-102546205D01*
X181726894Y-101945057D01*
X181499703Y-101717468D01*
X189367073Y-101717468D01*
X190340000Y-102690395D01*
X191312927Y-101717468D01*
X191214264Y-101450613D01*
X190604539Y-101224092D01*
X189954540Y-101248144D01*
X189465736Y-101450613D01*
X189367073Y-101717468D01*
X181499703Y-101717468D01*
X181267363Y-101484722D01*
X180666648Y-101235284D01*
X180016205Y-101234716D01*
X179415057Y-101483106D01*
X178954722Y-101942637D01*
X178705284Y-102543352D01*
X178704716Y-103193795D01*
X176020000Y-103193795D01*
X176020000Y-98044000D01*
X175962148Y-97753161D01*
X175962148Y-97753160D01*
X175797401Y-97506599D01*
X174273401Y-95982599D01*
X174026839Y-95817852D01*
X173736000Y-95760000D01*
X161290000Y-95760000D01*
X161047414Y-95808254D01*
X160999160Y-95817852D01*
X160752599Y-95982599D01*
X159088454Y-97646744D01*
X159036691Y-97625250D01*
X158465813Y-97624752D01*
X157938200Y-97842757D01*
X157534176Y-98246077D01*
X157315250Y-98773309D01*
X157314752Y-99344187D01*
X157532757Y-99871800D01*
X157936077Y-100275824D01*
X158463309Y-100494750D01*
X159034187Y-100495248D01*
X159561800Y-100277243D01*
X159965824Y-99873923D01*
X160184750Y-99346691D01*
X160185248Y-98775813D01*
X160162951Y-98721851D01*
X161604802Y-97280000D01*
X173421198Y-97280000D01*
X174500000Y-98358802D01*
X174500000Y-109921198D01*
X174437198Y-109984000D01*
X160020000Y-109984000D01*
X159729161Y-110041852D01*
X159482599Y-110206599D01*
X149801474Y-119887724D01*
X149632811Y-119635302D01*
X149250725Y-119380000D01*
X149632811Y-119124698D01*
X149943880Y-118659151D01*
X150053113Y-118110000D01*
X149943880Y-117560849D01*
X149632811Y-117095302D01*
X149350000Y-116906333D01*
X149350000Y-116773667D01*
X149632811Y-116584698D01*
X149943880Y-116119151D01*
X150053113Y-115570000D01*
X149943880Y-115020849D01*
X149632811Y-114555302D01*
X149228297Y-114285014D01*
X149445134Y-114182389D01*
X149821041Y-113767423D01*
X149981904Y-113379039D01*
X149859915Y-113157000D01*
X148717000Y-113157000D01*
X148717000Y-113177000D01*
X148463000Y-113177000D01*
X148463000Y-113157000D01*
X147320085Y-113157000D01*
X147198096Y-113379039D01*
X147358959Y-113767423D01*
X147734866Y-114182389D01*
X147951703Y-114285014D01*
X147547189Y-114555302D01*
X147236120Y-115020849D01*
X147126887Y-115570000D01*
X139893113Y-115570000D01*
X139783880Y-115020849D01*
X139472811Y-114555302D01*
X139328535Y-114458899D01*
X139465317Y-114433162D01*
X139681441Y-114294090D01*
X139826431Y-114081890D01*
X139877440Y-113830000D01*
X139877440Y-112680961D01*
X147198096Y-112680961D01*
X147320085Y-112903000D01*
X148463000Y-112903000D01*
X148463000Y-111759371D01*
X148717000Y-111759371D01*
X148717000Y-112903000D01*
X149859915Y-112903000D01*
X149981904Y-112680961D01*
X149821041Y-112292577D01*
X149445134Y-111877611D01*
X148939041Y-111638086D01*
X148717000Y-111759371D01*
X148463000Y-111759371D01*
X148240959Y-111638086D01*
X147734866Y-111877611D01*
X147358959Y-112292577D01*
X147198096Y-112680961D01*
X139877440Y-112680961D01*
X139877440Y-112230000D01*
X139833162Y-111994683D01*
X139694090Y-111778559D01*
X139481890Y-111633569D01*
X139230000Y-111582560D01*
X137630000Y-111582560D01*
X137394683Y-111626838D01*
X137178559Y-111765910D01*
X137033569Y-111978110D01*
X136982560Y-112230000D01*
X136982560Y-112270000D01*
X130752995Y-112270000D01*
X130582811Y-112015302D01*
X130117264Y-111704233D01*
X129568113Y-111595000D01*
X129511887Y-111595000D01*
X128962736Y-111704233D01*
X128497189Y-112015302D01*
X128186120Y-112480849D01*
X128076887Y-113030000D01*
X128186120Y-113579151D01*
X128497189Y-114044698D01*
X128879275Y-114300000D01*
X128497189Y-114555302D01*
X128186120Y-115020849D01*
X128076887Y-115570000D01*
X128186120Y-116119151D01*
X128497189Y-116584698D01*
X128879275Y-116840000D01*
X128497189Y-117095302D01*
X128186120Y-117560849D01*
X128076887Y-118110000D01*
X128186120Y-118659151D01*
X128497189Y-119124698D01*
X128901703Y-119394986D01*
X128684866Y-119497611D01*
X128308959Y-119912577D01*
X128148096Y-120300961D01*
X128270085Y-120523000D01*
X129413000Y-120523000D01*
X129413000Y-120503000D01*
X129667000Y-120503000D01*
X129667000Y-120523000D01*
X130809915Y-120523000D01*
X130931904Y-120300961D01*
X130771041Y-119912577D01*
X130395134Y-119497611D01*
X130178297Y-119394986D01*
X130582811Y-119124698D01*
X130893880Y-118659151D01*
X131003113Y-118110000D01*
X130893880Y-117560849D01*
X130582811Y-117095302D01*
X130200725Y-116840000D01*
X130582811Y-116584698D01*
X130893880Y-116119151D01*
X131003113Y-115570000D01*
X130893880Y-115020849D01*
X130582811Y-114555302D01*
X130200725Y-114300000D01*
X130582811Y-114044698D01*
X130752995Y-113790000D01*
X136982560Y-113790000D01*
X136982560Y-113830000D01*
X137026838Y-114065317D01*
X137165910Y-114281441D01*
X137378110Y-114426431D01*
X137533089Y-114457815D01*
X137387189Y-114555302D01*
X137076120Y-115020849D01*
X136966887Y-115570000D01*
X137076120Y-116119151D01*
X137387189Y-116584698D01*
X137769275Y-116840000D01*
X137387189Y-117095302D01*
X137076120Y-117560849D01*
X136966887Y-118110000D01*
X137076120Y-118659151D01*
X137387189Y-119124698D01*
X137769275Y-119380000D01*
X137387189Y-119635302D01*
X137076120Y-120100849D01*
X136966887Y-120650000D01*
X137076120Y-121199151D01*
X137387189Y-121664698D01*
X137852736Y-121975767D01*
X138401887Y-122085000D01*
X138458113Y-122085000D01*
X139007264Y-121975767D01*
X139472811Y-121664698D01*
X139783880Y-121199151D01*
X139893113Y-120650000D01*
X139783880Y-120100849D01*
X139472811Y-119635302D01*
X139090725Y-119380000D01*
X139472811Y-119124698D01*
X139642995Y-118870000D01*
X140655198Y-118870000D01*
X144848198Y-123063000D01*
X120702606Y-123063000D01*
X119507000Y-121867394D01*
X119507000Y-120999039D01*
X120528096Y-120999039D01*
X120688959Y-121387423D01*
X121064866Y-121802389D01*
X121570959Y-122041914D01*
X121793000Y-121920629D01*
X121793000Y-120777000D01*
X122047000Y-120777000D01*
X122047000Y-121920629D01*
X122269041Y-122041914D01*
X122775134Y-121802389D01*
X123151041Y-121387423D01*
X123311904Y-120999039D01*
X128148096Y-120999039D01*
X128308959Y-121387423D01*
X128684866Y-121802389D01*
X129190959Y-122041914D01*
X129413000Y-121920629D01*
X129413000Y-120777000D01*
X129667000Y-120777000D01*
X129667000Y-121920629D01*
X129889041Y-122041914D01*
X130395134Y-121802389D01*
X130771041Y-121387423D01*
X130931904Y-120999039D01*
X130809915Y-120777000D01*
X129667000Y-120777000D01*
X129413000Y-120777000D01*
X128270085Y-120777000D01*
X128148096Y-120999039D01*
X123311904Y-120999039D01*
X123189915Y-120777000D01*
X122047000Y-120777000D01*
X121793000Y-120777000D01*
X120650085Y-120777000D01*
X120528096Y-120999039D01*
X119507000Y-120999039D01*
X119507000Y-115570000D01*
X120456887Y-115570000D01*
X120566120Y-116119151D01*
X120877189Y-116584698D01*
X121259275Y-116840000D01*
X120877189Y-117095302D01*
X120566120Y-117560849D01*
X120456887Y-118110000D01*
X120566120Y-118659151D01*
X120877189Y-119124698D01*
X121281703Y-119394986D01*
X121064866Y-119497611D01*
X120688959Y-119912577D01*
X120528096Y-120300961D01*
X120650085Y-120523000D01*
X121793000Y-120523000D01*
X121793000Y-120503000D01*
X122047000Y-120503000D01*
X122047000Y-120523000D01*
X123189915Y-120523000D01*
X123311904Y-120300961D01*
X123151041Y-119912577D01*
X122775134Y-119497611D01*
X122558297Y-119394986D01*
X122962811Y-119124698D01*
X123273880Y-118659151D01*
X123383113Y-118110000D01*
X123273880Y-117560849D01*
X122962811Y-117095302D01*
X122580725Y-116840000D01*
X122962811Y-116584698D01*
X123273880Y-116119151D01*
X123383113Y-115570000D01*
X123273880Y-115020849D01*
X122962811Y-114555302D01*
X122818535Y-114458899D01*
X122955317Y-114433162D01*
X123171441Y-114294090D01*
X123316431Y-114081890D01*
X123367440Y-113830000D01*
X123367440Y-112230000D01*
X123323162Y-111994683D01*
X123301611Y-111961191D01*
X125282802Y-109980000D01*
X173228000Y-109980000D01*
X173518839Y-109922148D01*
X173765401Y-109757401D01*
X174273401Y-109249401D01*
X174438147Y-109002840D01*
X174438148Y-109002839D01*
X174496000Y-108712000D01*
X174496000Y-103124000D01*
X174438148Y-102833161D01*
X174273401Y-102586599D01*
X170280325Y-98593523D01*
X170263880Y-98510849D01*
X169952811Y-98045302D01*
X169487264Y-97734233D01*
X168938113Y-97625000D01*
X168881887Y-97625000D01*
X168332736Y-97734233D01*
X167867189Y-98045302D01*
X167556120Y-98510849D01*
X167446887Y-99060000D01*
X167556120Y-99609151D01*
X167867189Y-100074698D01*
X168332736Y-100385767D01*
X168881887Y-100495000D01*
X168938113Y-100495000D01*
X169487264Y-100385767D01*
X169748448Y-100211250D01*
X172976000Y-103438802D01*
X172976000Y-108397198D01*
X172913198Y-108460000D01*
X124968000Y-108460000D01*
X124677161Y-108517852D01*
X124430599Y-108682599D01*
X121530638Y-111582560D01*
X121120000Y-111582560D01*
X120884683Y-111626838D01*
X120668559Y-111765910D01*
X120523569Y-111978110D01*
X120472560Y-112230000D01*
X120472560Y-113830000D01*
X120516838Y-114065317D01*
X120655910Y-114281441D01*
X120868110Y-114426431D01*
X121023089Y-114457815D01*
X120877189Y-114555302D01*
X120566120Y-115020849D01*
X120456887Y-115570000D01*
X119507000Y-115570000D01*
X119507000Y-105694187D01*
X140804752Y-105694187D01*
X141022757Y-106221800D01*
X141426077Y-106625824D01*
X141953309Y-106844750D01*
X142524187Y-106845248D01*
X143051800Y-106627243D01*
X143455824Y-106223923D01*
X143674750Y-105696691D01*
X143675000Y-105410000D01*
X150936887Y-105410000D01*
X151046120Y-105959151D01*
X151357189Y-106424698D01*
X151822736Y-106735767D01*
X152371887Y-106845000D01*
X152428113Y-106845000D01*
X152977264Y-106735767D01*
X153442811Y-106424698D01*
X153753880Y-105959151D01*
X153806584Y-105694187D01*
X157314752Y-105694187D01*
X157532757Y-106221800D01*
X157936077Y-106625824D01*
X158463309Y-106844750D01*
X159034187Y-106845248D01*
X159561800Y-106627243D01*
X159965824Y-106223923D01*
X160184750Y-105696691D01*
X160185000Y-105410000D01*
X167446887Y-105410000D01*
X167556120Y-105959151D01*
X167867189Y-106424698D01*
X168332736Y-106735767D01*
X168881887Y-106845000D01*
X168938113Y-106845000D01*
X169487264Y-106735767D01*
X169952811Y-106424698D01*
X170263880Y-105959151D01*
X170373113Y-105410000D01*
X170263880Y-104860849D01*
X169952811Y-104395302D01*
X169487264Y-104084233D01*
X168938113Y-103975000D01*
X168881887Y-103975000D01*
X168332736Y-104084233D01*
X167867189Y-104395302D01*
X167556120Y-104860849D01*
X167446887Y-105410000D01*
X160185000Y-105410000D01*
X160185248Y-105125813D01*
X159967243Y-104598200D01*
X159563923Y-104194176D01*
X159036691Y-103975250D01*
X158465813Y-103974752D01*
X157938200Y-104192757D01*
X157534176Y-104596077D01*
X157315250Y-105123309D01*
X157314752Y-105694187D01*
X153806584Y-105694187D01*
X153863113Y-105410000D01*
X153753880Y-104860849D01*
X153442811Y-104395302D01*
X152977264Y-104084233D01*
X152428113Y-103975000D01*
X152371887Y-103975000D01*
X151822736Y-104084233D01*
X151357189Y-104395302D01*
X151046120Y-104860849D01*
X150936887Y-105410000D01*
X143675000Y-105410000D01*
X143675248Y-105125813D01*
X143457243Y-104598200D01*
X143053923Y-104194176D01*
X142526691Y-103975250D01*
X141955813Y-103974752D01*
X141428200Y-104192757D01*
X141024176Y-104596077D01*
X140805250Y-105123309D01*
X140804752Y-105694187D01*
X119507000Y-105694187D01*
X119507000Y-102464755D01*
X119607189Y-102614698D01*
X120072736Y-102925767D01*
X120155410Y-102942212D01*
X121890599Y-104677401D01*
X122137161Y-104842148D01*
X122428000Y-104900000D01*
X137668000Y-104900000D01*
X137958839Y-104842148D01*
X138205401Y-104677401D01*
X140522802Y-102360000D01*
X149860000Y-102360000D01*
X150150839Y-102302148D01*
X150397401Y-102137401D01*
X152094898Y-100439904D01*
X152371887Y-100495000D01*
X152428113Y-100495000D01*
X152705102Y-100439904D01*
X154402599Y-102137401D01*
X154649160Y-102302148D01*
X154697414Y-102311746D01*
X154940000Y-102360000D01*
X160721198Y-102360000D01*
X161624878Y-103263680D01*
X161624838Y-103309167D01*
X161766883Y-103652943D01*
X162029673Y-103916192D01*
X162373201Y-104058838D01*
X162745167Y-104059162D01*
X163088943Y-103917117D01*
X163352192Y-103654327D01*
X163494838Y-103310799D01*
X163495162Y-102938833D01*
X163353117Y-102595057D01*
X163090327Y-102331808D01*
X162746799Y-102189162D01*
X162699923Y-102189121D01*
X161573401Y-101062599D01*
X161326839Y-100897852D01*
X161036000Y-100840000D01*
X155254802Y-100840000D01*
X153798688Y-99383886D01*
X153863113Y-99060000D01*
X153753880Y-98510849D01*
X153442811Y-98045302D01*
X152977264Y-97734233D01*
X152428113Y-97625000D01*
X152371887Y-97625000D01*
X151822736Y-97734233D01*
X151357189Y-98045302D01*
X151046120Y-98510849D01*
X150936887Y-99060000D01*
X151001312Y-99383886D01*
X149545198Y-100840000D01*
X140208000Y-100840000D01*
X139965414Y-100888254D01*
X139917160Y-100897852D01*
X139670599Y-101062599D01*
X137353198Y-103380000D01*
X136962802Y-103380000D01*
X140522802Y-99820000D01*
X141001354Y-99820000D01*
X141022757Y-99871800D01*
X141426077Y-100275824D01*
X141953309Y-100494750D01*
X142524187Y-100495248D01*
X143051800Y-100277243D01*
X143455824Y-99873923D01*
X143674750Y-99346691D01*
X143675248Y-98775813D01*
X143652951Y-98721851D01*
X145602802Y-96772000D01*
X155448000Y-96772000D01*
X155738839Y-96714148D01*
X155985401Y-96549401D01*
X157402270Y-95132532D01*
X181907073Y-95132532D01*
X182005736Y-95399387D01*
X182615461Y-95625908D01*
X183265460Y-95601856D01*
X183754264Y-95399387D01*
X183852927Y-95132532D01*
X182880000Y-94159605D01*
X181907073Y-95132532D01*
X157402270Y-95132532D01*
X158411546Y-94123256D01*
X158463309Y-94144750D01*
X159034187Y-94145248D01*
X159561800Y-93927243D01*
X159965824Y-93523923D01*
X160158860Y-93059039D01*
X167518096Y-93059039D01*
X167678959Y-93447423D01*
X168054866Y-93862389D01*
X168560959Y-94101914D01*
X168783000Y-93980629D01*
X168783000Y-92837000D01*
X169037000Y-92837000D01*
X169037000Y-93980629D01*
X169259041Y-94101914D01*
X169765134Y-93862389D01*
X169898232Y-93715461D01*
X181234092Y-93715461D01*
X181258144Y-94365460D01*
X181460613Y-94854264D01*
X181727468Y-94952927D01*
X182700395Y-93980000D01*
X183059605Y-93980000D01*
X184032532Y-94952927D01*
X184299387Y-94854264D01*
X184525908Y-94244539D01*
X184501856Y-93594540D01*
X184299387Y-93105736D01*
X184032532Y-93007073D01*
X183059605Y-93980000D01*
X182700395Y-93980000D01*
X181727468Y-93007073D01*
X181460613Y-93105736D01*
X181234092Y-93715461D01*
X169898232Y-93715461D01*
X170141041Y-93447423D01*
X170301904Y-93059039D01*
X170179915Y-92837000D01*
X169037000Y-92837000D01*
X168783000Y-92837000D01*
X167640085Y-92837000D01*
X167518096Y-93059039D01*
X160158860Y-93059039D01*
X160184750Y-92996691D01*
X160184897Y-92827468D01*
X181907073Y-92827468D01*
X182880000Y-93800395D01*
X183852927Y-92827468D01*
X183754264Y-92560613D01*
X183144539Y-92334092D01*
X182494540Y-92358144D01*
X182005736Y-92560613D01*
X181907073Y-92827468D01*
X160184897Y-92827468D01*
X160185248Y-92425813D01*
X160162951Y-92371851D01*
X160173841Y-92360961D01*
X167518096Y-92360961D01*
X167640085Y-92583000D01*
X168783000Y-92583000D01*
X168783000Y-91439371D01*
X169037000Y-91439371D01*
X169037000Y-92583000D01*
X170179915Y-92583000D01*
X170301904Y-92360961D01*
X170141041Y-91972577D01*
X169765134Y-91557611D01*
X169259041Y-91318086D01*
X169037000Y-91439371D01*
X168783000Y-91439371D01*
X168560959Y-91318086D01*
X168054866Y-91557611D01*
X167678959Y-91972577D01*
X167518096Y-92360961D01*
X160173841Y-92360961D01*
X162366802Y-90168000D01*
X189169198Y-90168000D01*
X189620000Y-90618802D01*
X189620000Y-90618802D01*
G37*
X189620000Y-90618802D02*
X189620000Y-92524953D01*
X189455057Y-92593106D01*
X188994722Y-93052637D01*
X188745284Y-93653352D01*
X188744716Y-94303795D01*
X188993106Y-94904943D01*
X189452637Y-95365278D01*
X190053352Y-95614716D01*
X190703795Y-95615284D01*
X191304943Y-95366894D01*
X191765278Y-94907363D01*
X191772000Y-94891175D01*
X191772000Y-102026187D01*
X191759387Y-101995736D01*
X191492532Y-101897073D01*
X190519605Y-102870000D01*
X191492532Y-103842927D01*
X191759387Y-103744264D01*
X191772000Y-103710314D01*
X191772000Y-107889198D01*
X184922599Y-114738599D01*
X184757852Y-114985161D01*
X184700000Y-115276000D01*
X184700000Y-117025122D01*
X184345127Y-117024812D01*
X183946200Y-117189646D01*
X183640718Y-117494595D01*
X183475189Y-117893233D01*
X183474812Y-118324873D01*
X183639646Y-118723800D01*
X183944595Y-119029282D01*
X184343233Y-119194811D01*
X184350142Y-119194817D01*
X184238569Y-119358110D01*
X184187560Y-119610000D01*
X184187560Y-122110000D01*
X184231838Y-122345317D01*
X184370910Y-122561441D01*
X184550281Y-122684000D01*
X146618802Y-122684000D01*
X141507401Y-117572599D01*
X141260839Y-117407852D01*
X140970000Y-117350000D01*
X139642995Y-117350000D01*
X139472811Y-117095302D01*
X139090725Y-116840000D01*
X139472811Y-116584698D01*
X139783880Y-116119151D01*
X139893113Y-115570000D01*
X147126887Y-115570000D01*
X147236120Y-116119151D01*
X147547189Y-116584698D01*
X147830000Y-116773667D01*
X147830000Y-116906333D01*
X147547189Y-117095302D01*
X147236120Y-117560849D01*
X147126887Y-118110000D01*
X147236120Y-118659151D01*
X147547189Y-119124698D01*
X147929275Y-119380000D01*
X147547189Y-119635302D01*
X147236120Y-120100849D01*
X147126887Y-120650000D01*
X147236120Y-121199151D01*
X147547189Y-121664698D01*
X148012736Y-121975767D01*
X148561887Y-122085000D01*
X148618113Y-122085000D01*
X149167264Y-121975767D01*
X149632811Y-121664698D01*
X149802995Y-121410000D01*
X150114000Y-121410000D01*
X150404839Y-121352148D01*
X150651401Y-121187401D01*
X150815497Y-121023305D01*
X154324674Y-121023305D01*
X154611043Y-121716372D01*
X155140839Y-122247093D01*
X155833405Y-122534672D01*
X156583305Y-122535326D01*
X157276372Y-122248957D01*
X157807093Y-121719161D01*
X158094672Y-121026595D01*
X158094674Y-121023305D01*
X159324674Y-121023305D01*
X159611043Y-121716372D01*
X160140839Y-122247093D01*
X160833405Y-122534672D01*
X161583305Y-122535326D01*
X162276372Y-122248957D01*
X162807093Y-121719161D01*
X163094672Y-121026595D01*
X163095326Y-120276695D01*
X162808957Y-119583628D01*
X162279161Y-119052907D01*
X161586595Y-118765328D01*
X160836695Y-118764674D01*
X160143628Y-119051043D01*
X159612907Y-119580839D01*
X159325328Y-120273405D01*
X159324674Y-121023305D01*
X158094674Y-121023305D01*
X158095326Y-120276695D01*
X157808957Y-119583628D01*
X157279161Y-119052907D01*
X156586595Y-118765328D01*
X155836695Y-118764674D01*
X155143628Y-119051043D01*
X154612907Y-119580839D01*
X154325328Y-120273405D01*
X154324674Y-121023305D01*
X150815497Y-121023305D01*
X160334802Y-111504000D01*
X165557889Y-111504000D01*
X165323808Y-111737673D01*
X165181162Y-112081201D01*
X165180838Y-112453167D01*
X165322883Y-112796943D01*
X165450000Y-112924282D01*
X165450000Y-118924453D01*
X165143628Y-119051043D01*
X164612907Y-119580839D01*
X164325328Y-120273405D01*
X164324674Y-121023305D01*
X164611043Y-121716372D01*
X165140839Y-122247093D01*
X165833405Y-122534672D01*
X166583305Y-122535326D01*
X167276372Y-122248957D01*
X167807093Y-121719161D01*
X168094672Y-121026595D01*
X168095326Y-120276695D01*
X167808957Y-119583628D01*
X167279161Y-119052907D01*
X166970000Y-118924532D01*
X166970000Y-113977167D01*
X168736838Y-113977167D01*
X168878883Y-114320943D01*
X169141673Y-114584192D01*
X169485201Y-114726838D01*
X169532077Y-114726879D01*
X172362560Y-117557362D01*
X172362560Y-119410000D01*
X172406838Y-119645317D01*
X172545910Y-119861441D01*
X172758110Y-120006431D01*
X173010000Y-120057440D01*
X174510000Y-120057440D01*
X174745317Y-120013162D01*
X174961441Y-119874090D01*
X175106431Y-119661890D01*
X175157440Y-119410000D01*
X175157440Y-118395750D01*
X175375000Y-118395750D01*
X175375000Y-119536310D01*
X175471673Y-119769699D01*
X175650302Y-119948327D01*
X175883691Y-120045000D01*
X176474250Y-120045000D01*
X176633000Y-119886250D01*
X176633000Y-118237000D01*
X176887000Y-118237000D01*
X176887000Y-119886250D01*
X177045750Y-120045000D01*
X177636309Y-120045000D01*
X177869698Y-119948327D01*
X178048327Y-119769699D01*
X178145000Y-119536310D01*
X178145000Y-118395750D01*
X177986250Y-118237000D01*
X176887000Y-118237000D01*
X176633000Y-118237000D01*
X175533750Y-118237000D01*
X175375000Y-118395750D01*
X175157440Y-118395750D01*
X175157440Y-116810000D01*
X175133674Y-116683690D01*
X175375000Y-116683690D01*
X175375000Y-117824250D01*
X175533750Y-117983000D01*
X176633000Y-117983000D01*
X176633000Y-116333750D01*
X176887000Y-116333750D01*
X176887000Y-117983000D01*
X177986250Y-117983000D01*
X178145000Y-117824250D01*
X178145000Y-116683690D01*
X178048327Y-116450301D01*
X177869698Y-116271673D01*
X177636309Y-116175000D01*
X177045750Y-116175000D01*
X176887000Y-116333750D01*
X176633000Y-116333750D01*
X176474250Y-116175000D01*
X175883691Y-116175000D01*
X175650302Y-116271673D01*
X175471673Y-116450301D01*
X175375000Y-116683690D01*
X175133674Y-116683690D01*
X175113162Y-116574683D01*
X174974090Y-116358559D01*
X174761890Y-116213569D01*
X174510000Y-116162560D01*
X173117362Y-116162560D01*
X170607122Y-113652320D01*
X170607162Y-113606833D01*
X170465117Y-113263057D01*
X170202327Y-112999808D01*
X169858799Y-112857162D01*
X169486833Y-112856838D01*
X169143057Y-112998883D01*
X168879808Y-113261673D01*
X168737162Y-113605201D01*
X168736838Y-113977167D01*
X166970000Y-113977167D01*
X166970000Y-112649478D01*
X167050838Y-112454799D01*
X167051162Y-112082833D01*
X166909117Y-111739057D01*
X166674470Y-111504000D01*
X174752000Y-111504000D01*
X175042839Y-111446148D01*
X175289401Y-111281401D01*
X175797401Y-110773401D01*
X175962147Y-110526840D01*
X175962148Y-110526839D01*
X176020000Y-110236000D01*
X176020000Y-103193795D01*
X178704716Y-103193795D01*
X178953106Y-103794943D01*
X179412637Y-104255278D01*
X180013352Y-104504716D01*
X180663795Y-104505284D01*
X181264943Y-104256894D01*
X181499715Y-104022532D01*
X189367073Y-104022532D01*
X189465736Y-104289387D01*
X190075461Y-104515908D01*
X190725460Y-104491856D01*
X191214264Y-104289387D01*
X191312927Y-104022532D01*
X190340000Y-103049605D01*
X189367073Y-104022532D01*
X181499715Y-104022532D01*
X181725278Y-103797363D01*
X181974716Y-103196648D01*
X181975232Y-102605461D01*
X188694092Y-102605461D01*
X188718144Y-103255460D01*
X188920613Y-103744264D01*
X189187468Y-103842927D01*
X190160395Y-102870000D01*
X189187468Y-101897073D01*
X188920613Y-101995736D01*
X188694092Y-102605461D01*
X181975232Y-102605461D01*
X181975284Y-102546205D01*
X181726894Y-101945057D01*
X181499703Y-101717468D01*
X189367073Y-101717468D01*
X190340000Y-102690395D01*
X191312927Y-101717468D01*
X191214264Y-101450613D01*
X190604539Y-101224092D01*
X189954540Y-101248144D01*
X189465736Y-101450613D01*
X189367073Y-101717468D01*
X181499703Y-101717468D01*
X181267363Y-101484722D01*
X180666648Y-101235284D01*
X180016205Y-101234716D01*
X179415057Y-101483106D01*
X178954722Y-101942637D01*
X178705284Y-102543352D01*
X178704716Y-103193795D01*
X176020000Y-103193795D01*
X176020000Y-98044000D01*
X175962148Y-97753161D01*
X175962148Y-97753160D01*
X175797401Y-97506599D01*
X174273401Y-95982599D01*
X174026839Y-95817852D01*
X173736000Y-95760000D01*
X161290000Y-95760000D01*
X161047414Y-95808254D01*
X160999160Y-95817852D01*
X160752599Y-95982599D01*
X159088454Y-97646744D01*
X159036691Y-97625250D01*
X158465813Y-97624752D01*
X157938200Y-97842757D01*
X157534176Y-98246077D01*
X157315250Y-98773309D01*
X157314752Y-99344187D01*
X157532757Y-99871800D01*
X157936077Y-100275824D01*
X158463309Y-100494750D01*
X159034187Y-100495248D01*
X159561800Y-100277243D01*
X159965824Y-99873923D01*
X160184750Y-99346691D01*
X160185248Y-98775813D01*
X160162951Y-98721851D01*
X161604802Y-97280000D01*
X173421198Y-97280000D01*
X174500000Y-98358802D01*
X174500000Y-109921198D01*
X174437198Y-109984000D01*
X160020000Y-109984000D01*
X159729161Y-110041852D01*
X159482599Y-110206599D01*
X149801474Y-119887724D01*
X149632811Y-119635302D01*
X149250725Y-119380000D01*
X149632811Y-119124698D01*
X149943880Y-118659151D01*
X150053113Y-118110000D01*
X149943880Y-117560849D01*
X149632811Y-117095302D01*
X149350000Y-116906333D01*
X149350000Y-116773667D01*
X149632811Y-116584698D01*
X149943880Y-116119151D01*
X150053113Y-115570000D01*
X149943880Y-115020849D01*
X149632811Y-114555302D01*
X149228297Y-114285014D01*
X149445134Y-114182389D01*
X149821041Y-113767423D01*
X149981904Y-113379039D01*
X149859915Y-113157000D01*
X148717000Y-113157000D01*
X148717000Y-113177000D01*
X148463000Y-113177000D01*
X148463000Y-113157000D01*
X147320085Y-113157000D01*
X147198096Y-113379039D01*
X147358959Y-113767423D01*
X147734866Y-114182389D01*
X147951703Y-114285014D01*
X147547189Y-114555302D01*
X147236120Y-115020849D01*
X147126887Y-115570000D01*
X139893113Y-115570000D01*
X139783880Y-115020849D01*
X139472811Y-114555302D01*
X139328535Y-114458899D01*
X139465317Y-114433162D01*
X139681441Y-114294090D01*
X139826431Y-114081890D01*
X139877440Y-113830000D01*
X139877440Y-112680961D01*
X147198096Y-112680961D01*
X147320085Y-112903000D01*
X148463000Y-112903000D01*
X148463000Y-111759371D01*
X148717000Y-111759371D01*
X148717000Y-112903000D01*
X149859915Y-112903000D01*
X149981904Y-112680961D01*
X149821041Y-112292577D01*
X149445134Y-111877611D01*
X148939041Y-111638086D01*
X148717000Y-111759371D01*
X148463000Y-111759371D01*
X148240959Y-111638086D01*
X147734866Y-111877611D01*
X147358959Y-112292577D01*
X147198096Y-112680961D01*
X139877440Y-112680961D01*
X139877440Y-112230000D01*
X139833162Y-111994683D01*
X139694090Y-111778559D01*
X139481890Y-111633569D01*
X139230000Y-111582560D01*
X137630000Y-111582560D01*
X137394683Y-111626838D01*
X137178559Y-111765910D01*
X137033569Y-111978110D01*
X136982560Y-112230000D01*
X136982560Y-112270000D01*
X130752995Y-112270000D01*
X130582811Y-112015302D01*
X130117264Y-111704233D01*
X129568113Y-111595000D01*
X129511887Y-111595000D01*
X128962736Y-111704233D01*
X128497189Y-112015302D01*
X128186120Y-112480849D01*
X128076887Y-113030000D01*
X128186120Y-113579151D01*
X128497189Y-114044698D01*
X128879275Y-114300000D01*
X128497189Y-114555302D01*
X128186120Y-115020849D01*
X128076887Y-115570000D01*
X128186120Y-116119151D01*
X128497189Y-116584698D01*
X128879275Y-116840000D01*
X128497189Y-117095302D01*
X128186120Y-117560849D01*
X128076887Y-118110000D01*
X128186120Y-118659151D01*
X128497189Y-119124698D01*
X128901703Y-119394986D01*
X128684866Y-119497611D01*
X128308959Y-119912577D01*
X128148096Y-120300961D01*
X128270085Y-120523000D01*
X129413000Y-120523000D01*
X129413000Y-120503000D01*
X129667000Y-120503000D01*
X129667000Y-120523000D01*
X130809915Y-120523000D01*
X130931904Y-120300961D01*
X130771041Y-119912577D01*
X130395134Y-119497611D01*
X130178297Y-119394986D01*
X130582811Y-119124698D01*
X130893880Y-118659151D01*
X131003113Y-118110000D01*
X130893880Y-117560849D01*
X130582811Y-117095302D01*
X130200725Y-116840000D01*
X130582811Y-116584698D01*
X130893880Y-116119151D01*
X131003113Y-115570000D01*
X130893880Y-115020849D01*
X130582811Y-114555302D01*
X130200725Y-114300000D01*
X130582811Y-114044698D01*
X130752995Y-113790000D01*
X136982560Y-113790000D01*
X136982560Y-113830000D01*
X137026838Y-114065317D01*
X137165910Y-114281441D01*
X137378110Y-114426431D01*
X137533089Y-114457815D01*
X137387189Y-114555302D01*
X137076120Y-115020849D01*
X136966887Y-115570000D01*
X137076120Y-116119151D01*
X137387189Y-116584698D01*
X137769275Y-116840000D01*
X137387189Y-117095302D01*
X137076120Y-117560849D01*
X136966887Y-118110000D01*
X137076120Y-118659151D01*
X137387189Y-119124698D01*
X137769275Y-119380000D01*
X137387189Y-119635302D01*
X137076120Y-120100849D01*
X136966887Y-120650000D01*
X137076120Y-121199151D01*
X137387189Y-121664698D01*
X137852736Y-121975767D01*
X138401887Y-122085000D01*
X138458113Y-122085000D01*
X139007264Y-121975767D01*
X139472811Y-121664698D01*
X139783880Y-121199151D01*
X139893113Y-120650000D01*
X139783880Y-120100849D01*
X139472811Y-119635302D01*
X139090725Y-119380000D01*
X139472811Y-119124698D01*
X139642995Y-118870000D01*
X140655198Y-118870000D01*
X144848198Y-123063000D01*
X120702606Y-123063000D01*
X119507000Y-121867394D01*
X119507000Y-120999039D01*
X120528096Y-120999039D01*
X120688959Y-121387423D01*
X121064866Y-121802389D01*
X121570959Y-122041914D01*
X121793000Y-121920629D01*
X121793000Y-120777000D01*
X122047000Y-120777000D01*
X122047000Y-121920629D01*
X122269041Y-122041914D01*
X122775134Y-121802389D01*
X123151041Y-121387423D01*
X123311904Y-120999039D01*
X128148096Y-120999039D01*
X128308959Y-121387423D01*
X128684866Y-121802389D01*
X129190959Y-122041914D01*
X129413000Y-121920629D01*
X129413000Y-120777000D01*
X129667000Y-120777000D01*
X129667000Y-121920629D01*
X129889041Y-122041914D01*
X130395134Y-121802389D01*
X130771041Y-121387423D01*
X130931904Y-120999039D01*
X130809915Y-120777000D01*
X129667000Y-120777000D01*
X129413000Y-120777000D01*
X128270085Y-120777000D01*
X128148096Y-120999039D01*
X123311904Y-120999039D01*
X123189915Y-120777000D01*
X122047000Y-120777000D01*
X121793000Y-120777000D01*
X120650085Y-120777000D01*
X120528096Y-120999039D01*
X119507000Y-120999039D01*
X119507000Y-115570000D01*
X120456887Y-115570000D01*
X120566120Y-116119151D01*
X120877189Y-116584698D01*
X121259275Y-116840000D01*
X120877189Y-117095302D01*
X120566120Y-117560849D01*
X120456887Y-118110000D01*
X120566120Y-118659151D01*
X120877189Y-119124698D01*
X121281703Y-119394986D01*
X121064866Y-119497611D01*
X120688959Y-119912577D01*
X120528096Y-120300961D01*
X120650085Y-120523000D01*
X121793000Y-120523000D01*
X121793000Y-120503000D01*
X122047000Y-120503000D01*
X122047000Y-120523000D01*
X123189915Y-120523000D01*
X123311904Y-120300961D01*
X123151041Y-119912577D01*
X122775134Y-119497611D01*
X122558297Y-119394986D01*
X122962811Y-119124698D01*
X123273880Y-118659151D01*
X123383113Y-118110000D01*
X123273880Y-117560849D01*
X122962811Y-117095302D01*
X122580725Y-116840000D01*
X122962811Y-116584698D01*
X123273880Y-116119151D01*
X123383113Y-115570000D01*
X123273880Y-115020849D01*
X122962811Y-114555302D01*
X122818535Y-114458899D01*
X122955317Y-114433162D01*
X123171441Y-114294090D01*
X123316431Y-114081890D01*
X123367440Y-113830000D01*
X123367440Y-112230000D01*
X123323162Y-111994683D01*
X123301611Y-111961191D01*
X125282802Y-109980000D01*
X173228000Y-109980000D01*
X173518839Y-109922148D01*
X173765401Y-109757401D01*
X174273401Y-109249401D01*
X174438147Y-109002840D01*
X174438148Y-109002839D01*
X174496000Y-108712000D01*
X174496000Y-103124000D01*
X174438148Y-102833161D01*
X174273401Y-102586599D01*
X170280325Y-98593523D01*
X170263880Y-98510849D01*
X169952811Y-98045302D01*
X169487264Y-97734233D01*
X168938113Y-97625000D01*
X168881887Y-97625000D01*
X168332736Y-97734233D01*
X167867189Y-98045302D01*
X167556120Y-98510849D01*
X167446887Y-99060000D01*
X167556120Y-99609151D01*
X167867189Y-100074698D01*
X168332736Y-100385767D01*
X168881887Y-100495000D01*
X168938113Y-100495000D01*
X169487264Y-100385767D01*
X169748448Y-100211250D01*
X172976000Y-103438802D01*
X172976000Y-108397198D01*
X172913198Y-108460000D01*
X124968000Y-108460000D01*
X124677161Y-108517852D01*
X124430599Y-108682599D01*
X121530638Y-111582560D01*
X121120000Y-111582560D01*
X120884683Y-111626838D01*
X120668559Y-111765910D01*
X120523569Y-111978110D01*
X120472560Y-112230000D01*
X120472560Y-113830000D01*
X120516838Y-114065317D01*
X120655910Y-114281441D01*
X120868110Y-114426431D01*
X121023089Y-114457815D01*
X120877189Y-114555302D01*
X120566120Y-115020849D01*
X120456887Y-115570000D01*
X119507000Y-115570000D01*
X119507000Y-105694187D01*
X140804752Y-105694187D01*
X141022757Y-106221800D01*
X141426077Y-106625824D01*
X141953309Y-106844750D01*
X142524187Y-106845248D01*
X143051800Y-106627243D01*
X143455824Y-106223923D01*
X143674750Y-105696691D01*
X143675000Y-105410000D01*
X150936887Y-105410000D01*
X151046120Y-105959151D01*
X151357189Y-106424698D01*
X151822736Y-106735767D01*
X152371887Y-106845000D01*
X152428113Y-106845000D01*
X152977264Y-106735767D01*
X153442811Y-106424698D01*
X153753880Y-105959151D01*
X153806584Y-105694187D01*
X157314752Y-105694187D01*
X157532757Y-106221800D01*
X157936077Y-106625824D01*
X158463309Y-106844750D01*
X159034187Y-106845248D01*
X159561800Y-106627243D01*
X159965824Y-106223923D01*
X160184750Y-105696691D01*
X160185000Y-105410000D01*
X167446887Y-105410000D01*
X167556120Y-105959151D01*
X167867189Y-106424698D01*
X168332736Y-106735767D01*
X168881887Y-106845000D01*
X168938113Y-106845000D01*
X169487264Y-106735767D01*
X169952811Y-106424698D01*
X170263880Y-105959151D01*
X170373113Y-105410000D01*
X170263880Y-104860849D01*
X169952811Y-104395302D01*
X169487264Y-104084233D01*
X168938113Y-103975000D01*
X168881887Y-103975000D01*
X168332736Y-104084233D01*
X167867189Y-104395302D01*
X167556120Y-104860849D01*
X167446887Y-105410000D01*
X160185000Y-105410000D01*
X160185248Y-105125813D01*
X159967243Y-104598200D01*
X159563923Y-104194176D01*
X159036691Y-103975250D01*
X158465813Y-103974752D01*
X157938200Y-104192757D01*
X157534176Y-104596077D01*
X157315250Y-105123309D01*
X157314752Y-105694187D01*
X153806584Y-105694187D01*
X153863113Y-105410000D01*
X153753880Y-104860849D01*
X153442811Y-104395302D01*
X152977264Y-104084233D01*
X152428113Y-103975000D01*
X152371887Y-103975000D01*
X151822736Y-104084233D01*
X151357189Y-104395302D01*
X151046120Y-104860849D01*
X150936887Y-105410000D01*
X143675000Y-105410000D01*
X143675248Y-105125813D01*
X143457243Y-104598200D01*
X143053923Y-104194176D01*
X142526691Y-103975250D01*
X141955813Y-103974752D01*
X141428200Y-104192757D01*
X141024176Y-104596077D01*
X140805250Y-105123309D01*
X140804752Y-105694187D01*
X119507000Y-105694187D01*
X119507000Y-102464755D01*
X119607189Y-102614698D01*
X120072736Y-102925767D01*
X120155410Y-102942212D01*
X121890599Y-104677401D01*
X122137161Y-104842148D01*
X122428000Y-104900000D01*
X137668000Y-104900000D01*
X137958839Y-104842148D01*
X138205401Y-104677401D01*
X140522802Y-102360000D01*
X149860000Y-102360000D01*
X150150839Y-102302148D01*
X150397401Y-102137401D01*
X152094898Y-100439904D01*
X152371887Y-100495000D01*
X152428113Y-100495000D01*
X152705102Y-100439904D01*
X154402599Y-102137401D01*
X154649160Y-102302148D01*
X154697414Y-102311746D01*
X154940000Y-102360000D01*
X160721198Y-102360000D01*
X161624878Y-103263680D01*
X161624838Y-103309167D01*
X161766883Y-103652943D01*
X162029673Y-103916192D01*
X162373201Y-104058838D01*
X162745167Y-104059162D01*
X163088943Y-103917117D01*
X163352192Y-103654327D01*
X163494838Y-103310799D01*
X163495162Y-102938833D01*
X163353117Y-102595057D01*
X163090327Y-102331808D01*
X162746799Y-102189162D01*
X162699923Y-102189121D01*
X161573401Y-101062599D01*
X161326839Y-100897852D01*
X161036000Y-100840000D01*
X155254802Y-100840000D01*
X153798688Y-99383886D01*
X153863113Y-99060000D01*
X153753880Y-98510849D01*
X153442811Y-98045302D01*
X152977264Y-97734233D01*
X152428113Y-97625000D01*
X152371887Y-97625000D01*
X151822736Y-97734233D01*
X151357189Y-98045302D01*
X151046120Y-98510849D01*
X150936887Y-99060000D01*
X151001312Y-99383886D01*
X149545198Y-100840000D01*
X140208000Y-100840000D01*
X139965414Y-100888254D01*
X139917160Y-100897852D01*
X139670599Y-101062599D01*
X137353198Y-103380000D01*
X136962802Y-103380000D01*
X140522802Y-99820000D01*
X141001354Y-99820000D01*
X141022757Y-99871800D01*
X141426077Y-100275824D01*
X141953309Y-100494750D01*
X142524187Y-100495248D01*
X143051800Y-100277243D01*
X143455824Y-99873923D01*
X143674750Y-99346691D01*
X143675248Y-98775813D01*
X143652951Y-98721851D01*
X145602802Y-96772000D01*
X155448000Y-96772000D01*
X155738839Y-96714148D01*
X155985401Y-96549401D01*
X157402270Y-95132532D01*
X181907073Y-95132532D01*
X182005736Y-95399387D01*
X182615461Y-95625908D01*
X183265460Y-95601856D01*
X183754264Y-95399387D01*
X183852927Y-95132532D01*
X182880000Y-94159605D01*
X181907073Y-95132532D01*
X157402270Y-95132532D01*
X158411546Y-94123256D01*
X158463309Y-94144750D01*
X159034187Y-94145248D01*
X159561800Y-93927243D01*
X159965824Y-93523923D01*
X160158860Y-93059039D01*
X167518096Y-93059039D01*
X167678959Y-93447423D01*
X168054866Y-93862389D01*
X168560959Y-94101914D01*
X168783000Y-93980629D01*
X168783000Y-92837000D01*
X169037000Y-92837000D01*
X169037000Y-93980629D01*
X169259041Y-94101914D01*
X169765134Y-93862389D01*
X169898232Y-93715461D01*
X181234092Y-93715461D01*
X181258144Y-94365460D01*
X181460613Y-94854264D01*
X181727468Y-94952927D01*
X182700395Y-93980000D01*
X183059605Y-93980000D01*
X184032532Y-94952927D01*
X184299387Y-94854264D01*
X184525908Y-94244539D01*
X184501856Y-93594540D01*
X184299387Y-93105736D01*
X184032532Y-93007073D01*
X183059605Y-93980000D01*
X182700395Y-93980000D01*
X181727468Y-93007073D01*
X181460613Y-93105736D01*
X181234092Y-93715461D01*
X169898232Y-93715461D01*
X170141041Y-93447423D01*
X170301904Y-93059039D01*
X170179915Y-92837000D01*
X169037000Y-92837000D01*
X168783000Y-92837000D01*
X167640085Y-92837000D01*
X167518096Y-93059039D01*
X160158860Y-93059039D01*
X160184750Y-92996691D01*
X160184897Y-92827468D01*
X181907073Y-92827468D01*
X182880000Y-93800395D01*
X183852927Y-92827468D01*
X183754264Y-92560613D01*
X183144539Y-92334092D01*
X182494540Y-92358144D01*
X182005736Y-92560613D01*
X181907073Y-92827468D01*
X160184897Y-92827468D01*
X160185248Y-92425813D01*
X160162951Y-92371851D01*
X160173841Y-92360961D01*
X167518096Y-92360961D01*
X167640085Y-92583000D01*
X168783000Y-92583000D01*
X168783000Y-91439371D01*
X169037000Y-91439371D01*
X169037000Y-92583000D01*
X170179915Y-92583000D01*
X170301904Y-92360961D01*
X170141041Y-91972577D01*
X169765134Y-91557611D01*
X169259041Y-91318086D01*
X169037000Y-91439371D01*
X168783000Y-91439371D01*
X168560959Y-91318086D01*
X168054866Y-91557611D01*
X167678959Y-91972577D01*
X167518096Y-92360961D01*
X160173841Y-92360961D01*
X162366802Y-90168000D01*
X189169198Y-90168000D01*
X189620000Y-90618802D01*
M02*
