M48
; DRILL file {KiCad 5.1.6-c6e7f7d~86~ubuntu20.04.1} date Mon Jun  8 17:16:39 2020
; FORMAT={-:-/ absolute / metric / decimal}
; #@! TF.CreationDate,2020-06-08T17:16:39+01:00
; #@! TF.GenerationSoftware,Kicad,Pcbnew,5.1.6-c6e7f7d~86~ubuntu20.04.1
; #@! TF.FileFunction,Plated,1,2,PTH
FMAT,2
METRIC
T1C0.400
T2C0.450
T3C0.600
T4C0.800
T5C0.890
T6C0.900
T7C1.000
T8C1.200
T9C1.300
T10C2.010
%
G90
G05
T1
X107.05Y-51.65
X107.05Y-53.0
X107.9Y-51.65
X107.9Y-53.0
X108.75Y-51.65
X108.75Y-53.0
X109.6Y-51.65
X109.6Y-53.0
X110.45Y-51.65
X110.45Y-53.0
X111.3Y-51.65
X111.3Y-53.0
X112.15Y-51.65
X112.15Y-53.0
X113.0Y-51.65
X113.0Y-53.0
T2
X116.5Y-82.0
X120.0Y-67.0
X126.0Y-65.0
T4
X135.0Y-70.0
X135.0Y-72.54
X135.0Y-75.08
X135.0Y-77.62
X142.62Y-70.0
X142.62Y-72.54
X142.62Y-75.08
X142.62Y-77.62
X134.0Y-92.0
X146.7Y-92.0
X150.0Y-86.0
X162.7Y-86.0
X175.0Y-68.0
X175.0Y-80.7
X106.0Y-70.0
X106.0Y-72.54
X106.0Y-75.08
X106.0Y-77.62
X113.62Y-70.0
X113.62Y-72.54
X113.62Y-75.08
X113.62Y-77.62
X147.0Y-72.5
X147.0Y-75.0
X106.3Y-91.0
X119.0Y-91.0
X104.0Y-63.0
X116.7Y-63.0
X152.0Y-70.0
X152.0Y-72.54
X152.0Y-75.08
X152.0Y-77.62
X159.62Y-70.0
X159.62Y-72.54
X159.62Y-75.08
X159.62Y-77.62
X126.0Y-67.0
X126.0Y-79.7
X150.3Y-92.0
X163.0Y-92.0
X165.0Y-72.0
X165.0Y-74.5
X119.0Y-71.5
X119.0Y-74.0
T5
X168.46Y-60.0
X171.0Y-60.0
X147.46Y-60.0
X150.0Y-60.0
X126.46Y-60.0
X129.0Y-60.0
T6
X128.54Y-98.0
X172.0Y-98.0
X174.54Y-98.0
X109.0Y-98.0
X113.0Y-98.0
X117.0Y-98.0
X126.0Y-98.0
T7
X108.0Y-85.0
X110.54Y-85.0
X113.08Y-85.0
T8
X107.0Y-96.25
X107.0Y-102.25
X119.0Y-96.25
X119.0Y-102.25
T9
X181.0Y-69.0
X181.0Y-79.0
X186.0Y-74.0
T10
X165.92Y-54.92
X176.08Y-54.92
X144.92Y-54.92
X155.08Y-54.92
X123.92Y-54.92
X134.08Y-54.92
T3
G00X105.7Y-49.04
M15
G01X105.7Y-48.24
M16
G05
G00X105.7Y-52.77
M15
G01X105.7Y-51.27
M16
G05
G00X114.35Y-49.04
M15
G01X114.35Y-48.24
M16
G05
G00X114.35Y-52.77
M15
G01X114.35Y-51.27
M16
G05
T0
M30
