M48
;DRILL file {KiCad 4.0.7} date 01/14/20 09:17:58
;FORMAT={-:-/ absolute / inch / decimal}
FMAT,2
INCH,TZ
T1C0.016
T2C0.031
T3C0.039
T4C0.047
T5C0.100
T6C0.380
%
G90
G05
M72
T1
X6.Y-4.15
X6.4Y-4.06
X6.54Y-4.42
X6.68Y-4.48
T2
X4.75Y-3.7
X4.75Y-3.8
X4.75Y-3.9
X4.75Y-4.
X4.8Y-4.45
X4.8Y-4.55
X4.8Y-4.65
X4.8Y-4.75
X5.1Y-4.45
X5.1Y-4.55
X5.1Y-4.65
X5.1Y-4.75
X5.15Y-3.7
X5.15Y-3.8
X5.15Y-3.9
X5.15Y-4.
X5.45Y-4.45
X5.45Y-4.55
X5.45Y-4.65
X5.45Y-4.75
X5.6Y-3.65
X5.6Y-3.9
X5.6Y-4.15
X5.85Y-4.45
X5.85Y-4.55
X5.85Y-4.65
X5.85Y-4.75
X6.Y-3.65
X6.Y-3.9
X6.Y-4.15
X6.25Y-3.65
X6.25Y-3.9
X6.25Y-4.15
X6.65Y-3.65
X6.65Y-3.9
X6.65Y-4.15
T3
X7.1Y-4.05
X7.2Y-3.7
X7.4937Y-4.05
X7.4953Y-3.7
T4
X6.15Y-4.75
X6.3469Y-4.75
X6.5437Y-4.75
T5
X5.7Y-2.55
X6.5Y-2.55
X7.3Y-2.55
T6
X5.7Y-3.05
X6.5Y-3.05
X7.3Y-3.05
T3
X4.815Y-3.0925G85X4.815Y-3.1713
G05
X5.0394Y-3.0138G85X4.9606Y-3.0138
G05
X5.0394Y-3.25G85X4.9606Y-3.25
G05
T0
M30
